<?xml version="1.0" encoding="utf-8"?>
<!-- Generator: Adobe Illustrator 19.1.0, SVG Export Plug-In . SVG Version: 6.00 Build 0)  -->
<svg version="1.1" id="Layer_1" xmlns="http://www.w3.org/2000/svg" xmlns:xlink="http://www.w3.org/1999/xlink" x="0px" y="0px"
	 viewBox="0 0 10 10" style="enable-background:new 0 0 10 10;" xml:space="preserve">
<style type="text/css">
	.st0{clip-path:url(#SVGID_2_);fill:#F5822A;}
	
		.st1{clip-path:url(#SVGID_2_);fill:none;stroke:#F5832B;stroke-width:0.227;stroke-linecap:round;stroke-linejoin:round;stroke-miterlimit:10;}
	.st2{clip-path:url(#SVGID_2_);fill:#227CB5;}
	
		.st3{clip-path:url(#SVGID_2_);fill:none;stroke:#227CB5;stroke-width:0.227;stroke-linecap:round;stroke-linejoin:round;stroke-miterlimit:10;}
	
		.st4{clip-path:url(#SVGID_2_);fill:none;stroke:#231F20;stroke-width:0.227;stroke-linecap:round;stroke-linejoin:round;stroke-miterlimit:10;}
</style>
<g>
	<defs>
		<rect id="SVGID_1_" x="-128.9" y="-17.7" width="283.9" height="82.2"/>
	</defs>
	<clipPath id="SVGID_2_">
		<use xlink:href="#SVGID_1_"  style="overflow:visible;"/>
	</clipPath>
	<path class="st0" d="M4.8,1.2c0-0.6-0.5-1-1-1c-0.6,0-1,0.5-1,1c0,0.6,0.5,1,1,1C4.3,2.2,4.8,1.7,4.8,1.2"/>
	<circle class="st1" cx="3.7" cy="1.2" r="1"/>
	<path class="st2" d="M7.3,1.2c0-0.6-0.5-1-1-1c-0.6,0-1,0.5-1,1c0,0.6,0.5,1,1,1C6.9,2.2,7.3,1.7,7.3,1.2"/>
	<circle class="st3" cx="6.3" cy="1.2" r="1"/>
	<circle class="st4" cx="1.2" cy="1.2" r="1"/>
	<path class="st2" d="M9.9,1.2c0-0.6-0.5-1-1-1c-0.6,0-1,0.5-1,1c0,0.6,0.5,1,1,1C9.4,2.2,9.9,1.7,9.9,1.2"/>
	<circle class="st3" cx="8.9" cy="1.2" r="1"/>
	<path class="st0" d="M8.9,5.2c-0.6,0-1,0.5-1,1c0,0.6,0.5,1,1,1c0.6,0,1-0.5,1-1C9.9,5.7,9.4,5.2,8.9,5.2"/>
	<circle class="st1" cx="8.9" cy="6.3" r="1"/>
	<path class="st2" d="M8.9,2.7c-0.6,0-1,0.5-1,1c0,0.6,0.5,1,1,1c0.6,0,1-0.5,1-1C9.9,3.1,9.4,2.7,8.9,2.7"/>
	<circle class="st3" cx="8.9" cy="3.7" r="1"/>
	<circle class="st4" cx="8.9" cy="8.9" r="1"/>
	<path class="st2" d="M7.3,3.7c0-0.6-0.5-1-1-1c-0.6,0-1,0.5-1,1c0,0.6,0.5,1,1,1C6.9,4.8,7.3,4.3,7.3,3.7"/>
	<circle class="st3" cx="6.3" cy="3.7" r="1"/>
	<circle class="st4" cx="6.3" cy="6.3" r="1"/>
	<path class="st0" d="M6.3,7.8c-0.6,0-1,0.5-1,1c0,0.6,0.5,1,1,1c0.6,0,1-0.5,1-1C7.3,8.3,6.9,7.8,6.3,7.8"/>
	<circle class="st1" cx="6.3" cy="8.9" r="1"/>
	<circle class="st4" cx="3.7" cy="3.7" r="1"/>
	<path class="st0" d="M2.2,3.7c0-0.6-0.5-1-1-1c-0.6,0-1,0.5-1,1c0,0.6,0.5,1,1,1C1.7,4.8,2.2,4.3,2.2,3.7"/>
	<circle class="st1" cx="1.2" cy="3.7" r="1"/>
	<path class="st2" d="M4.7,6.3c0-0.6-0.5-1-1-1c-0.6,0-1,0.5-1,1c0,0.6,0.5,1,1,1C4.2,7.3,4.7,6.9,4.7,6.3"/>
	<circle class="st3" cx="3.6" cy="6.3" r="1"/>
	<path class="st2" d="M4.7,8.9c0-0.6-0.5-1-1-1c-0.6,0-1,0.5-1,1c0,0.6,0.5,1,1,1C4.2,9.9,4.7,9.4,4.7,8.9"/>
	<circle class="st3" cx="3.6" cy="8.9" r="1"/>
	<path class="st2" d="M2.2,6.3c0-0.6-0.5-1-1-1c-0.6,0-1,0.5-1,1c0,0.6,0.5,1,1,1C1.7,7.3,2.2,6.9,2.2,6.3"/>
	<circle class="st3" cx="1.2" cy="6.3" r="1"/>
	<path class="st2" d="M2.2,8.9c0-0.6-0.5-1-1-1c-0.6,0-1,0.5-1,1c0,0.6,0.5,1,1,1C1.7,9.9,2.2,9.4,2.2,8.9"/>
	<circle class="st3" cx="1.2" cy="8.9" r="1"/>
</g>
</svg>
