<?xml version="1.0" encoding="utf-8"?>
<!-- Generator: Adobe Illustrator 19.1.0, SVG Export Plug-In . SVG Version: 6.00 Build 0)  -->
<svg version="1.1" id="Layer_1" xmlns="http://www.w3.org/2000/svg" xmlns:xlink="http://www.w3.org/1999/xlink" x="0px" y="0px"
	 viewBox="0 0 9.8 10.4" style="enable-background:new 0 0 9.8 10.4;" xml:space="preserve">
<style type="text/css">
	
		.st0{clip-path:url(#SVGID_2_);fill:none;stroke:#247CB5;stroke-width:0.453;stroke-linecap:round;stroke-linejoin:round;stroke-miterlimit:10;}
	.st1{fill:none;stroke:#247CB5;stroke-width:0.453;stroke-linecap:round;stroke-linejoin:round;stroke-miterlimit:10;}
	
		.st2{clip-path:url(#SVGID_4_);fill:none;stroke:#247CB5;stroke-width:0.453;stroke-linecap:round;stroke-linejoin:round;stroke-miterlimit:10;}
	
		.st3{clip-path:url(#SVGID_6_);fill:none;stroke:#247CB5;stroke-width:0.453;stroke-linecap:round;stroke-linejoin:round;stroke-miterlimit:10;}
	.st4{clip-path:url(#SVGID_6_);fill:#F5832B;}
	
		.st5{clip-path:url(#SVGID_6_);fill:none;stroke:#F5832B;stroke-width:0.453;stroke-linecap:round;stroke-linejoin:round;stroke-miterlimit:10;}
	.st6{clip-path:url(#SVGID_8_);fill:#F5822A;}
	
		.st7{clip-path:url(#SVGID_8_);fill:none;stroke:#F5832B;stroke-width:0.453;stroke-linecap:round;stroke-linejoin:round;stroke-miterlimit:10;}
</style>
<g>
	<defs>
		<rect id="SVGID_1_" x="0" width="9.8" height="10.4"/>
	</defs>
	<clipPath id="SVGID_2_">
		<use xlink:href="#SVGID_1_"  style="overflow:visible;"/>
	</clipPath>
	<line class="st0" x1="0.4" y1="8.4" x2="3.6" y2="8.4"/>
	<line class="st0" x1="3.6" y1="10" x2="5.8" y2="10"/>
</g>
<line class="st1" x1="3.6" y1="6.8" x2="5.8" y2="6.8"/>
<g>
	<defs>
		<rect id="SVGID_3_" x="0" width="9.8" height="10.4"/>
	</defs>
	<clipPath id="SVGID_4_">
		<use xlink:href="#SVGID_3_"  style="overflow:visible;"/>
	</clipPath>
	<line class="st2" x1="0.4" y1="2" x2="1.1" y2="2"/>
</g>
<line class="st1" x1="1.1" y1="3.6" x2="5.8" y2="3.6"/>
<g>
	<defs>
		<rect id="SVGID_5_" x="0" width="9.8" height="10.4"/>
	</defs>
	<clipPath id="SVGID_6_">
		<use xlink:href="#SVGID_5_"  style="overflow:visible;"/>
	</clipPath>
	<line class="st3" x1="1.1" y1="0.4" x2="5.8" y2="0.4"/>
	<line class="st3" x1="0.4" y1="8.4" x2="0.4" y2="2"/>
	<line class="st3" x1="1.1" y1="3.6" x2="1.1" y2="0.4"/>
	<line class="st3" x1="3.6" y1="10" x2="3.6" y2="6.8"/>
	<path class="st4" d="M5.5,3.6c0-0.1,0.1-0.3,0.3-0.3S6,3.4,6,3.6c0,0.1-0.1,0.3-0.3,0.3S5.5,3.7,5.5,3.6"/>
	<path class="st5" d="M5.5,3.6c0-0.1,0.1-0.3,0.3-0.3S6,3.4,6,3.6c0,0.1-0.1,0.3-0.3,0.3S5.5,3.7,5.5,3.6"/>
	<path class="st4" d="M5.5,6.8c0-0.1,0.1-0.3,0.3-0.3S6,6.6,6,6.8c0,0.1-0.1,0.3-0.3,0.3S5.5,6.9,5.5,6.8"/>
	<path class="st5" d="M5.5,6.8c0-0.1,0.1-0.3,0.3-0.3S6,6.6,6,6.8c0,0.1-0.1,0.3-0.3,0.3S5.5,6.9,5.5,6.8"/>
	<path class="st4" d="M5.5,0.4c0-0.1,0.1-0.3,0.3-0.3S6,0.2,6,0.4c0,0.1-0.1,0.3-0.3,0.3S5.5,0.5,5.5,0.4"/>
	<path class="st4" d="M5.5,10c0-0.1,0.1-0.3,0.3-0.3S6,9.8,6,10c0,0.1-0.1,0.3-0.3,0.3S5.5,10.1,5.5,10"/>
	<path class="st5" d="M5.5,10c0-0.1,0.1-0.3,0.3-0.3S6,9.8,6,10c0,0.1-0.1,0.3-0.3,0.3S5.5,10.1,5.5,10"/>
	<path class="st5" d="M5.5,0.4c0-0.1,0.1-0.3,0.3-0.3S6,0.2,6,0.4c0,0.1-0.1,0.3-0.3,0.3S5.5,0.5,5.5,0.4"/>
</g>
<g>
	<defs>
		<rect id="SVGID_7_" x="-120" y="-17.6" width="283.9" height="82.2"/>
	</defs>
	<clipPath id="SVGID_8_">
		<use xlink:href="#SVGID_7_"  style="overflow:visible;"/>
	</clipPath>
	<path class="st6" d="M6.2,0.4C6.2,0.2,6,0,5.8,0C5.5,0,5.3,0.2,5.3,0.4c0,0.2,0.2,0.4,0.4,0.4C6,0.8,6.2,0.6,6.2,0.4"/>
	<ellipse class="st7" cx="5.8" cy="0.4" rx="0.4" ry="0.4"/>
	<path class="st6" d="M6.2,3.6c0-0.2-0.2-0.4-0.4-0.4c-0.2,0-0.4,0.2-0.4,0.4C5.3,3.9,5.5,4,5.8,4C6,4,6.2,3.9,6.2,3.6"/>
	<ellipse class="st7" cx="5.8" cy="3.6" rx="0.4" ry="0.4"/>
	<path class="st6" d="M6.2,6.8c0-0.2-0.2-0.4-0.4-0.4c-0.2,0-0.4,0.2-0.4,0.4c0,0.2,0.2,0.4,0.4,0.4C6,7.2,6.2,7,6.2,6.8"/>
	<ellipse class="st7" cx="5.8" cy="6.8" rx="0.4" ry="0.4"/>
	<path class="st6" d="M6.2,10c0-0.2-0.2-0.4-0.4-0.4c-0.2,0-0.4,0.2-0.4,0.4c0,0.2,0.2,0.4,0.4,0.4C6,10.4,6.2,10.2,6.2,10"/>
	<ellipse class="st7" cx="5.8" cy="10" rx="0.4" ry="0.4"/>
</g>
</svg>
