<?xml version="1.0" encoding="utf-8"?>
<!-- Generator: Adobe Illustrator 19.1.0, SVG Export Plug-In . SVG Version: 6.00 Build 0)  -->
<svg version="1.1" id="Layer_1" xmlns="http://www.w3.org/2000/svg" xmlns:xlink="http://www.w3.org/1999/xlink" x="0px" y="0px"
	 viewBox="0 0 15.3 11.1" style="enable-background:new 0 0 15.3 11.1;" xml:space="preserve">
<style type="text/css">
	.st0{fill:#207CB6;}
	.st1{font-family:'LucidaSans-TypewriterBold';}
	.st2{font-size:3.6248px;}
	.st3{fill:#F5822A;}
	.st4{fill:#231F20;}
</style>
<text transform="matrix(1 0 0 1 -1.945496e-04 3.1227)" class="st0 st1 st2">A</text>
<text transform="matrix(1 0 0 1 2.1856 3.1227)" class="st3 st1 st2">C</text>
<text transform="matrix(1 0 0 1 4.3723 3.1227)" class="st0 st1 st2">A</text>
<text transform="matrix(1 0 0 1 6.5576 3.1227)" class="st3 st1 st2">C</text>
<text transform="matrix(1 0 0 1 8.7424 3.1227)" class="st4 st1 st2">...</text>
<text transform="matrix(1 0 0 1 6.702423e-03 6.7476)" class="st3 st1 st2">TC</text>
<text transform="matrix(1 0 0 1 4.3753 6.7476)" class="st0 st1 st2">A</text>
<text transform="matrix(1 0 0 1 6.5611 6.7476)" class="st3 st1 st2">C</text>
<text transform="matrix(1 0 0 1 8.7464 6.7476)" class="st4 st1 st2">...</text>
<text transform="matrix(1 0 0 1 1.058960e-02 10.3725)" class="st0 st1 st2">A</text>
<text transform="matrix(1 0 0 1 2.1969 10.3725)" class="st3 st1 st2">C</text>
<text transform="matrix(1 0 0 1 4.3822 10.3725)" class="st0 st1 st2">AG</text>
<text transform="matrix(1 0 0 1 8.7499 10.3725)" class="st4 st1 st2">...</text>
</svg>
