<?xml version="1.0" encoding="UTF-8" standalone="no"?>
<svg
   xmlns:dc="http://purl.org/dc/elements/1.1/"
   xmlns:cc="http://creativecommons.org/ns#"
   xmlns:rdf="http://www.w3.org/1999/02/22-rdf-syntax-ns#"
   xmlns:svg="http://www.w3.org/2000/svg"
   xmlns="http://www.w3.org/2000/svg"
   viewBox="0 0 127.66519 30.322269"
   height="30.322269"
   width="127.66519"
   xml:space="preserve"
   version="1.1"
   id="svg2"><metadata
     id="metadata8"><rdf:RDF><cc:Work
         rdf:about=""><dc:format>image/svg+xml</dc:format><dc:type
           rdf:resource="http://purl.org/dc/dcmitype/StillImage" /><dc:title></dc:title></cc:Work></rdf:RDF></metadata><defs
     id="defs6" /><g
     transform="matrix(1.25,0,0,-1.25,0,30.32227)"
     id="g10"><g
       id="g12"><path
         id="path14"
         style="fill:#000000;fill-opacity:1;fill-rule:nonzero;stroke:none"
         d="m 0.988,14.973 0,-2.75 1.235,0 c 0.457,0 0.812,0.117 1.062,0.359 0.258,0.238 0.391,0.578 0.391,1.016 0,0.437 -0.133,0.773 -0.391,1.015 -0.25,0.239 -0.605,0.36 -1.062,0.36 l -1.235,0 z m -0.984,0.812 2.219,0 c 0.82,0 1.441,-0.187 1.859,-0.562 0.414,-0.368 0.625,-0.907 0.625,-1.625 0,-0.719 -0.211,-1.262 -0.625,-1.625 C 3.664,11.605 3.043,11.426 2.223,11.426 l -1.235,0 0,-2.938 -0.984,0 0,7.297 z" /><path
         id="path16"
         style="fill:#000000;fill-opacity:1;fill-rule:nonzero;stroke:none"
         d="M 8.148,16.082 C 7.719,15.332 7.398,14.586 7.18,13.848 6.969,13.117 6.867,12.379 6.867,11.629 6.867,10.879 6.969,10.133 7.18,9.395 7.398,8.652 7.719,7.918 8.148,7.176 l -0.781,0 c -0.48,0.762 -0.844,1.508 -1.094,2.25 -0.242,0.738 -0.359,1.472 -0.359,2.203 0,0.726 0.117,1.457 0.359,2.187 0.239,0.739 0.602,1.493 1.094,2.266 l 0.781,0 z" /><path
         id="path18"
         style="fill:#000000;fill-opacity:1;fill-rule:nonzero;stroke:none"
         d="m 9.945,15.785 1.469,0 1.859,-4.969 1.875,4.969 1.469,0 0,-7.297 -0.969,0 0,6.407 -1.875,-5 -1,0 -1.875,5 0,-6.407 -0.953,0 0,7.297 z" /><path
         id="path20"
         style="fill:#000000;fill-opacity:1;fill-rule:nonzero;stroke:none"
         d="m 18.84,16.129 0.828,0 0,-10 -0.828,0 0,10 z" /><path
         id="path22"
         style="fill:#000000;fill-opacity:1;fill-rule:nonzero;stroke:none"
         d="m 22.922,14.973 0,-5.672 1.187,0 c 1.008,0 1.743,0.222 2.203,0.672 0.469,0.457 0.704,1.179 0.704,2.172 0,0.976 -0.235,1.691 -0.704,2.14 -0.46,0.457 -1.195,0.688 -2.203,0.688 l -1.187,0 z m -0.984,0.812 2.031,0 c 1.406,0 2.437,-0.297 3.093,-0.89 0.665,-0.586 1,-1.5 1,-2.75 0,-1.262 -0.335,-2.188 -1,-2.782 C 26.406,8.777 25.375,8.488 23.969,8.488 l -2.031,0 0,7.297 z" /><path
         id="path24"
         style="fill:#000000;fill-opacity:1;fill-rule:nonzero;stroke:none"
         d="m 29.445,16.082 0.782,0 c 0.488,-0.773 0.851,-1.527 1.093,-2.266 0.25,-0.73 0.375,-1.461 0.375,-2.187 0,-0.731 -0.125,-1.465 -0.375,-2.203 -0.242,-0.742 -0.605,-1.488 -1.093,-2.25 l -0.782,0 c 0.438,0.742 0.758,1.476 0.969,2.219 0.219,0.738 0.328,1.484 0.328,2.234 0,0.75 -0.109,1.488 -0.328,2.219 -0.211,0.738 -0.531,1.484 -0.969,2.234 z" /><path
         id="path26"
         style="fill:#000000;fill-opacity:1;fill-rule:nonzero;stroke:none"
         d="m 33.617,13.035 6.25,0 0,-0.828 -6.25,0 0,0.828 z m 0,-2 6.25,0 0,-0.828 -6.25,0 0,0.828 z" /><path
         id="path28"
         style="fill:#000000;fill-opacity:1;fill-rule:nonzero;stroke:none"
         d="m 45.445,23.102 0,-2.75 1.235,0 c 0.457,0 0.812,0.117 1.062,0.359 0.258,0.238 0.391,0.578 0.391,1.016 0,0.437 -0.133,0.773 -0.391,1.015 -0.25,0.238 -0.605,0.36 -1.062,0.36 l -1.235,0 z m -0.984,0.812 2.219,0 c 0.82,0 1.441,-0.187 1.859,-0.562 0.414,-0.368 0.625,-0.907 0.625,-1.625 0,-0.719 -0.211,-1.262 -0.625,-1.625 C 48.121,19.734 47.5,19.555 46.68,19.555 l -1.235,0 0,-2.938 -0.984,0 0,7.297 z" /><path
         id="path30"
         style="fill:#000000;fill-opacity:1;fill-rule:nonzero;stroke:none"
         d="m 52.605,24.211 c -0.429,-0.75 -0.75,-1.496 -0.968,-2.234 -0.211,-0.731 -0.313,-1.469 -0.313,-2.219 0,-0.75 0.102,-1.496 0.313,-2.235 0.218,-0.742 0.539,-1.476 0.968,-2.218 l -0.781,0 c -0.48,0.761 -0.844,1.508 -1.094,2.25 -0.242,0.738 -0.359,1.472 -0.359,2.203 0,0.726 0.117,1.457 0.359,2.187 0.239,0.739 0.602,1.493 1.094,2.266 l 0.781,0 z" /><path
         id="path32"
         style="fill:#000000;fill-opacity:1;fill-rule:nonzero;stroke:none"
         d="m 55.387,23.102 0,-5.672 1.187,0 c 1.008,0 1.742,0.222 2.203,0.672 0.469,0.457 0.703,1.179 0.703,2.171 0,0.977 -0.234,1.692 -0.703,2.141 -0.461,0.457 -1.195,0.688 -2.203,0.688 l -1.187,0 z m -0.985,0.812 2.032,0 c 1.406,0 2.437,-0.297 3.093,-0.891 0.664,-0.585 1,-1.5 1,-2.75 0,-1.261 -0.336,-2.187 -1,-2.781 -0.656,-0.586 -1.687,-0.875 -3.093,-0.875 l -2.032,0 0,7.297 z" /><path
         id="path34"
         style="fill:#000000;fill-opacity:1;fill-rule:nonzero;stroke:none"
         d="m 62.379,24.258 0.828,0 0,-10 -0.828,0 0,10 z" /><path
         id="path36"
         style="fill:#000000;fill-opacity:1;fill-rule:nonzero;stroke:none"
         d="m 65.477,23.914 1.468,0 1.86,-4.969 1.875,4.969 1.468,0 0,-7.297 -0.968,0 0,6.406 -1.875,-5 -1,0 -1.875,5 0,-6.406 -0.953,0 0,7.297 z" /><path
         id="path38"
         style="fill:#000000;fill-opacity:1;fill-rule:nonzero;stroke:none"
         d="m 73.902,24.211 0.782,0 c 0.488,-0.773 0.851,-1.527 1.093,-2.266 0.25,-0.73 0.375,-1.461 0.375,-2.187 0,-0.731 -0.125,-1.465 -0.375,-2.203 -0.242,-0.742 -0.605,-1.489 -1.093,-2.25 l -0.782,0 c 0.438,0.742 0.758,1.476 0.969,2.218 0.219,0.739 0.328,1.485 0.328,2.235 0,0.75 -0.109,1.488 -0.328,2.219 -0.211,0.738 -0.531,1.484 -0.969,2.234 z" /><path
         id="path40"
         style="fill:#000000;fill-opacity:1;fill-rule:nonzero;stroke:none"
         d="m 78.98,23.102 0,-2.75 1.235,0 c 0.457,0 0.812,0.117 1.062,0.359 0.258,0.238 0.391,0.578 0.391,1.016 0,0.437 -0.133,0.773 -0.391,1.015 -0.25,0.238 -0.605,0.36 -1.062,0.36 l -1.235,0 z m -0.984,0.812 2.219,0 c 0.82,0 1.441,-0.187 1.859,-0.562 0.414,-0.368 0.625,-0.907 0.625,-1.625 0,-0.719 -0.211,-1.262 -0.625,-1.625 -0.418,-0.368 -1.039,-0.547 -1.859,-0.547 l -1.235,0 0,-2.938 -0.984,0 0,7.297 z" /><path
         id="path42"
         style="fill:#000000;fill-opacity:1;fill-rule:nonzero;stroke:none"
         d="m 86.141,24.211 c -0.43,-0.75 -0.75,-1.496 -0.969,-2.234 -0.211,-0.731 -0.313,-1.469 -0.313,-2.219 0,-0.75 0.102,-1.496 0.313,-2.235 0.219,-0.742 0.539,-1.476 0.969,-2.218 l -0.782,0 c -0.48,0.761 -0.843,1.508 -1.093,2.25 -0.243,0.738 -0.36,1.472 -0.36,2.203 0,0.726 0.117,1.457 0.36,2.187 0.238,0.739 0.601,1.493 1.093,2.266 l 0.782,0 z" /><path
         id="path44"
         style="fill:#000000;fill-opacity:1;fill-rule:nonzero;stroke:none"
         d="m 87.938,23.914 1.468,0 1.86,-4.969 1.875,4.969 1.468,0 0,-7.297 -0.968,0 0,6.406 -1.875,-5 -1,0 -1.875,5 0,-6.406 -0.953,0 0,7.297 z" /><path
         id="path46"
         style="fill:#000000;fill-opacity:1;fill-rule:nonzero;stroke:none"
         d="m 96.363,24.211 0.782,0 c 0.488,-0.773 0.851,-1.527 1.093,-2.266 0.25,-0.73 0.375,-1.461 0.375,-2.187 0,-0.731 -0.125,-1.465 -0.375,-2.203 -0.242,-0.742 -0.605,-1.489 -1.093,-2.25 l -0.782,0 c 0.438,0.742 0.758,1.476 0.969,2.218 0.219,0.739 0.328,1.485 0.328,2.235 0,0.75 -0.109,1.488 -0.328,2.219 -0.211,0.738 -0.531,1.484 -0.969,2.234 z" /><path
         id="path48"
         style="fill:#000000;fill-opacity:1;fill-rule:nonzero;stroke:none"
         d="m 60.746,7.801 0,-2.75 1.234,0 c 0.458,0 0.813,0.117 1.063,0.359 0.258,0.238 0.391,0.578 0.391,1.016 0,0.437 -0.133,0.773 -0.391,1.015 -0.25,0.239 -0.605,0.36 -1.063,0.36 l -1.234,0 z m -0.984,0.812 2.218,0 c 0.821,0 1.442,-0.187 1.86,-0.562 0.414,-0.367 0.625,-0.906 0.625,-1.625 0,-0.719 -0.211,-1.262 -0.625,-1.625 C 63.422,4.434 62.801,4.254 61.98,4.254 l -1.234,0 0,-2.938 -0.984,0 0,7.297 z" /><path
         id="path50"
         style="fill:#000000;fill-opacity:1;fill-rule:nonzero;stroke:none"
         d="M 67.906,8.91 C 67.477,8.16 67.156,7.414 66.938,6.676 66.727,5.945 66.625,5.207 66.625,4.457 c 0,-0.75 0.102,-1.496 0.313,-2.234 0.218,-0.743 0.539,-1.477 0.968,-2.219 l -0.781,0 c -0.48,0.762 -0.844,1.508 -1.094,2.25 -0.242,0.738 -0.359,1.473 -0.359,2.203 0,0.727 0.117,1.457 0.359,2.188 0.239,0.738 0.602,1.492 1.094,2.265 l 0.781,0 z" /><path
         id="path52"
         style="fill:#000000;fill-opacity:1;fill-rule:nonzero;stroke:none"
         d="m 70.688,7.801 0,-5.672 1.187,0 c 1.008,0 1.742,0.223 2.203,0.672 0.469,0.457 0.703,1.179 0.703,2.172 0,0.976 -0.234,1.691 -0.703,2.14 -0.461,0.457 -1.195,0.688 -2.203,0.688 l -1.187,0 z m -0.985,0.812 2.031,0 c 1.407,0 2.438,-0.297 3.094,-0.89 0.664,-0.586 1,-1.5 1,-2.75 0,-1.262 -0.336,-2.188 -1,-2.782 C 74.172,1.605 73.141,1.316 71.734,1.316 l -2.031,0 0,7.297 z" /><path
         id="path54"
         style="fill:#000000;fill-opacity:1;fill-rule:nonzero;stroke:none"
         d="m 77.211,8.91 0.781,0 c 0.488,-0.773 0.852,-1.527 1.094,-2.265 0.25,-0.731 0.375,-1.461 0.375,-2.188 0,-0.73 -0.125,-1.465 -0.375,-2.203 C 78.844,1.512 78.48,0.766 77.992,0.004 l -0.781,0 c 0.437,0.742 0.758,1.476 0.969,2.219 0.218,0.738 0.328,1.484 0.328,2.234 0,0.75 -0.11,1.488 -0.328,2.219 -0.211,0.738 -0.532,1.484 -0.969,2.234 z" /><g
         transform="matrix(1,0,0,-1,0,24.257816)"
         id="g56"><path
           id="path58"
           style="fill:none;stroke:#000000;stroke-width:0.80000001;stroke-linecap:butt;stroke-linejoin:miter;stroke-miterlimit:4;stroke-dasharray:none;stroke-opacity:1"
           d="m 42.133,12.609 60,0" /></g></g></g></svg>