<?xml version="1.0" encoding="UTF-8" standalone="no"?>
<svg
   xmlns:dc="http://purl.org/dc/elements/1.1/"
   xmlns:cc="http://creativecommons.org/ns#"
   xmlns:rdf="http://www.w3.org/1999/02/22-rdf-syntax-ns#"
   xmlns:svg="http://www.w3.org/2000/svg"
   xmlns="http://www.w3.org/2000/svg"
   viewBox="0 0 1309.7158 827.98828"
   height="827.98828"
   width="1309.7158"
   xml:space="preserve"
   version="1.1"
   id="svg2"><metadata
     id="metadata8"><rdf:RDF><cc:Work
         rdf:about=""><dc:format>image/svg+xml</dc:format><dc:type
           rdf:resource="http://purl.org/dc/dcmitype/StillImage" /><dc:title></dc:title></cc:Work></rdf:RDF></metadata><defs
     id="defs6"><clipPath
       id="clipPath20"
       clipPathUnits="userSpaceOnUse"><path
         id="path22"
         d="m 165.71562,39.35625 666.26866,0 0,543.6 -666.26866,0 0,-543.6 z" /></clipPath><clipPath
       id="clipPath30"
       clipPathUnits="userSpaceOnUse"><path
         id="path32"
         d="m 165.71562,39.35625 666.26866,0 0,543.6 -666.26866,0 0,-543.6 z" /></clipPath><clipPath
       id="clipPath48"
       clipPathUnits="userSpaceOnUse"><path
         id="path50"
         d="m 165.71562,39.35625 666.26866,0 0,543.6 -666.26866,0 0,-543.6 z" /></clipPath><clipPath
       id="clipPath74"
       clipPathUnits="userSpaceOnUse"><path
         id="path76"
         d="m 165.71562,39.35625 666.26866,0 0,543.6 -666.26866,0 0,-543.6 z" /></clipPath><clipPath
       id="clipPath90"
       clipPathUnits="userSpaceOnUse"><path
         id="path92"
         d="m 165.71562,39.35625 666.26866,0 0,543.6 -666.26866,0 0,-543.6 z" /></clipPath><clipPath
       id="clipPath100"
       clipPathUnits="userSpaceOnUse"><path
         id="path102"
         d="m 165.71562,39.35625 666.26866,0 0,543.6 -666.26866,0 0,-543.6 z" /></clipPath><clipPath
       id="clipPath110"
       clipPathUnits="userSpaceOnUse"><path
         id="path112"
         d="m 165.71562,39.35625 666.26866,0 0,543.6 -666.26866,0 0,-543.6 z" /></clipPath><clipPath
       id="clipPath124"
       clipPathUnits="userSpaceOnUse"><path
         id="path126"
         d="m 836.14846,39.35625 166.56714,0 0,543.6 -166.56714,0 0,-543.6 z" /></clipPath></defs><g
     transform="matrix(1.25,0,0,-1.25,0,827.98828)"
     id="g10"><path
       id="path12"
       style="fill:#ffffff;fill-opacity:1;fill-rule:nonzero;stroke:none"
       d="m 0,0 1047.7727,0 0,662.39062 L 0,662.39062 0,0 Z" /><path
       id="path14"
       style="fill:#ffffff;fill-opacity:1;fill-rule:nonzero;stroke:none"
       d="m 165.71562,39.35625 666.26866,0 0,543.6 -666.26866,0 0,-543.6 z" /><g
       id="g16"><g
         clip-path="url(#clipPath20)"
         id="g18"><path
           id="path24"
           style="fill:#000000;fill-opacity:0.05;fill-rule:nonzero;stroke:none"
           d="m 165.71562,39.35625 0,543.6 666.26866,0 0,-543.6 -666.26866,0 z" /></g></g><g
       id="g26"><g
         clip-path="url(#clipPath30)"
         id="g28"><path
           id="path34"
           style="fill:none;stroke:#b0b0b0;stroke-width:0.80000001;stroke-linecap:butt;stroke-linejoin:round;stroke-miterlimit:10;stroke-dasharray:0.8, 1.32;stroke-dashoffset:0;stroke-opacity:1"
           d="m 261.13291,39.35625 0,543.6" /></g></g><g
       id="g36"><path
         id="path38"
         style="fill:#000000;fill-opacity:1;fill-rule:nonzero;stroke:#000000;stroke-width:0.80000001;stroke-linecap:butt;stroke-linejoin:round;stroke-miterlimit:10;stroke-dasharray:none;stroke-opacity:1"
         d="m 261.13291,39.35625 0,-3.5" /><text
         id="text40"
         style="font-variant:normal;font-weight:normal;font-size:26px;font-family:DejaVuSans;-inkscape-font-specification:DejaVuSans;writing-mode:lr-tb;fill:#000000;fill-opacity:1;fill-rule:nonzero;stroke:none"
         transform="matrix(1,0,0,-1,240.45323,12.60625)"><tspan
           id="tspan42"
           y="0"
           x="0 16.535999 24.804001">0.0</tspan></text>
</g><g
       id="g44"><g
         clip-path="url(#clipPath48)"
         id="g46"><path
           id="path52"
           style="fill:none;stroke:#b0b0b0;stroke-width:0.80000001;stroke-linecap:butt;stroke-linejoin:round;stroke-miterlimit:10;stroke-dasharray:0.8, 1.32;stroke-dashoffset:0;stroke-opacity:1"
           d="m 738.21935,39.35625 0,543.6" /></g></g><g
       id="g54"><path
         id="path56"
         style="fill:#000000;fill-opacity:1;fill-rule:nonzero;stroke:#000000;stroke-width:0.80000001;stroke-linecap:butt;stroke-linejoin:round;stroke-miterlimit:10;stroke-dasharray:none;stroke-opacity:1"
         d="m 738.21935,39.35625 0,-3.5" /><text
         id="text58"
         style="font-variant:normal;font-weight:normal;font-size:26px;font-family:DejaVuSans;-inkscape-font-specification:DejaVuSans;writing-mode:lr-tb;fill:#000000;fill-opacity:1;fill-rule:nonzero;stroke:none"
         transform="matrix(1,0,0,-1,717.53966,12.60625)"><tspan
           id="tspan60"
           y="0"
           x="0 16.535999 24.804001">1.0</tspan></text>
<text
         id="text62"
         style="font-variant:normal;font-weight:normal;font-size:34px;font-family:DejaVuSans;-inkscape-font-specification:DejaVuSans;writing-mode:lr-tb;fill:#000000;fill-opacity:1;fill-rule:nonzero;stroke:none"
         transform="matrix(1,0,0,-1,409.98277,592.95625)"><tspan
           id="tspan64"
           y="0"
           x="0 18.700001 39.507999 60.417999 72.386002 84.353996 93.806 112.506 121.958 142.868 164.424">coefficient</tspan></text>
<text
         id="text66"
         style="font-variant:normal;font-weight:normal;font-size:32.36605835px;font-family:DejaVuSans;-inkscape-font-specification:DejaVuSans;writing-mode:lr-tb;fill:#000000;fill-opacity:1;fill-rule:nonzero;stroke:none"
         transform="matrix(1,0,0,-1,7.2,299)"><tspan
           id="tspan68"
           y="0"
           x="0 8.9977646 29.517847 47.31918 56.316944 76.869392 96.774521 117.2946 135.09593">incidence</tspan></text>
</g><g
       id="g70"><g
         clip-path="url(#clipPath74)"
         id="g72"><path
           id="path78"
           style="fill:none;stroke:#000000;stroke-width:1;stroke-linecap:butt;stroke-linejoin:round;stroke-miterlimit:10;stroke-dasharray:3.7, 1.6;stroke-dashoffset:0;stroke-opacity:1"
           d="m 261.13291,39.35625 0,543.6" /></g></g><g
       id="g80"><path
         id="path82"
         style="fill:none;stroke:#000000;stroke-width:0.80000001;stroke-linecap:square;stroke-linejoin:miter;stroke-miterlimit:10;stroke-dasharray:none;stroke-opacity:1"
         d="m 165.71562,39.35625 666.26866,0" /><path
         id="path84"
         style="fill:none;stroke:#000000;stroke-width:0.80000001;stroke-linecap:square;stroke-linejoin:miter;stroke-miterlimit:10;stroke-dasharray:none;stroke-opacity:1"
         d="m 165.71562,582.95625 666.26866,0" /></g><g
       id="g86"><g
         clip-path="url(#clipPath90)"
         id="g88"><path
           id="path94"
           style="fill:#5f9c6d;fill-opacity:1;fill-rule:nonzero;stroke:none"
           d="m 550.57992,271.07345 0,80.1656 1.87866,3.16842 1.87866,3.24549 1.87865,3.30268 1.87866,3.34002 1.87866,3.35901 1.87865,3.36263 1.87866,3.35524 1.87866,3.34228 1.87866,3.32988 1.87865,3.3243 1.87866,3.33146 1.87866,3.35631 1.87866,3.40234 1.87865,3.47122 1.87866,3.56252 1.87866,3.67373 1.87866,3.80043 1.87865,3.9368 1.87866,4.07615 1.87866,4.21173 1.87865,4.33749 1.87866,4.44878 1.87866,4.54286 1.87866,4.61915 1.87865,4.67922 1.87866,4.72632 1.87866,4.76476 1.87866,4.79899 1.87865,4.83267 1.87866,4.86773 1.87866,4.90359 1.87865,4.93686 1.87866,4.96113 1.87866,4.96738 1.87866,4.94463 1.87865,4.8809 1.87866,4.76442 1.87866,4.58473 1.87866,4.33389 1.87865,4.00734 1.87866,3.60462 1.87866,3.12964 1.87865,2.59065 1.87866,1.99979 1.87866,1.37238 1.87866,0.72589 1.87865,0.0788 1.87866,-0.55089 1.87866,-1.14643 1.87866,-1.69391 1.87865,-2.18282 1.87866,-2.60663 1.87866,-2.96296 1.87866,-3.25337 1.87865,-3.48276 1.87866,-3.65869 1.87866,-3.7903 1.87865,-3.88738 1.87866,-3.95949 1.87866,-4.01509 1.87866,-4.06107 1.87865,-4.10239 1.87866,-4.14196 1.87866,-4.18083 1.87866,-4.21833 1.87865,-4.25252 1.87866,-4.28055 1.87866,-4.29911 1.87865,-4.30477 1.87866,-4.29448 1.87866,-4.26572 1.87866,-4.21691 1.87865,-4.1474 1.87866,-4.05774 1.87866,-3.94951 1.87866,-3.82531 1.87865,-3.6886 1.87866,-3.5434 1.87866,-3.39412 1.87865,-3.24526 1.87866,-3.10115 1.87866,-2.96579 1.87866,-2.84263 1.87865,-2.73449 1.87866,-2.64343 1.87866,-2.57073 1.87866,-2.51685 1.87865,-2.48132 1.87866,-2.4629 1.87866,-2.45941 1.87865,-2.46798 1.87866,-2.48498 1.87866,-2.5064 1.87866,-2.5279 1.87865,-2.54521 1.87866,-2.55449 1.87866,-2.55251 1.87866,-2.5371 1.87865,-2.5073 0,-100.63346 0,0 -1.87865,-2.5073 -1.87866,-2.53711 -1.87866,-2.5525 -1.87866,-2.55449 -1.87865,-2.54521 -1.87866,-2.5279 -1.87866,-2.5064 -1.87866,-2.48498 -1.87865,-2.46798 -1.87866,-2.45941 -1.87866,-2.4629 -1.87865,-2.48132 -1.87866,-2.51685 -1.87866,-2.57073 -1.87866,-2.64343 -1.87865,-2.73449 -1.87866,-2.84263 -1.87866,-2.96579 -1.87866,-3.10115 -1.87865,-3.24526 -1.87866,-3.39412 -1.87866,-3.5434 -1.87865,-3.6886 -1.87866,-3.82531 -1.87866,-3.94951 -1.87866,-4.05774 -1.87865,-4.1474 -1.87866,-4.21691 -1.87866,-4.26572 -1.87866,-4.29448 -1.87865,-4.30478 -1.87866,-4.2991 -1.87866,-4.28055 -1.87865,-4.25252 -1.87866,-4.21833 -1.87866,-4.18083 -1.87866,-4.14196 -1.87865,-4.10239 -1.87866,-4.06107 -1.87866,-4.01509 -1.87866,-3.95949 -1.87865,-3.88738 -1.87866,-3.7903 -1.87866,-3.65869 -1.87865,-3.48276 -1.87866,-3.25337 -1.87866,-2.96296 -1.87866,-2.606626 -1.87865,-2.182821 -1.87866,-1.693914 -1.87866,-1.146433 -1.87866,-0.550886 -1.87865,0.07875 -1.87866,0.725886 -1.87866,1.372377 -1.87866,1.999789 -1.87865,2.590658 -1.87866,3.12964 -1.87866,3.60462 -1.87865,4.00734 -1.87866,4.33389 -1.87866,4.58473 -1.87866,4.76442 -1.87865,4.8809 -1.87866,4.94463 -1.87866,4.96737 -1.87866,4.96114 -1.87865,4.93686 -1.87866,4.90359 -1.87866,4.86773 -1.87865,4.83267 -1.87866,4.79899 -1.87866,4.76476 -1.87866,4.72632 -1.87865,4.67922 -1.87866,4.61915 -1.87866,4.54286 -1.87866,4.44878 -1.87865,4.33749 -1.87866,4.21173 -1.87866,4.07615 -1.87865,3.9368 -1.87866,3.80043 -1.87866,3.67373 -1.87866,3.56252 -1.87865,3.47122 -1.87866,3.40234 -1.87866,3.35631 -1.87866,3.33146 -1.87865,3.3243 -1.87866,3.32988 -1.87866,3.34228 -1.87866,3.35524 -1.87865,3.36263 -1.87866,3.35901 -1.87866,3.34002 -1.87865,3.30268 -1.87866,3.24548 -1.87866,3.16843 z" /></g></g><g
       id="g96"><g
         clip-path="url(#clipPath100)"
         id="g98"><path
           id="path104"
           style="fill:none;stroke:#000000;stroke-width:2;stroke-linecap:square;stroke-linejoin:round;stroke-miterlimit:10;stroke-dasharray:none;stroke-opacity:1"
           d="m 550.57992,351.23905 1.87866,3.16842 1.87866,3.24549 1.87865,3.30268 1.87866,3.34002 1.87866,3.35901 1.87865,3.36263 1.87866,3.35524 1.87866,3.34228 1.87866,3.32988 1.87865,3.3243 1.87866,3.33146 1.87866,3.35631 1.87866,3.40234 1.87865,3.47122 1.87866,3.56252 1.87866,3.67373 1.87866,3.80043 1.87865,3.9368 1.87866,4.07615 1.87866,4.21173 1.87865,4.33749 1.87866,4.44878 1.87866,4.54286 1.87866,4.61915 1.87865,4.67922 1.87866,4.72632 1.87866,4.76476 1.87866,4.79899 1.87865,4.83267 1.87866,4.86773 1.87866,4.90359 1.87865,4.93686 1.87866,4.96113 1.87866,4.96738 1.87866,4.94463 1.87865,4.8809 1.87866,4.76442 1.87866,4.58473 1.87866,4.33389 1.87865,4.00734 1.87866,3.60462 1.87866,3.12964 1.87865,2.59065 1.87866,1.99979 1.87866,1.37238 1.87866,0.72589 1.87865,0.0788 1.87866,-0.55089 1.87866,-1.14643 1.87866,-1.69391 1.87865,-2.18282 1.87866,-2.60663 1.87866,-2.96296 1.87866,-3.25337 1.87865,-3.48276 1.87866,-3.65869 1.87866,-3.7903 1.87865,-3.88738 1.87866,-3.95949 1.87866,-4.01509 1.87866,-4.06107 1.87865,-4.10239 1.87866,-4.14196 1.87866,-4.18083 1.87866,-4.21833 1.87865,-4.25252 1.87866,-4.28055 1.87866,-4.29911 1.87865,-4.30477 1.87866,-4.29448 1.87866,-4.26572 1.87866,-4.21691 1.87865,-4.1474 1.87866,-4.05774 1.87866,-3.94951 1.87866,-3.82531 1.87865,-3.6886 1.87866,-3.5434 1.87866,-3.39412 1.87865,-3.24526 1.87866,-3.10115 1.87866,-2.96579 1.87866,-2.84263 1.87865,-2.73449 1.87866,-2.64343 1.87866,-2.57073 1.87866,-2.51685 1.87865,-2.48132 1.87866,-2.4629 1.87866,-2.45941 1.87865,-2.46798 1.87866,-2.48498 1.87866,-2.5064 1.87866,-2.5279 1.87865,-2.54521 1.87866,-2.55449 1.87866,-2.55251 1.87866,-2.5371 1.87865,-2.5073" /></g></g><g
       id="g106"><g
         clip-path="url(#clipPath110)"
         id="g108"><path
           id="path114"
           style="fill:none;stroke:#000000;stroke-width:2;stroke-linecap:square;stroke-linejoin:round;stroke-miterlimit:10;stroke-dasharray:none;stroke-opacity:1"
           d="m 550.57992,271.07345 1.87866,-3.16843 1.87866,-3.24548 1.87865,-3.30268 1.87866,-3.34002 1.87866,-3.35901 1.87865,-3.36263 1.87866,-3.35524 1.87866,-3.34228 1.87866,-3.32988 1.87865,-3.3243 1.87866,-3.33146 1.87866,-3.35631 1.87866,-3.40234 1.87865,-3.47122 1.87866,-3.56252 1.87866,-3.67373 1.87866,-3.80043 1.87865,-3.9368 1.87866,-4.07615 1.87866,-4.21173 1.87865,-4.33749 1.87866,-4.44878 1.87866,-4.54286 1.87866,-4.61915 1.87865,-4.67922 1.87866,-4.72632 1.87866,-4.76476 1.87866,-4.79899 1.87865,-4.83267 1.87866,-4.86773 1.87866,-4.90359 1.87865,-4.93686 1.87866,-4.96114 1.87866,-4.96737 1.87866,-4.94463 1.87865,-4.8809 1.87866,-4.76442 1.87866,-4.58473 1.87866,-4.33389 1.87865,-4.00734 1.87866,-3.60462 1.87866,-3.12964 1.87865,-2.590654 1.87866,-1.999789 1.87866,-1.372377 1.87866,-0.725886 1.87865,-0.07875 1.87866,0.550886 1.87866,1.146433 1.87866,1.693914 1.87865,2.182821 1.87866,2.606622 1.87866,2.96296 1.87866,3.25337 1.87865,3.48276 1.87866,3.65869 1.87866,3.7903 1.87865,3.88738 1.87866,3.95949 1.87866,4.01509 1.87866,4.06107 1.87865,4.10239 1.87866,4.14196 1.87866,4.18083 1.87866,4.21833 1.87865,4.25252 1.87866,4.28055 1.87866,4.2991 1.87865,4.30478 1.87866,4.29448 1.87866,4.26572 1.87866,4.21691 1.87865,4.1474 1.87866,4.05774 1.87866,3.94951 1.87866,3.82531 1.87865,3.6886 1.87866,3.5434 1.87866,3.39412 1.87865,3.24526 1.87866,3.10115 1.87866,2.96579 1.87866,2.84263 1.87865,2.73449 1.87866,2.64343 1.87866,2.57073 1.87866,2.51685 1.87865,2.48132 1.87866,2.4629 1.87866,2.45941 1.87865,2.46798 1.87866,2.48498 1.87866,2.5064 1.87866,2.5279 1.87865,2.54521 1.87866,2.55449 1.87866,2.5525 1.87866,2.53711 1.87865,2.5073" /></g></g><g
       id="g116"><path
         id="path118"
         style="fill:#ffffff;fill-opacity:1;fill-rule:nonzero;stroke:none"
         d="m 836.14846,39.35625 166.56714,0 0,543.6 -166.56714,0 0,-543.6 z" /></g><g
       id="g120"><g
         clip-path="url(#clipPath124)"
         id="g122"><path
           id="path128"
           style="fill:#4682b4;fill-opacity:1;fill-rule:nonzero;stroke:none"
           d="m 836.14846,58.38225 166.56714,0 0,505.548 -166.56714,0 0,-505.548 z" /></g></g><g
       id="g130"><path
         id="path132"
         style="fill:#000000;fill-opacity:1;fill-rule:nonzero;stroke:#000000;stroke-width:0.80000001;stroke-linecap:butt;stroke-linejoin:round;stroke-miterlimit:10;stroke-dasharray:none;stroke-opacity:1"
         d="m 836.14846,582.95625 0,5" /><text
         id="text134"
         style="font-variant:normal;font-weight:normal;font-size:22px;font-family:DejaVuSans;-inkscape-font-specification:DejaVuSans;writing-mode:lr-tb;fill:#000000;fill-opacity:1;fill-rule:nonzero;stroke:none"
         transform="matrix(0,1,1,0,842.21877,597.95625)"><tspan
           id="tspan136"
           y="0"
           x="0 13.992 20.988001">0.0</tspan></text>
<path
         id="path138"
         style="fill:#000000;fill-opacity:1;fill-rule:nonzero;stroke:#000000;stroke-width:0.80000001;stroke-linecap:butt;stroke-linejoin:round;stroke-miterlimit:10;stroke-dasharray:none;stroke-opacity:1"
         d="m 919.43204,582.95625 0,5" /><text
         id="text140"
         style="font-variant:normal;font-weight:normal;font-size:22px;font-family:DejaVuSans;-inkscape-font-specification:DejaVuSans;writing-mode:lr-tb;fill:#000000;fill-opacity:1;fill-rule:nonzero;stroke:none"
         transform="matrix(0,1,1,0,925.50236,597.95625)"><tspan
           id="tspan142"
           y="0"
           x="0 13.992 20.988001">0.5</tspan></text>
<path
         id="path144"
         style="fill:#000000;fill-opacity:1;fill-rule:nonzero;stroke:#000000;stroke-width:0.80000001;stroke-linecap:butt;stroke-linejoin:round;stroke-miterlimit:10;stroke-dasharray:none;stroke-opacity:1"
         d="m 1002.7156,582.95625 0,5" /><text
         id="text146"
         style="font-variant:normal;font-weight:normal;font-size:22px;font-family:DejaVuSans;-inkscape-font-specification:DejaVuSans;writing-mode:lr-tb;fill:#000000;fill-opacity:1;fill-rule:nonzero;stroke:none"
         transform="matrix(0,1,1,0,1008.7859,597.95625)"><tspan
           id="tspan148"
           y="0"
           x="0 13.992 20.988001">1.0</tspan></text>
<text
         id="text150"
         style="font-variant:normal;font-weight:normal;font-size:24px;font-family:DejaVuSans;-inkscape-font-specification:DejaVuSans;writing-mode:lr-tb;fill:#000000;fill-opacity:1;fill-rule:nonzero;stroke:none"
         transform="matrix(1,0,0,-1,798.29142,636.95625)"><tspan
           id="tspan152"
           y="0"
           x="0 6.6719999 21.888 35.088001 41.759998 56.976002 69.480003 76.152 90.839996 106.056 113.688 128.92799 138.79201 153.48 168.72 183.43201 198.672 205.34399 212.01601 218.688 228.09599">inclusion probability</tspan></text>
<path
         id="path154"
         style="fill:none;stroke:#000000;stroke-width:0.80000001;stroke-linecap:square;stroke-linejoin:miter;stroke-miterlimit:10;stroke-dasharray:none;stroke-opacity:1"
         d="m 836.14846,39.35625 0,543.6" /><path
         id="path156"
         style="fill:none;stroke:#000000;stroke-width:0.80000001;stroke-linecap:square;stroke-linejoin:miter;stroke-miterlimit:10;stroke-dasharray:none;stroke-opacity:1"
         d="m 1002.7156,39.35625 0,543.6" /></g></g></svg>