<?xml version="1.0" encoding="UTF-8" standalone="no"?>
<svg
   xmlns:dc="http://purl.org/dc/elements/1.1/"
   xmlns:cc="http://creativecommons.org/ns#"
   xmlns:rdf="http://www.w3.org/1999/02/22-rdf-syntax-ns#"
   xmlns:svg="http://www.w3.org/2000/svg"
   xmlns="http://www.w3.org/2000/svg"
   viewBox="0 0 1500.751 827.98828"
   height="827.98828"
   width="1500.751"
   xml:space="preserve"
   version="1.1"
   id="svg2"><metadata
     id="metadata8"><rdf:RDF><cc:Work
         rdf:about=""><dc:format>image/svg+xml</dc:format><dc:type
           rdf:resource="http://purl.org/dc/dcmitype/StillImage" /><dc:title></dc:title></cc:Work></rdf:RDF></metadata><defs
     id="defs6"><clipPath
       id="clipPath20"
       clipPathUnits="userSpaceOnUse"><path
         id="path22"
         d="m 318.54375,39.35625 666.26866,0 0,543.6 -666.26866,0 0,-543.6 z" /></clipPath><clipPath
       id="clipPath30"
       clipPathUnits="userSpaceOnUse"><path
         id="path32"
         d="m 318.54375,39.35625 666.26866,0 0,543.6 -666.26866,0 0,-543.6 z" /></clipPath><clipPath
       id="clipPath40"
       clipPathUnits="userSpaceOnUse"><path
         id="path42"
         d="m 318.54375,39.35625 666.26866,0 0,543.6 -666.26866,0 0,-543.6 z" /></clipPath><clipPath
       id="clipPath58"
       clipPathUnits="userSpaceOnUse"><path
         id="path60"
         d="m 318.54375,39.35625 666.26866,0 0,543.6 -666.26866,0 0,-543.6 z" /></clipPath><clipPath
       id="clipPath76"
       clipPathUnits="userSpaceOnUse"><path
         id="path78"
         d="m 318.54375,39.35625 666.26866,0 0,543.6 -666.26866,0 0,-543.6 z" /></clipPath><clipPath
       id="clipPath110"
       clipPathUnits="userSpaceOnUse"><path
         id="path112"
         d="m 318.54375,39.35625 666.26866,0 0,543.6 -666.26866,0 0,-543.6 z" /></clipPath><clipPath
       id="clipPath126"
       clipPathUnits="userSpaceOnUse"><path
         id="path128"
         d="m 318.54375,39.35625 666.26866,0 0,543.6 -666.26866,0 0,-543.6 z" /></clipPath><clipPath
       id="clipPath136"
       clipPathUnits="userSpaceOnUse"><path
         id="path138"
         d="m 318.54375,39.35625 666.26866,0 0,543.6 -666.26866,0 0,-543.6 z" /></clipPath><clipPath
       id="clipPath146"
       clipPathUnits="userSpaceOnUse"><path
         id="path148"
         d="m 318.54375,39.35625 666.26866,0 0,543.6 -666.26866,0 0,-543.6 z" /></clipPath><clipPath
       id="clipPath156"
       clipPathUnits="userSpaceOnUse"><path
         id="path158"
         d="m 318.54375,39.35625 666.26866,0 0,543.6 -666.26866,0 0,-543.6 z" /></clipPath><clipPath
       id="clipPath166"
       clipPathUnits="userSpaceOnUse"><path
         id="path168"
         d="m 318.54375,39.35625 666.26866,0 0,543.6 -666.26866,0 0,-543.6 z" /></clipPath><clipPath
       id="clipPath176"
       clipPathUnits="userSpaceOnUse"><path
         id="path178"
         d="m 318.54375,39.35625 666.26866,0 0,543.6 -666.26866,0 0,-543.6 z" /></clipPath><clipPath
       id="clipPath186"
       clipPathUnits="userSpaceOnUse"><path
         id="path188"
         d="m 318.54375,39.35625 666.26866,0 0,543.6 -666.26866,0 0,-543.6 z" /></clipPath><clipPath
       id="clipPath196"
       clipPathUnits="userSpaceOnUse"><path
         id="path198"
         d="m 318.54375,39.35625 666.26866,0 0,543.6 -666.26866,0 0,-543.6 z" /></clipPath><clipPath
       id="clipPath206"
       clipPathUnits="userSpaceOnUse"><path
         id="path208"
         d="m 318.54375,39.35625 666.26866,0 0,543.6 -666.26866,0 0,-543.6 z" /></clipPath><clipPath
       id="clipPath220"
       clipPathUnits="userSpaceOnUse"><path
         id="path222"
         d="m 988.97659,39.35625 166.56711,0 0,543.6 -166.56711,0 0,-543.6 z" /></clipPath><clipPath
       id="clipPath230"
       clipPathUnits="userSpaceOnUse"><path
         id="path232"
         d="m 988.97659,39.35625 166.56711,0 0,543.6 -166.56711,0 0,-543.6 z" /></clipPath><clipPath
       id="clipPath240"
       clipPathUnits="userSpaceOnUse"><path
         id="path242"
         d="m 988.97659,39.35625 166.56711,0 0,543.6 -166.56711,0 0,-543.6 z" /></clipPath></defs><g
     transform="matrix(1.25,0,0,-1.25,0,827.98828)"
     id="g10"><path
       id="path12"
       style="fill:#ffffff;fill-opacity:1;fill-rule:nonzero;stroke:none"
       d="m 0,0 1200.6008,0 0,662.39062 L 0,662.39062 0,0 Z" /><path
       id="path14"
       style="fill:#ffffff;fill-opacity:1;fill-rule:nonzero;stroke:none"
       d="m 318.54375,39.35625 666.26866,0 0,543.6 -666.26866,0 0,-543.6 z" /><g
       id="g16"><g
         clip-path="url(#clipPath20)"
         id="g18"><path
           id="path24"
           style="fill:#000000;fill-opacity:0.05;fill-rule:nonzero;stroke:none"
           d="m 318.54375,39.35625 0,181.2 666.26866,0 0,-181.2 -666.26866,0 z" /></g></g><g
       id="g26"><g
         clip-path="url(#clipPath30)"
         id="g28"><path
           id="path34"
           style="fill:#000000;fill-opacity:0.05;fill-rule:nonzero;stroke:none"
           d="m 318.54375,401.75625 0,181.2 666.26866,0 0,-181.2 -666.26866,0 z" /></g></g><g
       id="g36"><g
         clip-path="url(#clipPath40)"
         id="g38"><path
           id="path44"
           style="fill:none;stroke:#b0b0b0;stroke-width:0.80000001;stroke-linecap:butt;stroke-linejoin:round;stroke-miterlimit:10;stroke-dasharray:0.8, 1.32;stroke-dashoffset:0;stroke-opacity:1"
           d="m 478.01407,39.35625 0,543.6" /></g></g><g
       id="g46"><path
         id="path48"
         style="fill:#000000;fill-opacity:1;fill-rule:nonzero;stroke:#000000;stroke-width:0.80000001;stroke-linecap:butt;stroke-linejoin:round;stroke-miterlimit:10;stroke-dasharray:none;stroke-opacity:1"
         d="m 478.01407,39.35625 0,-3.5" /><text
         id="text50"
         style="font-variant:normal;font-weight:normal;font-size:26px;font-family:DejaVuSans;-inkscape-font-specification:DejaVuSans;writing-mode:lr-tb;fill:#000000;fill-opacity:1;fill-rule:nonzero;stroke:none"
         transform="matrix(1,0,0,-1,457.33438,12.60625)"><tspan
           id="tspan52"
           y="0"
           x="0 16.535999 24.804001">0.0</tspan></text>
</g><g
       id="g54"><g
         clip-path="url(#clipPath58)"
         id="g56"><path
           id="path62"
           style="fill:none;stroke:#b0b0b0;stroke-width:0.80000001;stroke-linecap:butt;stroke-linejoin:round;stroke-miterlimit:10;stroke-dasharray:0.8, 1.32;stroke-dashoffset:0;stroke-opacity:1"
           d="m 659.17486,39.35625 0,543.6" /></g></g><g
       id="g64"><path
         id="path66"
         style="fill:#000000;fill-opacity:1;fill-rule:nonzero;stroke:#000000;stroke-width:0.80000001;stroke-linecap:butt;stroke-linejoin:round;stroke-miterlimit:10;stroke-dasharray:none;stroke-opacity:1"
         d="m 659.17486,39.35625 0,-3.5" /><text
         id="text68"
         style="font-variant:normal;font-weight:normal;font-size:26px;font-family:DejaVuSans;-inkscape-font-specification:DejaVuSans;writing-mode:lr-tb;fill:#000000;fill-opacity:1;fill-rule:nonzero;stroke:none"
         transform="matrix(1,0,0,-1,638.49517,12.60625)"><tspan
           id="tspan70"
           y="0"
           x="0 16.535999 24.804001">1.0</tspan></text>
</g><g
       id="g72"><g
         clip-path="url(#clipPath76)"
         id="g74"><path
           id="path80"
           style="fill:none;stroke:#b0b0b0;stroke-width:0.80000001;stroke-linecap:butt;stroke-linejoin:round;stroke-miterlimit:10;stroke-dasharray:0.8, 1.32;stroke-dashoffset:0;stroke-opacity:1"
           d="m 840.33565,39.35625 0,543.6" /></g></g><g
       id="g82"><path
         id="path84"
         style="fill:#000000;fill-opacity:1;fill-rule:nonzero;stroke:#000000;stroke-width:0.80000001;stroke-linecap:butt;stroke-linejoin:round;stroke-miterlimit:10;stroke-dasharray:none;stroke-opacity:1"
         d="m 840.33565,39.35625 0,-3.5" /><text
         id="text86"
         style="font-variant:normal;font-weight:normal;font-size:26px;font-family:DejaVuSans;-inkscape-font-specification:DejaVuSans;writing-mode:lr-tb;fill:#000000;fill-opacity:1;fill-rule:nonzero;stroke:none"
         transform="matrix(1,0,0,-1,819.65597,12.60625)"><tspan
           id="tspan88"
           y="0"
           x="0 16.535999 24.804001">2.0</tspan></text>
<text
         id="text90"
         style="font-variant:normal;font-weight:normal;font-size:34px;font-family:DejaVuSans;-inkscape-font-specification:DejaVuSans;writing-mode:lr-tb;fill:#000000;fill-opacity:1;fill-rule:nonzero;stroke:none"
         transform="matrix(1,0,0,-1,562.81089,592.95625)"><tspan
           id="tspan92"
           y="0"
           x="0 18.700001 39.507999 60.417999 72.386002 84.353996 93.806 112.506 121.958 142.868 164.424">coefficient</tspan></text>
<text
         id="text94"
         style="font-variant:normal;font-weight:normal;font-size:30.59127045px;font-family:DejaVuSans;-inkscape-font-specification:DejaVuSans;writing-mode:lr-tb;fill:#000000;fill-opacity:1;fill-rule:nonzero;stroke:none"
         transform="matrix(1,0,0,-1,60.5125,118.18281)"><tspan
           id="tspan96"
           y="0"
           x="0 30.254766 49.068398 65.006447 76.99823 95.811859 108.38487 127.77973 149.04066 168.43553 181.00854 199.76099 208.26537 223.561 235.55278">WesternRural_to</tspan></text>
<text
         id="text98"
         style="font-variant:normal;font-weight:normal;font-size:31.36655045px;font-family:DejaVuSans;-inkscape-font-specification:DejaVuSans;writing-mode:lr-tb;fill:#000000;fill-opacity:1;fill-rule:nonzero;stroke:none"
         transform="matrix(1,0,0,-1,100.62187,299.38281)"><tspan
           id="tspan100"
           y="0"
           x="0 20.576456 39.772785 48.492687 68.379082 87.606773 107.52454 127.41093 147.32869 167.21507 182.89835 195.19405">Koinadugu_to</tspan></text>
<text
         id="text102"
         style="font-variant:normal;font-weight:normal;font-size:29.59176064px;font-family:DejaVuSans;-inkscape-font-specification:DejaVuSans;writing-mode:lr-tb;fill:#000000;fill-opacity:1;fill-rule:nonzero;stroke:none"
         transform="matrix(1,0,0,-1,7.2,480.95781)"><tspan
           id="tspan104"
           y="0"
           x="0 18.790768 30.952982 49.151913 67.291664 78.891632 99.546684 107.77319 119.9354 136.21088 144.43738 162.63631 185.42197 193.64848 209.06578 220.66576 238.8055 257.56668 273.84213 292.04108">greatCircleDistances</tspan></text>
</g><g
       id="g106"><g
         clip-path="url(#clipPath110)"
         id="g108"><path
           id="path114"
           style="fill:none;stroke:#000000;stroke-width:1;stroke-linecap:butt;stroke-linejoin:round;stroke-miterlimit:10;stroke-dasharray:3.7, 1.6;stroke-dashoffset:0;stroke-opacity:1"
           d="m 478.01407,39.35625 0,543.6" /></g></g><g
       id="g116"><path
         id="path118"
         style="fill:none;stroke:#000000;stroke-width:0.80000001;stroke-linecap:square;stroke-linejoin:miter;stroke-miterlimit:10;stroke-dasharray:none;stroke-opacity:1"
         d="m 318.54375,39.35625 666.26866,0" /><path
         id="path120"
         style="fill:none;stroke:#000000;stroke-width:0.80000001;stroke-linecap:square;stroke-linejoin:miter;stroke-miterlimit:10;stroke-dasharray:none;stroke-opacity:1"
         d="m 318.54375,582.95625 666.26866,0" /></g><g
       id="g122"><g
         clip-path="url(#clipPath126)"
         id="g124"><path
           id="path130"
           style="fill:#808080;fill-opacity:1;fill-rule:nonzero;stroke:none"
           d="m 521.47453,116.5247 0,26.8631 3.77507,0.76324 3.77506,0.7838 3.77507,0.80513 3.77507,0.82829 3.77506,0.85435 3.77507,0.88434 3.77506,0.91922 3.77507,0.9597 3.77506,1.00625 3.77507,1.05903 3.77506,1.11788 3.77507,1.18229 3.77507,1.25141 3.77506,1.32415 3.77507,1.3991 3.77506,1.47478 3.77507,1.54949 3.77506,1.62158 3.77507,1.68938 3.77507,1.7513 3.77506,1.80592 3.77507,1.85198 3.77506,1.88843 3.77507,1.91444 3.77506,1.92947 3.77507,1.93313 3.77507,1.92536 3.77506,1.90621 3.77507,1.87599 3.77506,1.83512 3.77507,1.78413 3.77507,1.72361 3.77506,1.65417 3.77507,1.57637 3.77506,1.49074 3.77507,1.39763 3.77506,1.29736 3.77507,1.19007 3.77506,1.07582 3.77507,0.95464 3.77507,0.82654 3.77506,0.69159 3.77507,0.55009 3.77506,0.40251 3.77507,0.24967 3.77506,0.0927 3.77507,-0.0667 3.77507,-0.2267 3.77506,-0.38497 3.77507,-0.53896 3.77506,-0.68592 3.77507,-0.82315 3.77506,-0.94801 3.77507,-1.05812 3.77507,-1.15159 3.77506,-1.22696 3.77507,-1.28344 3.77506,-1.32088 3.77507,-1.33981 3.77507,-1.3414 3.77506,-1.3274 3.77507,-1.30001 3.77506,-1.26183 3.77507,-1.21562 3.77506,-1.1643 3.77507,-1.11066 3.77507,-1.0574 3.77506,-1.00693 3.77507,-0.96133 3.77506,-0.92233 3.77507,-0.89128 3.77506,-0.86911 3.77507,-0.8564 3.77506,-0.85338 3.77507,-0.85995 3.77507,-0.87577 3.77506,-0.90021 3.77507,-0.9324 3.77506,-0.97134 3.77507,-1.01578 3.77506,-1.06432 3.77507,-1.11549 3.77507,-1.16762 3.77506,-1.21904 3.77507,-1.26806 3.77506,-1.31296 3.77507,-1.35219 3.77506,-1.38427 3.77507,-1.40796 3.77507,-1.42224 3.77506,-1.42638 3.77507,-1.41999 3.77506,-1.40294 3.77507,-1.37547 3.77506,-1.3381 3.77507,-1.29165 3.77507,-1.23713 3.77506,-1.17581 3.77507,-1.10905 0,-30.47858 0,0 -3.77507,-1.10905 -3.77506,-1.17581 -3.77507,-1.23713 -3.77507,-1.29165 -3.77506,-1.3381 -3.77507,-1.37547 -3.77506,-1.40294 -3.77507,-1.41999 -3.77506,-1.42638 -3.77507,-1.42224 -3.77507,-1.40796 -3.77506,-1.384269 -3.77507,-1.352189 -3.77506,-1.312967 -3.77507,-1.268055 -3.77506,-1.219045 -3.77507,-1.167618 -3.77507,-1.115483 -3.77506,-1.064329 -3.77507,-1.015774 -3.77506,-0.971339 -3.77507,-0.932407 -3.77506,-0.900203 -3.77507,-0.875771 -3.77507,-0.859956 -3.77506,-0.853376 -3.77507,-0.856398 -3.77506,-0.86911 -3.77507,-0.89128 -3.77506,-0.922335 -3.77507,-0.961329 -3.77506,-1.006926 -3.77507,-1.057401 -3.77507,-1.110664 -3.77506,-1.164295 -3.77507,-1.215626 -3.77506,-1.261825 -3.77507,-1.300011 -3.77506,-1.327395 -3.77507,-1.341401 -3.77507,-1.339811 -3.77506,-1.32088 -3.77507,-1.28344 -3.77506,-1.226961 -3.77507,-1.151588 -3.77507,-1.058128 -3.77506,-0.948001 -3.77507,-0.82315 -3.77506,-0.685928 -3.77507,-0.538955 -3.77506,-0.384974 -3.77507,-0.226701 -3.77507,-0.0667 -3.77506,0.09275 -3.77507,0.249671 -3.77506,0.402511 -3.77507,0.55009 -3.77506,0.691597 -3.77507,0.826532 -3.77507,0.95464 -3.77506,1.075823 -3.77507,1.190067 -3.77506,1.297359 -3.77507,1.397635 -3.77506,1.490735 -3.77507,1.576378 -3.77506,1.65417 -3.77507,1.723611 -3.77507,1.78413 -3.77506,1.83512 -3.77507,1.87599 -3.77506,1.90621 -3.77507,1.925351 -3.77507,1.933136 -3.77506,1.929464 -3.77507,1.914448 -3.77506,1.888427 -3.77507,1.85198 -3.77506,1.805921 -3.77507,1.751301 -3.77507,1.689376 -3.77506,1.621581 -3.77507,1.549494 -3.77506,1.474776 -3.77507,1.3991 -3.77506,1.32415 -3.77507,1.25141 -3.77507,1.18229 -3.77506,1.11788 -3.77507,1.05903 -3.77506,1.00625 -3.77507,0.9597 -3.77506,0.91922 -3.77507,0.88434 -3.77506,0.85435 -3.77507,0.82829 -3.77507,0.80513 -3.77506,0.7838 -3.77507,0.76324 z" /></g></g><g
       id="g132"><g
         clip-path="url(#clipPath136)"
         id="g134"><path
           id="path140"
           style="fill:#808080;fill-opacity:1;fill-rule:nonzero;stroke:none"
           d="m 527.73689,301.30993 0,19.69264 4.25094,0.26586 4.25095,0.23226 4.25094,0.20561 4.25094,0.18813 4.25094,0.18167 4.25095,0.18768 4.25094,0.20721 4.25094,0.24083 4.25095,0.28876 4.25094,0.35088 4.25094,0.42673 4.25094,0.51566 4.25095,0.61675 4.25094,0.72885 4.25094,0.85054 4.25095,0.98008 4.25094,1.11536 4.25094,1.25385 4.25095,1.39258 4.25094,1.52819 4.25094,1.65697 4.25095,1.77503 4.25094,1.87836 4.25094,1.96321 4.25094,2.02611 4.25095,2.06432 4.25094,2.07582 4.25094,2.05971 4.25095,2.01618 4.25094,1.94666 4.25094,1.85378 4.25095,1.74133 4.25094,1.61403 4.25094,1.4774 4.25095,1.3374 4.25094,1.20015 4.25094,1.0716 4.25094,0.95714 4.25095,0.86135 4.25094,0.78768 4.25094,0.7383 4.25095,0.71392 4.25094,0.71383 4.25094,0.73585 4.25094,0.77662 4.25095,0.83171 4.25094,0.8959 4.25094,0.96361 4.25095,1.02905 4.25094,1.08666 4.25094,1.13129 4.25095,1.15846 4.25094,1.16448 4.25094,1.14654 4.25095,1.10273 4.25094,1.03209 4.25094,0.93448 4.25094,0.81061 4.25095,0.66196 4.25094,0.49077 4.25094,0.29997 4.25095,0.0931 4.25094,-0.12555 4.25094,-0.35143 4.25094,-0.57953 4.25095,-0.80469 4.25094,-1.0219 4.25094,-1.22646 4.25095,-1.41434 4.25094,-1.58231 4.25094,-1.72821 4.25095,-1.85095 4.25094,-1.9506 4.25094,-2.0282 4.25095,-2.08561 4.25094,-2.12524 4.25094,-2.14975 4.25094,-2.16175 4.25095,-2.16356 4.25094,-2.157 4.25094,-2.14327 4.25095,-2.12297 4.25094,-2.0961 4.25094,-2.06232 4.25095,-2.02099 4.25094,-1.97153 4.25094,-1.91356 4.25095,-1.84704 4.25094,-1.77247 4.25094,-1.69087 4.25094,-1.6038 4.25095,-1.51321 4.25094,-1.42139 4.25094,-1.33069 4.25095,-1.24339 4.25094,-1.16146 4.25094,-1.08648 4.25094,-1.01939 4.25095,-0.96059 0,-27.9828 0,0 -4.25095,-0.96059 -4.25094,-1.01939 -4.25094,-1.08648 -4.25094,-1.16146 -4.25095,-1.24339 -4.25094,-1.33069 -4.25094,-1.42139 -4.25095,-1.51322 -4.25094,-1.60379 -4.25094,-1.69088 -4.25094,-1.77247 -4.25095,-1.84703 -4.25094,-1.91356 -4.25094,-1.97153 -4.25095,-2.02099 -4.25094,-2.06232 -4.25094,-2.09611 -4.25095,-2.12296 -4.25094,-2.14328 -4.25094,-2.15699 -4.25095,-2.16356 -4.25094,-2.16175 -4.25094,-2.14975 -4.25094,-2.12524 -4.25095,-2.08561 -4.25094,-2.0282 -4.25094,-1.9506 -4.25095,-1.85096 -4.25094,-1.7282 -4.25094,-1.58231 -4.25095,-1.41434 -4.25094,-1.22646 -4.25094,-1.0219 -4.25095,-0.80469 -4.25094,-0.57953 -4.25094,-0.35143 -4.25094,-0.12555 -4.25095,0.0931 -4.25094,0.29997 -4.25094,0.49077 -4.25095,0.66196 -4.25094,0.81061 -4.25094,0.93448 -4.25094,1.03209 -4.25095,1.10273 -4.25094,1.14654 -4.25094,1.16448 -4.25095,1.15846 -4.25094,1.13129 -4.25094,1.08666 -4.25095,1.02905 -4.25094,0.96361 -4.25094,0.8959 -4.25095,0.83171 -4.25094,0.77662 -4.25094,0.73585 -4.25094,0.71383 -4.25095,0.71392 -4.25094,0.7383 -4.25094,0.78768 -4.25095,0.86135 -4.25094,0.95714 -4.25094,1.0716 -4.25094,1.20015 -4.25095,1.3374 -4.25094,1.4774 -4.25094,1.61403 -4.25095,1.74133 -4.25094,1.85378 -4.25094,1.94666 -4.25095,2.01618 -4.25094,2.05971 -4.25094,2.07582 -4.25095,2.06431 -4.25094,2.02612 -4.25094,1.96321 -4.25094,1.87836 -4.25095,1.77503 -4.25094,1.65697 -4.25094,1.52819 -4.25095,1.39258 -4.25094,1.25385 -4.25094,1.11536 -4.25095,0.98008 -4.25094,0.85054 -4.25094,0.72885 -4.25095,0.61675 -4.25094,0.51566 -4.25094,0.42673 -4.25094,0.35088 -4.25095,0.28876 -4.25094,0.24083 -4.25094,0.2072 -4.25095,0.18769 -4.25094,0.18167 -4.25094,0.18813 -4.25094,0.20561 -4.25095,0.23226 -4.25094,0.26586 z" /></g></g><g
       id="g142"><g
         clip-path="url(#clipPath146)"
         id="g144"><path
           id="path150"
           style="fill:#808080;fill-opacity:1;fill-rule:nonzero;stroke:none"
           d="m 354.77591,484.09102 0,16.53045 0.87335,0.32042 0.87335,0.29644 0.87336,0.27731 0.87335,0.26448 0.87335,0.25903 0.87335,0.26173 0.87335,0.27298 0.87336,0.29289 0.87335,0.32135 0.87335,0.35807 0.87335,0.40263 0.87336,0.45456 0.87335,0.5133 0.87335,0.57826 0.87335,0.64883 0.87336,0.72429 0.87335,0.80389 0.87335,0.8868 0.87335,0.97207 0.87335,1.05874 0.87336,1.14578 0.87335,1.23214 0.87335,1.31686 0.87335,1.399 0.87336,1.47775 0.87335,1.55246 0.87335,1.62256 0.87335,1.68762 0.87336,1.74731 0.87335,1.80126 0.87335,1.84909 0.87335,1.89023 0.87336,1.92403 0.87335,1.94951 0.87335,1.96562 0.87335,1.97107 0.87335,1.96462 0.87336,1.94509 0.87335,1.91163 0.87335,1.86382 0.87335,1.80186 0.87336,1.7266 0.87335,1.63969 0.87335,1.54341 0.87335,1.44064 0.87336,1.33454 0.87335,1.22839 0.87335,1.1253 0.87335,1.02783 0.87335,0.93788 0.87336,0.8565 0.87335,0.78374 0.87335,0.71879 0.87335,0.66003 0.87336,0.6053 0.87335,0.55208 0.87335,0.49781 0.87335,0.44013 0.87336,0.37708 0.87335,0.30721 0.87335,0.22964 0.87335,0.14408 0.87336,0.0507 0.87335,-0.0499 0.87335,-0.15689 0.87335,-0.26926 0.87335,-0.38585 0.87336,-0.50538 0.87335,-0.62643 0.87335,-0.74749 0.87335,-0.86684 0.87336,-0.98266 0.87335,-1.09308 0.87335,-1.19633 0.87335,-1.29087 0.87336,-1.37563 0.87335,-1.45015 0.87335,-1.51472 0.87335,-1.57038 0.87336,-1.61893 0.87335,-1.66262 0.87335,-1.70398 0.87335,-1.74546 0.87335,-1.78902 0.87336,-1.83593 0.87335,-1.88639 0.87335,-1.93956 0.87335,-1.99348 0.87336,-2.04529 0.87335,-2.09145 0.87335,-2.12818 0.87335,-2.15174 0.87336,-2.15894 0.87335,-2.14736 0.87335,-2.11563 0.87335,-2.06357 0.87335,-1.99216 0.87336,-1.90347 0.87335,-1.80046 0,-39.24908 0,0 -0.87335,-1.80046 -0.87336,-1.90347 -0.87335,-1.99216 -0.87335,-2.06357 -0.87335,-2.11563 -0.87335,-2.14736 -0.87336,-2.15894 -0.87335,-2.15175 -0.87335,-2.12817 -0.87335,-2.09145 -0.87336,-2.04529 -0.87335,-1.99348 -0.87335,-1.93956 -0.87335,-1.88639 -0.87336,-1.83593 -0.87335,-1.78902 -0.87335,-1.74546 -0.87335,-1.70398 -0.87335,-1.66262 -0.87336,-1.61893 -0.87335,-1.57038 -0.87335,-1.51472 -0.87335,-1.45015 -0.87336,-1.37563 -0.87335,-1.29087 -0.87335,-1.19633 -0.87335,-1.09308 -0.87336,-0.98266 -0.87335,-0.86684 -0.87335,-0.74749 -0.87335,-0.62643 -0.87336,-0.50538 -0.87335,-0.38585 -0.87335,-0.26926 -0.87335,-0.15689 -0.87335,-0.0499 -0.87336,0.0507 -0.87335,0.14409 -0.87335,0.22964 -0.87335,0.30721 -0.87336,0.37708 -0.87335,0.44013 -0.87335,0.49781 -0.87335,0.55208 -0.87336,0.60529 -0.87335,0.66004 -0.87335,0.71879 -0.87335,0.78374 -0.87336,0.8565 -0.87335,0.93788 -0.87335,1.02783 -0.87335,1.1253 -0.87335,1.22839 -0.87336,1.33454 -0.87335,1.44064 -0.87335,1.54341 -0.87335,1.63969 -0.87336,1.7266 -0.87335,1.80186 -0.87335,1.86382 -0.87335,1.91163 -0.87336,1.94509 -0.87335,1.96462 -0.87335,1.97107 -0.87335,1.96562 -0.87335,1.94951 -0.87336,1.92402 -0.87335,1.89024 -0.87335,1.84908 -0.87335,1.80127 -0.87336,1.74731 -0.87335,1.68762 -0.87335,1.62256 -0.87335,1.55245 -0.87336,1.47776 -0.87335,1.399 -0.87335,1.31686 -0.87335,1.23214 -0.87336,1.14577 -0.87335,1.05874 -0.87335,0.97208 -0.87335,0.8868 -0.87335,0.80389 -0.87336,0.72429 -0.87335,0.64883 -0.87335,0.57826 -0.87335,0.5133 -0.87336,0.45456 -0.87335,0.40263 -0.87335,0.35807 -0.87335,0.32135 -0.87336,0.29289 -0.87335,0.27298 -0.87335,0.26173 -0.87335,0.25903 -0.87335,0.26448 -0.87336,0.27731 -0.87335,0.29644 -0.87335,0.32041 z" /></g></g><g
       id="g152"><g
         clip-path="url(#clipPath156)"
         id="g154"><path
           id="path160"
           style="fill:none;stroke:#000000;stroke-width:2;stroke-linecap:square;stroke-linejoin:round;stroke-miterlimit:10;stroke-dasharray:none;stroke-opacity:1"
           d="m 521.47453,143.3878 3.77507,0.76324 3.77506,0.7838 3.77507,0.80513 3.77507,0.82829 3.77506,0.85435 3.77507,0.88434 3.77506,0.91922 3.77507,0.9597 3.77506,1.00625 3.77507,1.05903 3.77506,1.11788 3.77507,1.18229 3.77507,1.25141 3.77506,1.32415 3.77507,1.3991 3.77506,1.47478 3.77507,1.54949 3.77506,1.62158 3.77507,1.68938 3.77507,1.7513 3.77506,1.80592 3.77507,1.85198 3.77506,1.88843 3.77507,1.91444 3.77506,1.92947 3.77507,1.93313 3.77507,1.92536 3.77506,1.90621 3.77507,1.87599 3.77506,1.83512 3.77507,1.78413 3.77507,1.72361 3.77506,1.65417 3.77507,1.57637 3.77506,1.49074 3.77507,1.39763 3.77506,1.29736 3.77507,1.19007 3.77506,1.07582 3.77507,0.95464 3.77507,0.82654 3.77506,0.69159 3.77507,0.55009 3.77506,0.40251 3.77507,0.24967 3.77506,0.0927 3.77507,-0.0667 3.77507,-0.2267 3.77506,-0.38497 3.77507,-0.53896 3.77506,-0.68592 3.77507,-0.82315 3.77506,-0.94801 3.77507,-1.05812 3.77507,-1.15159 3.77506,-1.22696 3.77507,-1.28344 3.77506,-1.32088 3.77507,-1.33981 3.77507,-1.3414 3.77506,-1.3274 3.77507,-1.30001 3.77506,-1.26183 3.77507,-1.21562 3.77506,-1.1643 3.77507,-1.11066 3.77507,-1.0574 3.77506,-1.00693 3.77507,-0.96133 3.77506,-0.92233 3.77507,-0.89128 3.77506,-0.86911 3.77507,-0.8564 3.77506,-0.85338 3.77507,-0.85995 3.77507,-0.87577 3.77506,-0.90021 3.77507,-0.9324 3.77506,-0.97134 3.77507,-1.01578 3.77506,-1.06432 3.77507,-1.11549 3.77507,-1.16762 3.77506,-1.21904 3.77507,-1.26806 3.77506,-1.31296 3.77507,-1.35219 3.77506,-1.38427 3.77507,-1.40796 3.77507,-1.42224 3.77506,-1.42638 3.77507,-1.41999 3.77506,-1.40294 3.77507,-1.37547 3.77506,-1.3381 3.77507,-1.29165 3.77507,-1.23713 3.77506,-1.17581 3.77507,-1.10905" /></g></g><g
       id="g162"><g
         clip-path="url(#clipPath166)"
         id="g164"><path
           id="path170"
           style="fill:none;stroke:#000000;stroke-width:2;stroke-linecap:square;stroke-linejoin:round;stroke-miterlimit:10;stroke-dasharray:none;stroke-opacity:1"
           d="m 521.47453,116.5247 3.77507,-0.76324 3.77506,-0.7838 3.77507,-0.80513 3.77507,-0.82829 3.77506,-0.85435 3.77507,-0.88434 3.77506,-0.91922 3.77507,-0.9597 3.77506,-1.00625 3.77507,-1.05903 3.77506,-1.11788 3.77507,-1.18229 3.77507,-1.25141 3.77506,-1.32415 3.77507,-1.3991 3.77506,-1.474777 3.77507,-1.549494 3.77506,-1.621581 3.77507,-1.689376 3.77507,-1.751301 3.77506,-1.805921 3.77507,-1.85198 3.77506,-1.888427 3.77507,-1.914448 3.77506,-1.929464 3.77507,-1.933136 3.77507,-1.925351 3.77506,-1.90621 3.77507,-1.87599 3.77506,-1.83512 3.77507,-1.78413 3.77507,-1.723611 3.77506,-1.65417 3.77507,-1.576378 3.77506,-1.490735 3.77507,-1.397635 3.77506,-1.297359 3.77507,-1.190067 3.77506,-1.075823 3.77507,-0.95464 3.77507,-0.826532 3.77506,-0.691597 3.77507,-0.55009 3.77506,-0.402511 3.77507,-0.249671 3.77506,-0.09275 3.77507,0.0667 3.77507,0.226701 3.77506,0.384974 3.77507,0.538955 3.77506,0.685928 3.77507,0.82315 3.77506,0.948001 3.77507,1.058128 3.77507,1.151588 3.77506,1.226961 3.77507,1.28344 3.77506,1.32088 3.77507,1.339811 3.77507,1.341401 3.77506,1.327395 3.77507,1.300011 3.77506,1.261825 3.77507,1.215626 3.77506,1.164295 3.77507,1.110664 3.77507,1.057401 3.77506,1.006926 3.77507,0.961329 3.77506,0.922335 3.77507,0.89128 3.77506,0.86911 3.77507,0.856398 3.77506,0.853376 3.77507,0.859956 3.77507,0.875771 3.77506,0.900203 3.77507,0.932407 3.77506,0.971339 3.77507,1.015774 3.77506,1.064329 3.77507,1.115483 3.77507,1.167618 3.77506,1.219045 3.77507,1.268055 3.77506,1.312967 3.77507,1.352189 3.77506,1.38427 3.77507,1.40796 3.77507,1.42224 3.77506,1.42638 3.77507,1.41999 3.77506,1.40294 3.77507,1.37547 3.77506,1.3381 3.77507,1.29165 3.77507,1.23713 3.77506,1.17581 3.77507,1.10905" /></g></g><g
       id="g172"><g
         clip-path="url(#clipPath176)"
         id="g174"><path
           id="path180"
           style="fill:none;stroke:#000000;stroke-width:2;stroke-linecap:square;stroke-linejoin:round;stroke-miterlimit:10;stroke-dasharray:none;stroke-opacity:1"
           d="m 527.73689,321.00257 4.25094,0.26586 4.25095,0.23226 4.25094,0.20561 4.25094,0.18813 4.25094,0.18167 4.25095,0.18768 4.25094,0.20721 4.25094,0.24083 4.25095,0.28876 4.25094,0.35088 4.25094,0.42673 4.25094,0.51566 4.25095,0.61675 4.25094,0.72885 4.25094,0.85054 4.25095,0.98008 4.25094,1.11536 4.25094,1.25385 4.25095,1.39258 4.25094,1.52819 4.25094,1.65697 4.25095,1.77503 4.25094,1.87836 4.25094,1.96321 4.25094,2.02611 4.25095,2.06432 4.25094,2.07582 4.25094,2.05971 4.25095,2.01618 4.25094,1.94666 4.25094,1.85378 4.25095,1.74133 4.25094,1.61403 4.25094,1.4774 4.25095,1.3374 4.25094,1.20015 4.25094,1.0716 4.25094,0.95714 4.25095,0.86135 4.25094,0.78768 4.25094,0.7383 4.25095,0.71392 4.25094,0.71383 4.25094,0.73585 4.25094,0.77662 4.25095,0.83171 4.25094,0.8959 4.25094,0.96361 4.25095,1.02905 4.25094,1.08666 4.25094,1.13129 4.25095,1.15846 4.25094,1.16448 4.25094,1.14654 4.25095,1.10273 4.25094,1.03209 4.25094,0.93448 4.25094,0.81061 4.25095,0.66196 4.25094,0.49077 4.25094,0.29997 4.25095,0.0931 4.25094,-0.12555 4.25094,-0.35143 4.25094,-0.57953 4.25095,-0.80469 4.25094,-1.0219 4.25094,-1.22646 4.25095,-1.41434 4.25094,-1.58231 4.25094,-1.72821 4.25095,-1.85095 4.25094,-1.9506 4.25094,-2.0282 4.25095,-2.08561 4.25094,-2.12524 4.25094,-2.14975 4.25094,-2.16175 4.25095,-2.16356 4.25094,-2.157 4.25094,-2.14327 4.25095,-2.12297 4.25094,-2.0961 4.25094,-2.06232 4.25095,-2.02099 4.25094,-1.97153 4.25094,-1.91356 4.25095,-1.84704 4.25094,-1.77247 4.25094,-1.69087 4.25094,-1.6038 4.25095,-1.51321 4.25094,-1.42139 4.25094,-1.33069 4.25095,-1.24339 4.25094,-1.16146 4.25094,-1.08648 4.25094,-1.01939 4.25095,-0.96059" /></g></g><g
       id="g182"><g
         clip-path="url(#clipPath186)"
         id="g184"><path
           id="path190"
           style="fill:none;stroke:#000000;stroke-width:2;stroke-linecap:square;stroke-linejoin:round;stroke-miterlimit:10;stroke-dasharray:none;stroke-opacity:1"
           d="m 527.73689,301.30993 4.25094,-0.26586 4.25095,-0.23226 4.25094,-0.20561 4.25094,-0.18813 4.25094,-0.18167 4.25095,-0.18769 4.25094,-0.2072 4.25094,-0.24083 4.25095,-0.28876 4.25094,-0.35088 4.25094,-0.42673 4.25094,-0.51566 4.25095,-0.61675 4.25094,-0.72885 4.25094,-0.85054 4.25095,-0.98008 4.25094,-1.11536 4.25094,-1.25385 4.25095,-1.39258 4.25094,-1.52819 4.25094,-1.65697 4.25095,-1.77503 4.25094,-1.87836 4.25094,-1.96321 4.25094,-2.02612 4.25095,-2.06431 4.25094,-2.07582 4.25094,-2.05971 4.25095,-2.01618 4.25094,-1.94666 4.25094,-1.85378 4.25095,-1.74133 4.25094,-1.61403 4.25094,-1.4774 4.25095,-1.3374 4.25094,-1.20015 4.25094,-1.0716 4.25094,-0.95714 4.25095,-0.86135 4.25094,-0.78768 4.25094,-0.7383 4.25095,-0.71392 4.25094,-0.71383 4.25094,-0.73585 4.25094,-0.77662 4.25095,-0.83171 4.25094,-0.8959 4.25094,-0.96361 4.25095,-1.02905 4.25094,-1.08666 4.25094,-1.13129 4.25095,-1.15846 4.25094,-1.16448 4.25094,-1.14654 4.25095,-1.10273 4.25094,-1.03209 4.25094,-0.93448 4.25094,-0.81061 4.25095,-0.66196 4.25094,-0.49077 4.25094,-0.29997 4.25095,-0.0931 4.25094,0.12555 4.25094,0.35143 4.25094,0.57953 4.25095,0.80469 4.25094,1.0219 4.25094,1.22646 4.25095,1.41434 4.25094,1.58231 4.25094,1.7282 4.25095,1.85096 4.25094,1.9506 4.25094,2.0282 4.25095,2.08561 4.25094,2.12524 4.25094,2.14975 4.25094,2.16175 4.25095,2.16356 4.25094,2.15699 4.25094,2.14328 4.25095,2.12296 4.25094,2.09611 4.25094,2.06232 4.25095,2.02099 4.25094,1.97153 4.25094,1.91356 4.25095,1.84703 4.25094,1.77247 4.25094,1.69088 4.25094,1.60379 4.25095,1.51322 4.25094,1.42139 4.25094,1.33069 4.25095,1.24339 4.25094,1.16146 4.25094,1.08648 4.25094,1.01939 4.25095,0.96059" /></g></g><g
       id="g192"><g
         clip-path="url(#clipPath196)"
         id="g194"><path
           id="path200"
           style="fill:none;stroke:#000000;stroke-width:2;stroke-linecap:square;stroke-linejoin:round;stroke-miterlimit:10;stroke-dasharray:none;stroke-opacity:1"
           d="m 354.77591,500.62147 0.87335,0.32042 0.87335,0.29644 0.87336,0.27731 0.87335,0.26448 0.87335,0.25903 0.87335,0.26173 0.87335,0.27298 0.87336,0.29289 0.87335,0.32135 0.87335,0.35807 0.87335,0.40263 0.87336,0.45456 0.87335,0.5133 0.87335,0.57826 0.87335,0.64883 0.87336,0.72429 0.87335,0.80389 0.87335,0.8868 0.87335,0.97207 0.87335,1.05874 0.87336,1.14578 0.87335,1.23214 0.87335,1.31686 0.87335,1.399 0.87336,1.47775 0.87335,1.55246 0.87335,1.62256 0.87335,1.68762 0.87336,1.74731 0.87335,1.80126 0.87335,1.84909 0.87335,1.89023 0.87336,1.92403 0.87335,1.94951 0.87335,1.96562 0.87335,1.97107 0.87335,1.96462 0.87336,1.94509 0.87335,1.91163 0.87335,1.86382 0.87335,1.80186 0.87336,1.7266 0.87335,1.63969 0.87335,1.54341 0.87335,1.44064 0.87336,1.33454 0.87335,1.22839 0.87335,1.1253 0.87335,1.02783 0.87335,0.93788 0.87336,0.8565 0.87335,0.78374 0.87335,0.71879 0.87335,0.66003 0.87336,0.6053 0.87335,0.55208 0.87335,0.49781 0.87335,0.44013 0.87336,0.37708 0.87335,0.30721 0.87335,0.22964 0.87335,0.14408 0.87336,0.0507 0.87335,-0.0499 0.87335,-0.15689 0.87335,-0.26926 0.87335,-0.38585 0.87336,-0.50538 0.87335,-0.62643 0.87335,-0.74749 0.87335,-0.86684 0.87336,-0.98266 0.87335,-1.09308 0.87335,-1.19633 0.87335,-1.29087 0.87336,-1.37563 0.87335,-1.45015 0.87335,-1.51472 0.87335,-1.57038 0.87336,-1.61893 0.87335,-1.66262 0.87335,-1.70398 0.87335,-1.74546 0.87335,-1.78902 0.87336,-1.83593 0.87335,-1.88639 0.87335,-1.93956 0.87335,-1.99348 0.87336,-2.04529 0.87335,-2.09145 0.87335,-2.12818 0.87335,-2.15174 0.87336,-2.15894 0.87335,-2.14736 0.87335,-2.11563 0.87335,-2.06357 0.87335,-1.99216 0.87336,-1.90347 0.87335,-1.80046" /></g></g><g
       id="g202"><g
         clip-path="url(#clipPath206)"
         id="g204"><path
           id="path210"
           style="fill:none;stroke:#000000;stroke-width:2;stroke-linecap:square;stroke-linejoin:round;stroke-miterlimit:10;stroke-dasharray:none;stroke-opacity:1"
           d="m 354.77591,484.09102 0.87335,-0.32041 0.87335,-0.29644 0.87336,-0.27731 0.87335,-0.26448 0.87335,-0.25903 0.87335,-0.26173 0.87335,-0.27298 0.87336,-0.29289 0.87335,-0.32135 0.87335,-0.35807 0.87335,-0.40263 0.87336,-0.45456 0.87335,-0.5133 0.87335,-0.57826 0.87335,-0.64883 0.87336,-0.72429 0.87335,-0.80389 0.87335,-0.8868 0.87335,-0.97208 0.87335,-1.05874 0.87336,-1.14577 0.87335,-1.23214 0.87335,-1.31686 0.87335,-1.399 0.87336,-1.47776 0.87335,-1.55245 0.87335,-1.62256 0.87335,-1.68762 0.87336,-1.74731 0.87335,-1.80127 0.87335,-1.84908 0.87335,-1.89024 0.87336,-1.92402 0.87335,-1.94951 0.87335,-1.96562 0.87335,-1.97107 0.87335,-1.96462 0.87336,-1.94509 0.87335,-1.91163 0.87335,-1.86382 0.87335,-1.80186 0.87336,-1.7266 0.87335,-1.63969 0.87335,-1.54341 0.87335,-1.44064 0.87336,-1.33454 0.87335,-1.22839 0.87335,-1.1253 0.87335,-1.02783 0.87335,-0.93788 0.87336,-0.8565 0.87335,-0.78374 0.87335,-0.71879 0.87335,-0.66004 0.87336,-0.60529 0.87335,-0.55208 0.87335,-0.49781 0.87335,-0.44013 0.87336,-0.37708 0.87335,-0.30721 0.87335,-0.22964 0.87335,-0.14409 0.87336,-0.0507 0.87335,0.0499 0.87335,0.15689 0.87335,0.26926 0.87335,0.38585 0.87336,0.50538 0.87335,0.62643 0.87335,0.74749 0.87335,0.86684 0.87336,0.98266 0.87335,1.09308 0.87335,1.19633 0.87335,1.29087 0.87336,1.37563 0.87335,1.45015 0.87335,1.51472 0.87335,1.57038 0.87336,1.61893 0.87335,1.66262 0.87335,1.70398 0.87335,1.74546 0.87335,1.78902 0.87336,1.83593 0.87335,1.88639 0.87335,1.93956 0.87335,1.99348 0.87336,2.04529 0.87335,2.09145 0.87335,2.12817 0.87335,2.15175 0.87336,2.15894 0.87335,2.14736 0.87335,2.11563 0.87335,2.06357 0.87335,1.99216 0.87336,1.90347 0.87335,1.80046" /></g></g><g
       id="g212"><path
         id="path214"
         style="fill:#ffffff;fill-opacity:1;fill-rule:nonzero;stroke:none"
         d="m 988.97659,39.35625 166.56721,0 0,543.6 -166.56721,0 0,-543.6 z" /></g><g
       id="g216"><g
         clip-path="url(#clipPath220)"
         id="g218"><path
           id="path224"
           style="fill:#4682b4;fill-opacity:1;fill-rule:nonzero;stroke:none"
           d="m 988.97659,45.69825 72.80171,0 0,168.516 -72.80171,0 0,-168.516 z" /></g></g><g
       id="g226"><g
         clip-path="url(#clipPath230)"
         id="g228"><path
           id="path234"
           style="fill:#4682b4;fill-opacity:1;fill-rule:nonzero;stroke:none"
           d="m 988.97659,226.89825 101.76991,0 0,168.516 -101.76991,0 0,-168.516 z" /></g></g><g
       id="g236"><g
         clip-path="url(#clipPath240)"
         id="g238"><path
           id="path244"
           style="fill:#4682b4;fill-opacity:1;fill-rule:nonzero;stroke:none"
           d="m 988.97659,408.09825 136.45551,0 0,168.516 -136.45551,0 0,-168.516 z" /></g></g><g
       id="g246"><path
         id="path248"
         style="fill:#000000;fill-opacity:1;fill-rule:nonzero;stroke:#000000;stroke-width:0.80000001;stroke-linecap:butt;stroke-linejoin:round;stroke-miterlimit:10;stroke-dasharray:none;stroke-opacity:1"
         d="m 988.97659,582.95625 0,5" /><text
         id="text250"
         style="font-variant:normal;font-weight:normal;font-size:22px;font-family:DejaVuSans;-inkscape-font-specification:DejaVuSans;writing-mode:lr-tb;fill:#000000;fill-opacity:1;fill-rule:nonzero;stroke:none"
         transform="matrix(0,1,1,0,995.0469,597.95625)"><tspan
           id="tspan252"
           y="0"
           x="0 13.992 20.988001">0.0</tspan></text>
<path
         id="path254"
         style="fill:#000000;fill-opacity:1;fill-rule:nonzero;stroke:#000000;stroke-width:0.80000001;stroke-linecap:butt;stroke-linejoin:round;stroke-miterlimit:10;stroke-dasharray:none;stroke-opacity:1"
         d="m 1072.2602,582.95625 0,5" /><text
         id="text256"
         style="font-variant:normal;font-weight:normal;font-size:22px;font-family:DejaVuSans;-inkscape-font-specification:DejaVuSans;writing-mode:lr-tb;fill:#000000;fill-opacity:1;fill-rule:nonzero;stroke:none"
         transform="matrix(0,1,1,0,1078.3305,597.95625)"><tspan
           id="tspan258"
           y="0"
           x="0 13.992 20.988001">0.5</tspan></text>
<path
         id="path260"
         style="fill:#000000;fill-opacity:1;fill-rule:nonzero;stroke:#000000;stroke-width:0.80000001;stroke-linecap:butt;stroke-linejoin:round;stroke-miterlimit:10;stroke-dasharray:none;stroke-opacity:1"
         d="m 1155.5438,582.95625 0,5" /><text
         id="text262"
         style="font-variant:normal;font-weight:normal;font-size:22px;font-family:DejaVuSans;-inkscape-font-specification:DejaVuSans;writing-mode:lr-tb;fill:#000000;fill-opacity:1;fill-rule:nonzero;stroke:none"
         transform="matrix(0,1,1,0,1161.6141,597.95625)"><tspan
           id="tspan264"
           y="0"
           x="0 13.992 20.988001">1.0</tspan></text>
<text
         id="text266"
         style="font-variant:normal;font-weight:normal;font-size:24px;font-family:DejaVuSans;-inkscape-font-specification:DejaVuSans;writing-mode:lr-tb;fill:#000000;fill-opacity:1;fill-rule:nonzero;stroke:none"
         transform="matrix(1,0,0,-1,951.11954,636.95625)"><tspan
           id="tspan268"
           y="0"
           x="0 6.6719999 21.888 35.088001 41.759998 56.976002 69.480003 76.152 90.839996 106.056 113.688 128.92799 138.79201 153.48 168.72 183.43201 198.672 205.34399 212.01601 218.688 228.09599">inclusion probability</tspan></text>
<path
         id="path270"
         style="fill:none;stroke:#000000;stroke-width:0.80000001;stroke-linecap:square;stroke-linejoin:miter;stroke-miterlimit:10;stroke-dasharray:none;stroke-opacity:1"
         d="m 988.97659,39.35625 0,543.6" /><path
         id="path272"
         style="fill:none;stroke:#000000;stroke-width:0.80000001;stroke-linecap:square;stroke-linejoin:miter;stroke-miterlimit:10;stroke-dasharray:none;stroke-opacity:1"
         d="m 1155.5438,39.35625 0,543.6" /></g></g></svg>