<?xml version="1.0" encoding="UTF-8" standalone="no"?>
<!-- Created with Inkscape (http://www.inkscape.org/) -->

<svg
   xmlns:dc="http://purl.org/dc/elements/1.1/"
   xmlns:cc="http://creativecommons.org/ns#"
   xmlns:rdf="http://www.w3.org/1999/02/22-rdf-syntax-ns#"
   xmlns:svg="http://www.w3.org/2000/svg"
   xmlns="http://www.w3.org/2000/svg"
   xmlns:sodipodi="http://sodipodi.sourceforge.net/DTD/sodipodi-0.dtd"
   xmlns:inkscape="http://www.inkscape.org/namespaces/inkscape"
   id="svg2"
   version="1.1"
   inkscape:version="0.91 r13725"
   xml:space="preserve"
   width="175.88"
   height="28.576626"
   viewBox="0 0 175.88 28.576626"
   sodipodi:docname="eth_logo_kurz_pos_13.svg"><metadata
     id="metadata8"><rdf:RDF><cc:Work
         rdf:about=""><dc:format>image/svg+xml</dc:format><dc:type
           rdf:resource="http://purl.org/dc/dcmitype/StillImage" /><dc:title></dc:title></cc:Work></rdf:RDF></metadata><defs
     id="defs6"><clipPath
       clipPathUnits="userSpaceOnUse"
       id="clipPath16"><path
         d="m 0,22.861 140.704,0 L 140.704,0 0,0 0,22.861 Z"
         id="path18"
         inkscape:connector-curvature="0" /></clipPath></defs><sodipodi:namedview
     pagecolor="#ffffff"
     bordercolor="#666666"
     borderopacity="1"
     objecttolerance="10"
     gridtolerance="10"
     guidetolerance="10"
     inkscape:pageopacity="0"
     inkscape:pageshadow="2"
     inkscape:window-width="1400"
     inkscape:window-height="926"
     id="namedview4"
     showgrid="false"
     inkscape:zoom="3.2221898"
     inkscape:cx="41.021738"
     inkscape:cy="7.9425957"
     inkscape:window-x="0"
     inkscape:window-y="0"
     inkscape:window-maximized="0"
     inkscape:current-layer="g10" /><g
     id="g10"
     inkscape:groupmode="layer"
     inkscape:label="eth_logo_kurz_pos_13"
     transform="matrix(1.25,0,0,-1.25,0,28.576625)"><g
       id="g12"><g
         id="g14"
         clip-path="url(#clipPath16)"><g
           id="g20"
           transform="translate(86.4985,6.2339)"><path
             d="m 0,0 c -0.81,-4.017 -3.913,-4.221 -4.528,-4.221 -1.752,0 -2.797,1.012 -2.797,2.704 0,0.387 0.057,0.913 0.155,1.439 l 1.92,9.562 0.008,0.037 -2.267,0 -1.956,-9.805 -0.026,-0.14 c -0.084,-0.443 -0.162,-0.863 -0.162,-1.408 0,-2.634 1.73,-4.402 4.308,-4.402 1.887,0 3.401,0.619 4.508,1.841 l -0.294,-1.615 -0.008,-0.038 2.235,0 3.089,15.53 0.006,0.037 -2.299,0 L 0,0 Z"
             style="fill:#231f20;fill-opacity:1;fill-rule:nonzero;stroke:none"
             id="path22"
             inkscape:connector-curvature="0" /></g><g
           id="g24"
           transform="translate(101.9536,15.9434)"><path
             d="m 0,0 c -1.752,0 -3.304,-0.716 -4.281,-1.974 l 0.351,1.748 0.007,0.037 -2.236,0 -3.089,-15.529 -0.007,-0.038 2.269,0 1.891,9.525 c 0.484,2.444 2.361,4.217 4.466,4.217 0.903,0 1.615,-0.356 2.175,-1.087 L 1.567,-3.129 3.409,-1.48 3.39,-1.457 C 2.54,-0.475 1.429,0 0,0"
             style="fill:#231f20;fill-opacity:1;fill-rule:nonzero;stroke:none"
             id="path26"
             inkscape:connector-curvature="0" /></g><g
           id="g28"
           transform="translate(64.4683,13.7798)"><path
             d="m 0,0 -0.007,-0.039 7.736,0 -10.299,-11.644 -0.006,-0.006 -0.388,-1.903 10.978,0 0.391,2.014 -8.207,0 10.331,11.645 0.005,0.007 0.387,1.901 -10.537,0 L 0,0 Z"
             style="fill:#231f20;fill-opacity:1;fill-rule:nonzero;stroke:none"
             id="path30"
             inkscape:connector-curvature="0" /></g><g
           id="g32"
           transform="translate(105.6504,0.2256)"><path
             d="m 0,0 -0.008,-0.038 2.267,0 3.094,15.567 -2.23,0 L 0,0 Z"
             style="fill:#231f20;fill-opacity:1;fill-rule:nonzero;stroke:none"
             id="path34"
             inkscape:connector-curvature="0" /></g><g
           id="g36"
           transform="translate(136.3911,15.9424)"><path
             d="m 0,0 c -1.865,0 -3.321,-0.571 -4.44,-1.75 l 1.758,8.669 -2.268,0 -4.555,-22.676 2.268,0 1.89,9.526 c 0.811,4.015 3.942,4.218 4.56,4.218 1.733,0 2.768,-1.011 2.768,-2.704 0,-0.384 -0.058,-0.908 -0.158,-1.44 l -1.924,-9.6 2.266,0 1.988,9.809 c 0.096,0.521 0.16,0.962 0.16,1.547 C 4.313,-1.769 2.577,0 0,0"
             style="fill:#231f20;fill-opacity:1;fill-rule:nonzero;stroke:none"
             id="path38"
             inkscape:connector-curvature="0" /></g><g
           id="g40"
           transform="translate(121.3599,15.9434)"><path
             d="m 0,0 c -4.113,0 -7,-2.897 -7.923,-7.949 -0.166,-0.846 -0.223,-1.793 -0.223,-2.397 0,-3.452 2.095,-5.597 5.471,-5.597 1.963,0 3.755,0.752 5.181,2.177 l 0.02,0.021 -1.307,1.596 -0.024,0.028 -0.024,-0.027 c -1.203,-1.266 -2.281,-1.783 -3.721,-1.783 -1.609,0 -3.33,0.958 -3.33,3.648 0,0.842 0.1,1.538 0.249,2.322 0.243,1.32 0.79,3.164 2.005,4.447 0.966,0.995 2.111,1.5 3.406,1.5 1.352,0 2.198,-0.481 3.022,-1.715 l 0.019,-0.03 1.664,1.406 0.024,0.02 -0.018,0.025 C 3.354,-0.711 1.969,0 0,0"
             style="fill:#231f20;fill-opacity:1;fill-rule:nonzero;stroke:none"
             id="path42"
             inkscape:connector-curvature="0" /></g><g
           id="g44"
           transform="translate(109.6147,20.0269)"><path
             d="m 0,0 2.272,0 0.565,2.834 -2.264,0 L 0,0 Z"
             style="fill:#231f20;fill-opacity:1;fill-rule:nonzero;stroke:none"
             id="path46"
             inkscape:connector-curvature="0" /></g><g
           id="g48"
           transform="translate(87.5679,20.0269)"><path
             d="m 0,0 2.273,0 0.562,2.834 -2.261,0 L 0,0 Z"
             style="fill:#231f20;fill-opacity:1;fill-rule:nonzero;stroke:none"
             id="path50"
             inkscape:connector-curvature="0" /></g><g
           id="g52"
           transform="translate(81.5215,20.0269)"><path
             d="m 0,0 2.272,0 0.564,2.834 -2.261,0 L 0,0 Z"
             style="fill:#231f20;fill-opacity:1;fill-rule:nonzero;stroke:none"
             id="path54"
             inkscape:connector-curvature="0" /></g><g
           id="g56"
           transform="translate(51.229,14.0747)"><path
             d="m 0,0 -5.102,0 1.792,8.787 -43.365,0 -4.554,-22.676 17.29,0 1.132,5.668 -10.208,0 0.619,3.118 10.205,0 1.027,5.103 -10.207,0 0.618,3.119 16.18,0 -3.416,-17.008 7.087,0 3.416,17.008 5.949,0 -3.415,-17.008 7.088,0 1.749,8.786 5.1,0 -1.749,-8.786 7.087,0 4.556,22.676 -7.087,0 L 0,0 Z"
             style="fill:#231f20;fill-opacity:1;fill-rule:nonzero;stroke:none"
             id="path58"
             inkscape:connector-curvature="0" /></g></g></g></g></svg>