<?xml version="1.0" encoding="UTF-8" standalone="no"?>
<svg
   xmlns:dc="http://purl.org/dc/elements/1.1/"
   xmlns:cc="http://creativecommons.org/ns#"
   xmlns:rdf="http://www.w3.org/1999/02/22-rdf-syntax-ns#"
   xmlns:svg="http://www.w3.org/2000/svg"
   xmlns="http://www.w3.org/2000/svg"
   viewBox="0 0 51.062008 12.907681"
   height="12.907681"
   width="51.062008"
   xml:space="preserve"
   version="1.1"
   id="svg2"><metadata
     id="metadata8"><rdf:RDF><cc:Work
         rdf:about=""><dc:format>image/svg+xml</dc:format><dc:type
           rdf:resource="http://purl.org/dc/dcmitype/StillImage" /><dc:title></dc:title></cc:Work></rdf:RDF></metadata><defs
     id="defs6"><clipPath
       id="clipPath30"
       clipPathUnits="userSpaceOnUse"><path
         id="path32"
         d="m 22.832,10.146 7.84,0 0,-8.32 -7.84,0 0,8.32 z" /></clipPath><clipPath
       id="clipPath40"
       clipPathUnits="userSpaceOnUse"><path
         id="path42"
         d="m 22,9 2,0 0,1 -2,0 0,-1 z" /></clipPath><clipPath
       id="clipPath60"
       clipPathUnits="userSpaceOnUse"><path
         id="path62"
         d="m 23,10 5,0 0,1 -5,0 0,-1 z" /></clipPath><clipPath
       id="clipPath76"
       clipPathUnits="userSpaceOnUse"><path
         id="path78"
         d="m 22,3 2,0 0,7 -2,0 0,-7 z" /></clipPath><clipPath
       id="clipPath92"
       clipPathUnits="userSpaceOnUse"><path
         id="path94"
         d="m 23,7 1,0 0,4 -1,0 0,-4 z" /></clipPath><clipPath
       id="clipPath108"
       clipPathUnits="userSpaceOnUse"><path
         id="path110"
         d="m 25,2 1,0 0,4 -1,0 0,-4 z" /></clipPath><clipPath
       id="clipPath124"
       clipPathUnits="userSpaceOnUse"><path
         id="path126"
         d="m 27,7 1,0 0,2 -1,0 0,-2 z" /></clipPath><clipPath
       id="clipPath138"
       clipPathUnits="userSpaceOnUse"><path
         id="path140"
         d="m 27,7 1,0 0,2 -1,0 0,-2 z" /></clipPath><clipPath
       id="clipPath154"
       clipPathUnits="userSpaceOnUse"><path
         id="path156"
         d="m 27,5 1,0 0,1 -1,0 0,-1 z" /></clipPath><clipPath
       id="clipPath168"
       clipPathUnits="userSpaceOnUse"><path
         id="path170"
         d="m 27,4 1,0 0,2 -1,0 0,-2 z" /></clipPath><clipPath
       id="clipPath184"
       clipPathUnits="userSpaceOnUse"><path
         id="path186"
         d="m 27,10 1,0 0,1 -1,0 0,-1 z" /></clipPath><clipPath
       id="clipPath198"
       clipPathUnits="userSpaceOnUse"><path
         id="path200"
         d="m 27,2 1,0 0,2 -1,0 0,-2 z" /></clipPath><clipPath
       id="clipPath212"
       clipPathUnits="userSpaceOnUse"><path
         id="path214"
         d="m 27,2 1,0 0,2 -1,0 0,-2 z" /></clipPath><clipPath
       id="clipPath228"
       clipPathUnits="userSpaceOnUse"><path
         id="path230"
         d="m 27,10 1,0 0,1 -1,0 0,-1 z" /></clipPath><clipPath
       id="clipPath246"
       clipPathUnits="userSpaceOnUse"><path
         id="path248"
         d="m 27,10 1,0 0,1 -1,0 0,-1 z" /></clipPath><clipPath
       id="clipPath260"
       clipPathUnits="userSpaceOnUse"><path
         id="path262"
         d="m 26,10 2,0 0,1 -2,0 0,-1 z" /></clipPath><clipPath
       id="clipPath276"
       clipPathUnits="userSpaceOnUse"><path
         id="path278"
         d="m 27,7 1,0 0,2 -1,0 0,-2 z" /></clipPath><clipPath
       id="clipPath290"
       clipPathUnits="userSpaceOnUse"><path
         id="path292"
         d="m 26,7 2,0 0,2 -2,0 0,-2 z" /></clipPath><clipPath
       id="clipPath306"
       clipPathUnits="userSpaceOnUse"><path
         id="path308"
         d="m 27,5 1,0 0,1 -1,0 0,-1 z" /></clipPath><clipPath
       id="clipPath320"
       clipPathUnits="userSpaceOnUse"><path
         id="path322"
         d="m 26,4 2,0 0,2 -2,0 0,-2 z" /></clipPath><clipPath
       id="clipPath336"
       clipPathUnits="userSpaceOnUse"><path
         id="path338"
         d="m 27,2 1,0 0,2 -1,0 0,-2 z" /></clipPath><clipPath
       id="clipPath350"
       clipPathUnits="userSpaceOnUse"><path
         id="path352"
         d="m 26,2 2,0 0,2 -2,0 0,-2 z" /></clipPath></defs><g
     transform="matrix(1.25,0,0,-1.25,0,12.907681)"
     id="g10"><g
       id="g12"><g
         transform="matrix(1,0,0,-1,0,10.326145)"
         id="g14"><path
           id="path16"
           style="fill:none;stroke:#247cb5;stroke-width:0.3624;stroke-linecap:round;stroke-linejoin:round;stroke-miterlimit:10;stroke-dasharray:none;stroke-opacity:1"
           d="m 23.152,6.902 2.559,0" /></g><g
         transform="matrix(1,0,0,-1,0,10.326145)"
         id="g18"><path
           id="path20"
           style="fill:none;stroke:#247cb5;stroke-width:0.3624;stroke-linecap:round;stroke-linejoin:round;stroke-miterlimit:10;stroke-dasharray:none;stroke-opacity:1"
           d="m 25.711,8.18 1.762,0" /></g><g
         transform="matrix(1,0,0,-1,0,10.326145)"
         id="g22"><path
           id="path24"
           style="fill:none;stroke:#247cb5;stroke-width:0.3624;stroke-linecap:round;stroke-linejoin:round;stroke-miterlimit:10;stroke-dasharray:none;stroke-opacity:1"
           d="m 25.711,5.621 1.762,0" /></g></g><g
       id="g26"><g
         clip-path="url(#clipPath30)"
         id="g28"><g
           transform="translate(0,-0.673855)"
           id="g34"><g
             id="g36"><g
               clip-path="url(#clipPath40)"
               id="g38"><g
                 id="g44"><g
                   transform="matrix(1,0,0,-1,0,11)"
                   id="g46"><path
                     id="path48"
                     style="fill:none;stroke:#247cb5;stroke-width:0.3624;stroke-linecap:round;stroke-linejoin:round;stroke-miterlimit:10;stroke-dasharray:none;stroke-opacity:1"
                     d="m 23.152,1.781 0.559,0" /></g></g></g></g></g><g
           transform="matrix(1,0,0,-1,0,10.326145)"
           id="g50"><path
             id="path52"
             style="fill:none;stroke:#247cb5;stroke-width:0.3624;stroke-linecap:round;stroke-linejoin:round;stroke-miterlimit:10;stroke-dasharray:none;stroke-opacity:1"
             d="m 23.711,3.062 3.762,0" /></g><g
           transform="translate(0,-0.673855)"
           id="g54"><g
             id="g56"><g
               clip-path="url(#clipPath60)"
               id="g58"><g
                 id="g64"><g
                   transform="matrix(1,0,0,-1,0,11)"
                   id="g66"><path
                     id="path68"
                     style="fill:none;stroke:#247cb5;stroke-width:0.3624;stroke-linecap:round;stroke-linejoin:round;stroke-miterlimit:10;stroke-dasharray:none;stroke-opacity:1"
                     d="m 23.711,0.5 3.762,0" /></g></g></g></g></g><g
           transform="translate(0,-0.673855)"
           id="g70"><g
             id="g72"><g
               clip-path="url(#clipPath76)"
               id="g74"><g
                 id="g80"><g
                   transform="matrix(1,0,0,-1,0,11)"
                   id="g82"><path
                     id="path84"
                     style="fill:none;stroke:#247cb5;stroke-width:0.3624;stroke-linecap:round;stroke-linejoin:round;stroke-miterlimit:10;stroke-dasharray:none;stroke-opacity:1"
                     d="m 23.152,6.902 0,-5.121" /></g></g></g></g></g><g
           transform="translate(0,-0.673855)"
           id="g86"><g
             id="g88"><g
               clip-path="url(#clipPath92)"
               id="g90"><g
                 id="g96"><g
                   transform="matrix(1,0,0,-1,0,11)"
                   id="g98"><path
                     id="path100"
                     style="fill:none;stroke:#247cb5;stroke-width:0.3624;stroke-linecap:round;stroke-linejoin:round;stroke-miterlimit:10;stroke-dasharray:none;stroke-opacity:1"
                     d="m 23.711,3.062 0,-2.562" /></g></g></g></g></g><g
           transform="translate(0,-0.673855)"
           id="g102"><g
             id="g104"><g
               clip-path="url(#clipPath108)"
               id="g106"><g
                 id="g112"><g
                   transform="matrix(1,0,0,-1,0,11)"
                   id="g114"><path
                     id="path116"
                     style="fill:none;stroke:#247cb5;stroke-width:0.3624;stroke-linecap:round;stroke-linejoin:round;stroke-miterlimit:10;stroke-dasharray:none;stroke-opacity:1"
                     d="m 25.711,8.18 0,-2.559" /></g></g></g></g></g><g
           transform="translate(0,-0.673855)"
           id="g118"><g
             id="g120"><g
               clip-path="url(#clipPath124)"
               id="g122"><g
                 id="g128"><path
                   id="path130"
                   style="fill:#f5832b;fill-opacity:1;fill-rule:nonzero;stroke:none"
                   d="m 27.23,7.938 c 0,0.082 0.082,0.242 0.243,0.242 0.16,0 0.16,-0.082 0.16,-0.242 0,-0.079 -0.082,-0.239 -0.242,-0.239 -0.161,0 -0.161,0.16 -0.161,0.239" /></g></g></g></g><g
           transform="translate(0,-0.673855)"
           id="g132"><g
             id="g134"><g
               clip-path="url(#clipPath138)"
               id="g136"><g
                 id="g142"><g
                   transform="matrix(1,0,0,-1,0,11)"
                   id="g144"><path
                     id="path146"
                     style="fill:none;stroke:#f5832b;stroke-width:0.3624;stroke-linecap:round;stroke-linejoin:round;stroke-miterlimit:10;stroke-dasharray:none;stroke-opacity:1"
                     d="m 27.23,3.062 c 0,-0.082 0.082,-0.242 0.243,-0.242 0.16,0 0.16,0.082 0.16,0.242 0,0.079 -0.082,0.239 -0.242,0.239 -0.161,0 -0.161,-0.16 -0.161,-0.239" /></g></g></g></g></g><g
           transform="translate(0,-0.673855)"
           id="g148"><g
             id="g150"><g
               clip-path="url(#clipPath154)"
               id="g152"><g
                 id="g158"><path
                   id="path160"
                   style="fill:#f5832b;fill-opacity:1;fill-rule:nonzero;stroke:none"
                   d="m 27.23,5.379 c 0,0.078 0.082,0.238 0.243,0.238 0.16,0 0.16,-0.078 0.16,-0.238 0,-0.082 -0.082,-0.238 -0.242,-0.238 -0.161,0 -0.161,0.156 -0.161,0.238" /></g></g></g></g><g
           transform="translate(0,-0.673855)"
           id="g162"><g
             id="g164"><g
               clip-path="url(#clipPath168)"
               id="g166"><g
                 id="g172"><g
                   transform="matrix(1,0,0,-1,0,11)"
                   id="g174"><path
                     id="path176"
                     style="fill:none;stroke:#f5832b;stroke-width:0.3624;stroke-linecap:round;stroke-linejoin:round;stroke-miterlimit:10;stroke-dasharray:none;stroke-opacity:1"
                     d="m 27.23,5.621 c 0,-0.078 0.082,-0.238 0.243,-0.238 0.16,0 0.16,0.078 0.16,0.238 0,0.082 -0.082,0.238 -0.242,0.238 -0.161,0 -0.161,-0.156 -0.161,-0.238" /></g></g></g></g></g><g
           transform="translate(0,-0.673855)"
           id="g178"><g
             id="g180"><g
               clip-path="url(#clipPath184)"
               id="g182"><g
                 id="g188"><path
                   id="path190"
                   style="fill:#f5832b;fill-opacity:1;fill-rule:nonzero;stroke:none"
                   d="m 27.23,10.5 c 0,0.078 0.082,0.238 0.243,0.238 0.16,0 0.16,-0.078 0.16,-0.238 0,-0.082 -0.082,-0.242 -0.242,-0.242 -0.161,0 -0.161,0.16 -0.161,0.242" /></g></g></g></g><g
           transform="translate(0,-0.673855)"
           id="g192"><g
             id="g194"><g
               clip-path="url(#clipPath198)"
               id="g196"><g
                 id="g202"><path
                   id="path204"
                   style="fill:#f5832b;fill-opacity:1;fill-rule:nonzero;stroke:none"
                   d="m 27.23,2.82 c 0,0.078 0.082,0.239 0.243,0.239 0.16,0 0.16,-0.079 0.16,-0.239 0,-0.082 -0.082,-0.242 -0.242,-0.242 -0.161,0 -0.161,0.16 -0.161,0.242" /></g></g></g></g><g
           transform="translate(0,-0.673855)"
           id="g206"><g
             id="g208"><g
               clip-path="url(#clipPath212)"
               id="g210"><g
                 id="g216"><g
                   transform="matrix(1,0,0,-1,0,11)"
                   id="g218"><path
                     id="path220"
                     style="fill:none;stroke:#f5832b;stroke-width:0.3624;stroke-linecap:round;stroke-linejoin:round;stroke-miterlimit:10;stroke-dasharray:none;stroke-opacity:1"
                     d="m 27.23,8.18 c 0,-0.078 0.082,-0.239 0.243,-0.239 0.16,0 0.16,0.079 0.16,0.239 0,0.082 -0.082,0.242 -0.242,0.242 -0.161,0 -0.161,-0.16 -0.161,-0.242" /></g></g></g></g></g><g
           transform="translate(0,-0.673855)"
           id="g222"><g
             id="g224"><g
               clip-path="url(#clipPath228)"
               id="g226"><g
                 id="g232"><g
                   transform="matrix(1,0,0,-1,0,11)"
                   id="g234"><path
                     id="path236"
                     style="fill:none;stroke:#f5832b;stroke-width:0.3624;stroke-linecap:round;stroke-linejoin:round;stroke-miterlimit:10;stroke-dasharray:none;stroke-opacity:1"
                     d="m 27.23,0.5 c 0,-0.078 0.082,-0.238 0.243,-0.238 0.16,0 0.16,0.078 0.16,0.238 0,0.082 -0.082,0.242 -0.242,0.242 -0.161,0 -0.161,-0.16 -0.161,-0.242" /></g></g></g></g></g></g></g><g
       id="g238"><g
         transform="translate(0,-0.673855)"
         id="g240"><g
           id="g242"><g
             clip-path="url(#clipPath246)"
             id="g244"><g
               id="g250"><path
                 id="path252"
                 style="fill:#f5822a;fill-opacity:1;fill-rule:nonzero;stroke:none"
                 d="m 27.793,10.5 c 0,0.16 -0.16,0.32 -0.32,0.32 -0.243,0 -0.399,-0.16 -0.399,-0.32 0,-0.16 0.156,-0.32 0.317,-0.32 0.242,0 0.402,0.16 0.402,0.32" /></g></g></g></g><g
         transform="translate(0,-0.673855)"
         id="g254"><g
           id="g256"><g
             clip-path="url(#clipPath260)"
             id="g258"><g
               id="g264"><g
                 transform="matrix(1,0,0,-1,0,11)"
                 id="g266"><path
                   id="path268"
                   style="fill:none;stroke:#f5832b;stroke-width:0.3624;stroke-linecap:round;stroke-linejoin:round;stroke-miterlimit:10;stroke-dasharray:none;stroke-opacity:1"
                   d="m 27.793,0.5 c 0,0.18 -0.145,0.32 -0.32,0.32 -0.176,0 -0.321,-0.14 -0.321,-0.32 0,-0.176 0.145,-0.32 0.321,-0.32 0.175,0 0.32,0.144 0.32,0.32 z" /></g></g></g></g></g><g
         transform="translate(0,-0.673855)"
         id="g270"><g
           id="g272"><g
             clip-path="url(#clipPath276)"
             id="g274"><g
               id="g280"><path
                 id="path282"
                 style="fill:#f5822a;fill-opacity:1;fill-rule:nonzero;stroke:none"
                 d="m 27.793,7.938 c 0,0.16 -0.16,0.32 -0.32,0.32 -0.161,0 -0.321,-0.16 -0.321,-0.32 -0.078,-0.239 0.078,-0.321 0.321,-0.321 0.16,0 0.32,0.082 0.32,0.321" /></g></g></g></g><g
         transform="translate(0,-0.673855)"
         id="g284"><g
           id="g286"><g
             clip-path="url(#clipPath290)"
             id="g288"><g
               id="g294"><g
                 transform="matrix(1,0,0,-1,0,11)"
                 id="g296"><path
                   id="path298"
                   style="fill:none;stroke:#f5832b;stroke-width:0.3624;stroke-linecap:round;stroke-linejoin:round;stroke-miterlimit:10;stroke-dasharray:none;stroke-opacity:1"
                   d="m 27.793,3.062 c 0,0.176 -0.145,0.321 -0.32,0.321 -0.176,0 -0.321,-0.145 -0.321,-0.321 0,-0.179 0.145,-0.32 0.321,-0.32 0.175,0 0.32,0.141 0.32,0.32 z" /></g></g></g></g></g><g
         transform="translate(0,-0.673855)"
         id="g300"><g
           id="g302"><g
             clip-path="url(#clipPath306)"
             id="g304"><g
               id="g310"><path
                 id="path312"
                 style="fill:#f5822a;fill-opacity:1;fill-rule:nonzero;stroke:none"
                 d="m 27.793,5.379 c 0,0.16 -0.16,0.32 -0.32,0.32 -0.161,0 -0.321,-0.16 -0.321,-0.32 0,-0.16 0.16,-0.32 0.321,-0.32 0.16,0 0.32,0.16 0.32,0.32" /></g></g></g></g><g
         transform="translate(0,-0.673855)"
         id="g314"><g
           id="g316"><g
             clip-path="url(#clipPath320)"
             id="g318"><g
               id="g324"><g
                 transform="matrix(1,0,0,-1,0,11)"
                 id="g326"><path
                   id="path328"
                   style="fill:none;stroke:#f5832b;stroke-width:0.3624;stroke-linecap:round;stroke-linejoin:round;stroke-miterlimit:10;stroke-dasharray:none;stroke-opacity:1"
                   d="m 27.793,5.621 c 0,0.176 -0.145,0.32 -0.32,0.32 -0.176,0 -0.321,-0.144 -0.321,-0.32 0,-0.176 0.145,-0.32 0.321,-0.32 0.175,0 0.32,0.144 0.32,0.32 z" /></g></g></g></g></g><g
         transform="translate(0,-0.673855)"
         id="g330"><g
           id="g332"><g
             clip-path="url(#clipPath336)"
             id="g334"><g
               id="g340"><path
                 id="path342"
                 style="fill:#f5822a;fill-opacity:1;fill-rule:nonzero;stroke:none"
                 d="m 27.793,2.82 c 0,0.16 -0.16,0.321 -0.32,0.321 -0.161,0 -0.321,-0.161 -0.321,-0.321 0,-0.16 0.16,-0.32 0.321,-0.32 0.16,0 0.32,0.16 0.32,0.32" /></g></g></g></g><g
         transform="translate(0,-0.673855)"
         id="g344"><g
           id="g346"><g
             clip-path="url(#clipPath350)"
             id="g348"><g
               id="g354"><g
                 transform="matrix(1,0,0,-1,0,11)"
                 id="g356"><path
                   id="path358"
                   style="fill:none;stroke:#f5832b;stroke-width:0.3624;stroke-linecap:round;stroke-linejoin:round;stroke-miterlimit:10;stroke-dasharray:none;stroke-opacity:1"
                   d="m 27.793,8.18 c 0,0.179 -0.145,0.32 -0.32,0.32 -0.176,0 -0.321,-0.141 -0.321,-0.32 0,-0.176 0.145,-0.321 0.321,-0.321 0.175,0 0.32,0.145 0.32,0.321 z" /></g></g></g></g></g><path
         id="path360"
         style="fill:#f5822a;fill-opacity:1;fill-rule:nonzero;stroke:none"
         d="m 34.035,8.943 c 0,0.481 -0.398,0.801 -0.801,0.801 -0.48,0 -0.8,-0.398 -0.8,-0.801 0,-0.48 0.402,-0.8 0.8,-0.8 0.403,0 0.801,0.402 0.801,0.8" /><g
         transform="matrix(1,0,0,-1,0,10.326145)"
         id="g362"><path
           id="path364"
           style="fill:none;stroke:#f5832b;stroke-width:0.1816;stroke-linecap:round;stroke-linejoin:round;stroke-miterlimit:10;stroke-dasharray:none;stroke-opacity:1"
           d="m 33.957,1.383 c 0,0.441 -0.359,0.801 -0.801,0.801 -0.441,0 -0.801,-0.36 -0.801,-0.801 0,-0.442 0.36,-0.801 0.801,-0.801 0.442,0 0.801,0.359 0.801,0.801 z" /></g><path
         id="path366"
         style="fill:#227cb5;fill-opacity:1;fill-rule:nonzero;stroke:none"
         d="m 36.035,8.943 c 0,0.481 -0.398,0.801 -0.801,0.801 -0.48,0 -0.8,-0.398 -0.8,-0.801 0,-0.48 0.402,-0.8 0.8,-0.8 0.481,0 0.801,0.402 0.801,0.8" /><g
         transform="matrix(1,0,0,-1,0,10.326145)"
         id="g368"><path
           id="path370"
           style="fill:none;stroke:#227cb5;stroke-width:0.1816;stroke-linecap:round;stroke-linejoin:round;stroke-miterlimit:10;stroke-dasharray:none;stroke-opacity:1"
           d="m 36.035,1.383 c 0,0.441 -0.359,0.801 -0.801,0.801 -0.441,0 -0.8,-0.36 -0.8,-0.801 0,-0.442 0.359,-0.801 0.8,-0.801 0.442,0 0.801,0.359 0.801,0.801 z" /></g><g
         transform="matrix(1,0,0,-1,0,10.326145)"
         id="g372"><path
           id="path374"
           style="fill:none;stroke:#231f20;stroke-width:0.1816;stroke-linecap:round;stroke-linejoin:round;stroke-miterlimit:10;stroke-dasharray:none;stroke-opacity:1"
           d="m 31.957,1.383 c 0,0.441 -0.359,0.801 -0.801,0.801 -0.441,0 -0.801,-0.36 -0.801,-0.801 0,-0.442 0.36,-0.801 0.801,-0.801 0.442,0 0.801,0.359 0.801,0.801 z" /></g><path
         id="path376"
         style="fill:#227cb5;fill-opacity:1;fill-rule:nonzero;stroke:none"
         d="m 38.117,8.943 c 0,0.481 -0.402,0.801 -0.801,0.801 -0.48,0 -0.8,-0.398 -0.8,-0.801 0,-0.48 0.398,-0.8 0.8,-0.8 0.399,0 0.801,0.402 0.801,0.8" /><g
         transform="matrix(1,0,0,-1,0,10.326145)"
         id="g378"><path
           id="path380"
           style="fill:none;stroke:#227cb5;stroke-width:0.1816;stroke-linecap:round;stroke-linejoin:round;stroke-miterlimit:10;stroke-dasharray:none;stroke-opacity:1"
           d="m 38.117,1.383 c 0,0.441 -0.359,0.801 -0.801,0.801 -0.441,0 -0.8,-0.36 -0.8,-0.801 0,-0.442 0.359,-0.801 0.8,-0.801 0.442,0 0.801,0.359 0.801,0.801 z" /></g><path
         id="path382"
         style="fill:#f5822a;fill-opacity:1;fill-rule:nonzero;stroke:none"
         d="m 37.316,5.744 c -0.48,0 -0.8,-0.398 -0.8,-0.801 0,-0.48 0.398,-0.8 0.8,-0.8 0.481,0 0.801,0.402 0.801,0.8 0,0.403 -0.402,0.801 -0.801,0.801" /><g
         transform="matrix(1,0,0,-1,0,10.326145)"
         id="g384"><path
           id="path386"
           style="fill:none;stroke:#f5832b;stroke-width:0.1816;stroke-linecap:round;stroke-linejoin:round;stroke-miterlimit:10;stroke-dasharray:none;stroke-opacity:1"
           d="m 38.117,5.461 c 0,0.441 -0.359,0.801 -0.801,0.801 -0.441,0 -0.8,-0.36 -0.8,-0.801 0,-0.441 0.359,-0.801 0.8,-0.801 0.442,0 0.801,0.36 0.801,0.801 z" /></g><path
         id="path388"
         style="fill:#227cb5;fill-opacity:1;fill-rule:nonzero;stroke:none"
         d="m 37.316,7.744 c -0.48,0 -0.8,-0.398 -0.8,-0.801 0,-0.48 0.398,-0.8 0.8,-0.8 0.481,0 0.801,0.402 0.801,0.8 0,0.481 -0.402,0.801 -0.801,0.801" /><g
         transform="matrix(1,0,0,-1,0,10.326145)"
         id="g390"><path
           id="path392"
           style="fill:none;stroke:#227cb5;stroke-width:0.1816;stroke-linecap:round;stroke-linejoin:round;stroke-miterlimit:10;stroke-dasharray:none;stroke-opacity:1"
           d="m 38.117,3.383 c 0,0.441 -0.359,0.801 -0.801,0.801 -0.441,0 -0.8,-0.36 -0.8,-0.801 0,-0.442 0.359,-0.801 0.8,-0.801 0.442,0 0.801,0.359 0.801,0.801 z" /></g><g
         transform="matrix(1,0,0,-1,0,10.326145)"
         id="g394"><path
           id="path396"
           style="fill:none;stroke:#231f20;stroke-width:0.1816;stroke-linecap:round;stroke-linejoin:round;stroke-miterlimit:10;stroke-dasharray:none;stroke-opacity:1"
           d="m 38.117,7.543 c 0,0.441 -0.359,0.801 -0.801,0.801 -0.441,0 -0.8,-0.36 -0.8,-0.801 0,-0.441 0.359,-0.801 0.8,-0.801 0.442,0 0.801,0.36 0.801,0.801 z" /></g><path
         id="path398"
         style="fill:#227cb5;fill-opacity:1;fill-rule:nonzero;stroke:none"
         d="m 36.035,6.943 c 0,0.481 -0.398,0.801 -0.801,0.801 -0.48,0 -0.8,-0.398 -0.8,-0.801 0,-0.48 0.402,-0.8 0.8,-0.8 0.481,-0.079 0.801,0.32 0.801,0.8" /><g
         transform="matrix(1,0,0,-1,0,10.326145)"
         id="g400"><path
           id="path402"
           style="fill:none;stroke:#227cb5;stroke-width:0.1816;stroke-linecap:round;stroke-linejoin:round;stroke-miterlimit:10;stroke-dasharray:none;stroke-opacity:1"
           d="m 36.035,3.383 c 0,0.441 -0.359,0.801 -0.801,0.801 -0.441,0 -0.8,-0.36 -0.8,-0.801 0,-0.442 0.359,-0.801 0.8,-0.801 0.442,0 0.801,0.359 0.801,0.801 z" /></g><g
         transform="matrix(1,0,0,-1,0,10.326145)"
         id="g404"><path
           id="path406"
           style="fill:none;stroke:#231f20;stroke-width:0.1816;stroke-linecap:round;stroke-linejoin:round;stroke-miterlimit:10;stroke-dasharray:none;stroke-opacity:1"
           d="m 36.035,5.461 c 0,0.441 -0.359,0.801 -0.801,0.801 -0.441,0 -0.8,-0.36 -0.8,-0.801 0,-0.441 0.359,-0.801 0.8,-0.801 0.442,0 0.801,0.36 0.801,0.801 z" /></g><path
         id="path408"
         style="fill:#f5822a;fill-opacity:1;fill-rule:nonzero;stroke:none"
         d="m 35.234,3.666 c -0.48,0 -0.8,-0.402 -0.8,-0.801 0,-0.48 0.402,-0.801 0.8,-0.801 0.481,0 0.801,0.399 0.801,0.801 0,0.399 -0.32,0.801 -0.801,0.801" /><g
         transform="matrix(1,0,0,-1,0,10.326145)"
         id="g410"><path
           id="path412"
           style="fill:none;stroke:#f5832b;stroke-width:0.1816;stroke-linecap:round;stroke-linejoin:round;stroke-miterlimit:10;stroke-dasharray:none;stroke-opacity:1"
           d="m 36.035,7.543 c 0,0.441 -0.359,0.801 -0.801,0.801 -0.441,0 -0.8,-0.36 -0.8,-0.801 0,-0.441 0.359,-0.801 0.8,-0.801 0.442,0 0.801,0.36 0.801,0.801 z" /></g><g
         transform="matrix(1,0,0,-1,0,10.326145)"
         id="g414"><path
           id="path416"
           style="fill:none;stroke:#231f20;stroke-width:0.1816;stroke-linecap:round;stroke-linejoin:round;stroke-miterlimit:10;stroke-dasharray:none;stroke-opacity:1"
           d="m 33.957,3.383 c 0,0.441 -0.359,0.801 -0.801,0.801 -0.441,0 -0.801,-0.36 -0.801,-0.801 0,-0.442 0.36,-0.801 0.801,-0.801 0.442,0 0.801,0.359 0.801,0.801 z" /></g><path
         id="path418"
         style="fill:#f5822a;fill-opacity:1;fill-rule:nonzero;stroke:none"
         d="m 31.957,6.943 c 0,0.481 -0.402,0.801 -0.801,0.801 -0.48,0 -0.801,-0.398 -0.801,-0.801 0,-0.48 0.399,-0.8 0.801,-0.8 0.399,-0.079 0.801,0.32 0.801,0.8" /><g
         transform="matrix(1,0,0,-1,0,10.326145)"
         id="g420"><path
           id="path422"
           style="fill:none;stroke:#f5832b;stroke-width:0.1816;stroke-linecap:round;stroke-linejoin:round;stroke-miterlimit:10;stroke-dasharray:none;stroke-opacity:1"
           d="m 31.957,3.383 c 0,0.441 -0.359,0.801 -0.801,0.801 -0.441,0 -0.801,-0.36 -0.801,-0.801 0,-0.442 0.36,-0.801 0.801,-0.801 0.442,0 0.801,0.359 0.801,0.801 z" /></g><path
         id="path424"
         style="fill:#227cb5;fill-opacity:1;fill-rule:nonzero;stroke:none"
         d="m 33.957,4.865 c 0,0.481 -0.402,0.801 -0.801,0.801 -0.48,0 -0.801,-0.402 -0.801,-0.801 0,-0.48 0.399,-0.801 0.801,-0.801 0.399,0 0.801,0.321 0.801,0.801" /><g
         transform="matrix(1,0,0,-1,0,10.326145)"
         id="g426"><path
           id="path428"
           style="fill:none;stroke:#227cb5;stroke-width:0.1816;stroke-linecap:round;stroke-linejoin:round;stroke-miterlimit:10;stroke-dasharray:none;stroke-opacity:1"
           d="m 33.875,5.461 c 0,0.441 -0.359,0.801 -0.801,0.801 -0.441,0 -0.797,-0.36 -0.797,-0.801 0,-0.441 0.356,-0.801 0.797,-0.801 0.442,0 0.801,0.36 0.801,0.801 z" /></g><path
         id="path430"
         style="fill:#227cb5;fill-opacity:1;fill-rule:nonzero;stroke:none"
         d="m 33.957,2.783 c 0,0.481 -0.402,0.801 -0.801,0.801 -0.48,0 -0.801,-0.398 -0.801,-0.801 0,-0.48 0.399,-0.801 0.801,-0.801 0.399,0 0.801,0.403 0.801,0.801" /><g
         transform="matrix(1,0,0,-1,0,10.326145)"
         id="g432"><path
           id="path434"
           style="fill:none;stroke:#227cb5;stroke-width:0.1816;stroke-linecap:round;stroke-linejoin:round;stroke-miterlimit:10;stroke-dasharray:none;stroke-opacity:1"
           d="m 33.875,7.543 c 0,0.441 -0.359,0.801 -0.801,0.801 -0.441,0 -0.797,-0.36 -0.797,-0.801 0,-0.441 0.356,-0.801 0.797,-0.801 0.442,0 0.801,0.36 0.801,0.801 z" /></g><path
         id="path436"
         style="fill:#227cb5;fill-opacity:1;fill-rule:nonzero;stroke:none"
         d="m 31.957,4.865 c 0,0.481 -0.402,0.801 -0.801,0.801 -0.48,0 -0.801,-0.402 -0.801,-0.801 0,-0.48 0.399,-0.801 0.801,-0.801 0.399,0 0.801,0.321 0.801,0.801" /><g
         transform="matrix(1,0,0,-1,0,10.326145)"
         id="g438"><path
           id="path440"
           style="fill:none;stroke:#227cb5;stroke-width:0.1816;stroke-linecap:round;stroke-linejoin:round;stroke-miterlimit:10;stroke-dasharray:none;stroke-opacity:1"
           d="m 31.957,5.461 c 0,0.441 -0.359,0.801 -0.801,0.801 -0.441,0 -0.801,-0.36 -0.801,-0.801 0,-0.441 0.36,-0.801 0.801,-0.801 0.442,0 0.801,0.36 0.801,0.801 z" /></g><path
         id="path442"
         style="fill:#227cb5;fill-opacity:1;fill-rule:nonzero;stroke:none"
         d="m 31.957,2.783 c 0,0.481 -0.402,0.801 -0.801,0.801 -0.48,0 -0.801,-0.398 -0.801,-0.801 0,-0.48 0.399,-0.801 0.801,-0.801 0.399,0 0.801,0.403 0.801,0.801" /><g
         transform="matrix(1,0,0,-1,0,10.326145)"
         id="g444"><path
           id="path446"
           style="fill:none;stroke:#227cb5;stroke-width:0.1816;stroke-linecap:round;stroke-linejoin:round;stroke-miterlimit:10;stroke-dasharray:none;stroke-opacity:1"
           d="m 31.957,7.543 c 0,0.441 -0.359,0.801 -0.801,0.801 -0.441,0 -0.801,-0.36 -0.801,-0.801 0,-0.441 0.36,-0.801 0.801,-0.801 0.442,0 0.801,0.36 0.801,0.801 z" /></g><path
         id="path448"
         style="fill:#207cb6;fill-opacity:1;fill-rule:nonzero;stroke:none"
         d="m 10.145,9.377 -0.407,-1.078 0.797,0 -0.39,1.078 z m -0.172,0.297 0.328,0 0.844,-2.188 -0.313,0 -0.203,0.563 -0.984,0 -0.204,-0.563 -0.296,0 0.828,2.188 z" /><path
         id="path450"
         style="fill:#f5822a;fill-opacity:1;fill-rule:nonzero;stroke:none"
         d="m 12.797,9.502 0,-0.313 c -0.106,0.094 -0.215,0.161 -0.328,0.204 -0.117,0.05 -0.235,0.078 -0.36,0.078 -0.25,0 -0.445,-0.078 -0.578,-0.235 -0.125,-0.148 -0.187,-0.367 -0.187,-0.656 0,-0.293 0.062,-0.516 0.187,-0.672 0.133,-0.148 0.328,-0.219 0.578,-0.219 0.125,0 0.243,0.02 0.36,0.063 0.113,0.051 0.222,0.125 0.328,0.219 l 0,-0.313 C 12.691,7.584 12.582,7.525 12.469,7.486 12.352,7.455 12.227,7.439 12.094,7.439 c -0.336,0 -0.594,0.098 -0.782,0.297 -0.187,0.207 -0.281,0.489 -0.281,0.844 0,0.352 0.094,0.629 0.281,0.828 0.188,0.207 0.446,0.313 0.782,0.313 0.133,0 0.258,-0.024 0.375,-0.063 0.113,-0.031 0.222,-0.086 0.328,-0.156 z" /><path
         id="path452"
         style="fill:#207cb6;fill-opacity:1;fill-rule:nonzero;stroke:none"
         d="m 13.641,9.377 -0.407,-1.078 0.797,0 -0.39,1.078 z m -0.172,0.297 0.328,0 0.844,-2.188 -0.313,0 -0.203,0.563 -0.984,0 -0.203,-0.563 -0.297,0 0.828,2.188 z" /><path
         id="path454"
         style="fill:#f5822a;fill-opacity:1;fill-rule:nonzero;stroke:none"
         d="m 16.297,9.502 0,-0.313 c -0.106,0.094 -0.215,0.161 -0.328,0.204 -0.117,0.05 -0.235,0.078 -0.36,0.078 -0.25,0 -0.445,-0.078 -0.578,-0.235 -0.125,-0.148 -0.187,-0.367 -0.187,-0.656 0,-0.293 0.062,-0.516 0.187,-0.672 0.133,-0.148 0.328,-0.219 0.578,-0.219 0.125,0 0.243,0.02 0.36,0.063 0.113,0.051 0.222,0.125 0.328,0.219 l 0,-0.313 C 16.191,7.584 16.082,7.525 15.969,7.486 15.852,7.455 15.727,7.439 15.594,7.439 15.258,7.439 15,7.537 14.812,7.736 14.625,7.943 14.531,8.225 14.531,8.58 c 0,0.352 0.094,0.629 0.281,0.828 0.188,0.207 0.446,0.313 0.782,0.313 0.133,0 0.258,-0.024 0.375,-0.063 0.113,-0.031 0.222,-0.086 0.328,-0.156 z" /><path
         id="path456"
         style="fill:#231f20;fill-opacity:1;fill-rule:nonzero;stroke:none"
         d="m 16.434,7.861 0.296,0 0,-0.375 -0.296,0 0,0.375 z m 0.925,0 0.297,0 0,-0.375 -0.297,0 0,0.375 z" /><path
         id="path458"
         style="fill:#231f20;fill-opacity:1;fill-rule:nonzero;stroke:none"
         d="m 18.281,7.861 0.297,0 0,-0.375 -0.297,0 0,0.375 z" /><path
         id="path460"
         style="fill:#f5822a;fill-opacity:1;fill-rule:nonzero;stroke:none"
         d="m 9.102,6.771 1.859,0 0,-0.25 -0.781,0 0,-1.937 -0.297,0 0,1.937 -0.781,0 0,0.25 z m 3.562,-0.171 0,-0.313 c -0.105,0.094 -0.215,0.16 -0.328,0.203 -0.117,0.051 -0.234,0.078 -0.359,0.078 -0.25,0 -0.446,-0.078 -0.579,-0.234 -0.125,-0.148 -0.187,-0.367 -0.187,-0.656 0,-0.293 0.062,-0.516 0.187,-0.672 0.133,-0.149 0.329,-0.219 0.579,-0.219 0.125,0 0.242,0.02 0.359,0.063 0.113,0.05 0.223,0.125 0.328,0.218 l 0,-0.312 C 12.559,4.682 12.449,4.623 12.336,4.584 12.219,4.553 12.094,4.537 11.961,4.537 c -0.336,0 -0.594,0.098 -0.781,0.297 -0.188,0.207 -0.282,0.488 -0.282,0.844 0,0.351 0.094,0.629 0.282,0.828 0.187,0.207 0.445,0.312 0.781,0.312 0.133,0 0.258,-0.023 0.375,-0.062 C 12.449,6.725 12.559,6.67 12.664,6.6 Z" /><path
         id="path462"
         style="fill:#207cb6;fill-opacity:1;fill-rule:nonzero;stroke:none"
         d="m 13.645,6.475 -0.407,-1.079 0.797,0 -0.39,1.079 z m -0.172,0.296 0.328,0 0.844,-2.187 -0.313,0 -0.203,0.562 -0.984,0 -0.204,-0.562 -0.296,0 0.828,2.187 z" /><path
         id="path464"
         style="fill:#f5822a;fill-opacity:1;fill-rule:nonzero;stroke:none"
         d="m 16.301,6.6 0,-0.313 c -0.106,0.094 -0.215,0.16 -0.328,0.203 -0.118,0.051 -0.235,0.078 -0.36,0.078 -0.25,0 -0.445,-0.078 -0.578,-0.234 -0.125,-0.148 -0.187,-0.367 -0.187,-0.656 0,-0.293 0.062,-0.516 0.187,-0.672 0.133,-0.149 0.328,-0.219 0.578,-0.219 0.125,0 0.242,0.02 0.36,0.063 0.113,0.05 0.222,0.125 0.328,0.218 l 0,-0.312 C 16.195,4.682 16.086,4.623 15.973,4.584 15.855,4.553 15.73,4.537 15.598,4.537 c -0.336,0 -0.594,0.098 -0.782,0.297 -0.187,0.207 -0.281,0.488 -0.281,0.844 0,0.351 0.094,0.629 0.281,0.828 0.188,0.207 0.446,0.312 0.782,0.312 0.132,0 0.257,-0.023 0.375,-0.062 C 16.086,6.725 16.195,6.67 16.301,6.6 Z" /><path
         id="path466"
         style="fill:#231f20;fill-opacity:1;fill-rule:nonzero;stroke:none"
         d="m 16.438,4.959 0.296,0 0,-0.375 -0.296,0 0,0.375 z m 0.921,0 0.297,0 0,-0.375 -0.297,0 0,0.375 z" /><path
         id="path468"
         style="fill:#231f20;fill-opacity:1;fill-rule:nonzero;stroke:none"
         d="m 18.285,4.959 0.297,0 0,-0.375 -0.297,0 0,0.375 z" /><path
         id="path470"
         style="fill:#207cb6;fill-opacity:1;fill-rule:nonzero;stroke:none"
         d="m 10.152,3.576 -0.406,-1.078 0.797,0 -0.391,1.078 z m -0.172,0.297 0.329,0 0.843,-2.187 -0.312,0 -0.203,0.562 -0.985,0 -0.203,-0.562 -0.297,0 0.828,2.187 z" /><path
         id="path472"
         style="fill:#f5822a;fill-opacity:1;fill-rule:nonzero;stroke:none"
         d="m 12.809,3.701 0,-0.312 C 12.703,3.482 12.594,3.549 12.48,3.592 12.363,3.643 12.246,3.67 12.121,3.67 11.871,3.67 11.676,3.592 11.543,3.436 11.418,3.287 11.355,3.068 11.355,2.779 c 0,-0.293 0.063,-0.515 0.188,-0.672 0.133,-0.148 0.328,-0.218 0.578,-0.218 0.125,0 0.242,0.019 0.359,0.062 0.114,0.051 0.223,0.125 0.329,0.219 l 0,-0.313 C 12.703,1.783 12.594,1.725 12.48,1.686 12.363,1.654 12.238,1.639 12.105,1.639 c -0.335,0 -0.593,0.097 -0.781,0.297 -0.187,0.207 -0.281,0.488 -0.281,0.843 0,0.352 0.094,0.629 0.281,0.828 0.188,0.207 0.446,0.313 0.781,0.313 0.133,0 0.258,-0.024 0.375,-0.063 0.114,-0.031 0.223,-0.086 0.329,-0.156 z" /><path
         id="path474"
         style="fill:#207cb6;fill-opacity:1;fill-rule:nonzero;stroke:none"
         d="m 13.648,3.576 -0.406,-1.078 0.797,0 -0.391,1.078 z m -0.171,0.297 0.328,0 0.843,-2.187 -0.312,0 -0.203,0.562 -0.985,0 -0.203,-0.562 -0.297,0 0.829,2.187 z m 2.855,-1.875 0,0.594 -0.484,0 0,0.234 0.781,0 0,-0.937 C 16.512,1.803 16.387,1.74 16.254,1.701 16.117,1.662 15.973,1.639 15.816,1.639 c -0.343,0 -0.617,0.097 -0.812,0.297 -0.188,0.207 -0.281,0.488 -0.281,0.843 0,0.352 0.093,0.629 0.281,0.828 0.195,0.207 0.469,0.313 0.812,0.313 0.133,0 0.266,-0.024 0.391,-0.063 0.133,-0.031 0.254,-0.086 0.359,-0.156 l 0,-0.312 C 16.461,3.482 16.348,3.549 16.223,3.592 16.098,3.643 15.965,3.67 15.832,3.67 15.57,3.67 15.371,3.592 15.238,3.436 15.102,3.287 15.035,3.068 15.035,2.779 c 0,-0.293 0.067,-0.515 0.203,-0.672 0.133,-0.148 0.332,-0.218 0.594,-0.218 0.102,0 0.195,0.004 0.281,0.015 0.082,0.02 0.157,0.051 0.219,0.094 z" /><path
         id="path476"
         style="fill:#231f20;fill-opacity:1;fill-rule:nonzero;stroke:none"
         d="m 16.441,2.061 0.297,0 0,-0.375 -0.297,0 0,0.375 z m 0.922,0 0.297,0 0,-0.375 -0.297,0 0,0.375 z" /><path
         id="path478"
         style="fill:#231f20;fill-opacity:1;fill-rule:nonzero;stroke:none"
         d="m 18.285,2.061 0.297,0 0,-0.375 -0.297,0 0,0.375 z" /><path
         id="path480"
         style="fill:#000000;fill-opacity:1;fill-rule:nonzero;stroke:none"
         d="m 0.988,8.842 0,-2.75 1.235,0 c 0.457,0 0.812,0.117 1.062,0.359 0.258,0.238 0.391,0.578 0.391,1.016 0,0.437 -0.133,0.773 -0.391,1.015 -0.25,0.239 -0.605,0.36 -1.062,0.36 l -1.235,0 z m -0.984,0.812 2.219,0 c 0.82,0 1.441,-0.187 1.859,-0.562 C 4.496,8.725 4.707,8.186 4.707,7.467 4.707,6.748 4.496,6.205 4.082,5.842 3.664,5.475 3.043,5.295 2.223,5.295 l -1.235,0 0,-2.938 -0.984,0 0,7.297 z" /><path
         id="path482"
         style="fill:#000000;fill-opacity:1;fill-rule:nonzero;stroke:none"
         d="M 8.148,9.951 C 7.719,9.201 7.398,8.455 7.18,7.717 6.969,6.986 6.867,6.248 6.867,5.498 6.867,4.748 6.969,4.002 7.18,3.264 7.398,2.521 7.719,1.787 8.148,1.045 l -0.781,0 C 6.887,1.807 6.523,2.553 6.273,3.295 6.031,4.033 5.914,4.768 5.914,5.498 c 0,0.727 0.117,1.457 0.359,2.188 0.239,0.738 0.602,1.492 1.094,2.265 l 0.781,0 z" /><path
         id="path484"
         style="fill:#000000;fill-opacity:1;fill-rule:nonzero;stroke:none"
         d="m 19.777,9.998 0.828,0 0,-10 -0.828,0 0,10 z" /><path
         id="path486"
         style="fill:#000000;fill-opacity:1;fill-rule:nonzero;stroke:none"
         d="m 38.605,9.951 0.782,0 C 39.875,9.178 40.238,8.424 40.48,7.686 40.73,6.955 40.855,6.225 40.855,5.498 40.855,4.768 40.73,4.033 40.48,3.295 40.238,2.553 39.875,1.807 39.387,1.045 l -0.782,0 c 0.438,0.742 0.758,1.476 0.969,2.219 0.219,0.738 0.328,1.484 0.328,2.234 0,0.75 -0.109,1.488 -0.328,2.219 -0.211,0.738 -0.531,1.484 -0.969,2.234 z" /></g></g></svg>