<?xml version="1.0" encoding="UTF-8" standalone="no"?>
<svg
   xmlns:dc="http://purl.org/dc/elements/1.1/"
   xmlns:cc="http://creativecommons.org/ns#"
   xmlns:rdf="http://www.w3.org/1999/02/22-rdf-syntax-ns#"
   xmlns:svg="http://www.w3.org/2000/svg"
   xmlns="http://www.w3.org/2000/svg"
   viewBox="0 0 345 137.5"
   height="137.5"
   width="345"
   xml:space="preserve"
   version="1.1"
   id="svg2"><metadata
     id="metadata8"><rdf:RDF><cc:Work
         rdf:about=""><dc:format>image/svg+xml</dc:format><dc:type
           rdf:resource="http://purl.org/dc/dcmitype/StillImage" /><dc:title></dc:title></cc:Work></rdf:RDF></metadata><defs
     id="defs6" /><g
     transform="matrix(0.125,0,0,-0.125,0,137.5)"
     id="g10"><g
       id="g12"><path
         id="path14"
         style="fill:none;stroke:#000000;stroke-width:20;stroke-linecap:butt;stroke-linejoin:miter;stroke-miterlimit:3.89999008;stroke-dasharray:none;stroke-opacity:1"
         d="m 89.9353,560.935 c 0,193.875 157.1607,351.035 351.0347,351.035 193.874,0 351.036,-157.16 351.036,-351.035 C 792.006,367.063 634.844,209.9 440.97,209.9 247.096,209.9 89.9353,367.063 89.9353,560.935 Z" /><path
         id="path16"
         style="fill:none;stroke:#000000;stroke-width:20;stroke-linecap:butt;stroke-linejoin:miter;stroke-miterlimit:3.89999008;stroke-dasharray:none;stroke-opacity:1"
         d="m 916.038,661.438 945.102,0" /><path
         id="path18"
         style="fill:#000000;fill-opacity:1;fill-rule:evenodd;stroke:none"
         d="m 1861.14,661.438 -26.67,40 106.67,-40 -106.67,-40 26.67,40" /><path
         id="path20"
         style="fill:none;stroke:#000000;stroke-width:20;stroke-linecap:butt;stroke-linejoin:miter;stroke-miterlimit:3.89999008;stroke-dasharray:none;stroke-opacity:1"
         d="m 1861.14,443.43 -945.102,0" /><path
         id="path22"
         style="fill:#000000;fill-opacity:1;fill-rule:evenodd;stroke:none"
         d="m 916.038,443.43 26.666,-40 -106.666,40 106.666,40 -26.666,-40" /><g
         transform="scale(10,10)"
         id="g24"><text
           id="text26"
           style="font-style:oblique;font-variant:normal;font-weight:bold;font-size:16.53319931px;font-family:Helvetica;-inkscape-font-specification:Helvetica-BoldOblique;writing-mode:lr-tb;fill:#000000;fill-opacity:1;fill-rule:nonzero;stroke:none"
           transform="matrix(1,0,0,-1,132.608,78.4834)"><tspan
             id="tspan28"
             y="0"
             x="0">m</tspan></text>
<text
           id="text30"
           style="font-style:oblique;font-variant:normal;font-weight:bold;font-size:14.17129993px;font-family:Helvetica;-inkscape-font-specification:Helvetica-BoldOblique;writing-mode:lr-tb;fill:#000000;fill-opacity:1;fill-rule:nonzero;stroke:none"
           transform="matrix(1,0,0,-1,147.306,72.87395)"><tspan
             id="tspan32"
             y="0"
             x="0">2</tspan></text>
<text
           id="text34"
           style="font-style:oblique;font-variant:normal;font-weight:bold;font-size:16.53319931px;font-family:Helvetica;-inkscape-font-specification:Helvetica-BoldOblique;writing-mode:lr-tb;fill:#000000;fill-opacity:1;fill-rule:nonzero;stroke:none"
           transform="matrix(1,0,0,-1,132.943,27.85425)"><tspan
             id="tspan36"
             y="0"
             x="0">m</tspan></text>
<text
           id="text38"
           style="font-style:oblique;font-variant:normal;font-weight:bold;font-size:14.17129993px;font-family:Helvetica;-inkscape-font-specification:Helvetica-BoldOblique;writing-mode:lr-tb;fill:#000000;fill-opacity:1;fill-rule:nonzero;stroke:none"
           transform="matrix(1,0,0,-1,147.641,22.2448)"><tspan
             id="tspan40"
             y="0"
             x="0">1</tspan></text>
<text
           id="text42"
           style="font-style:oblique;font-variant:normal;font-weight:bold;font-size:20px;font-family:Helvetica;-inkscape-font-specification:Helvetica-BoldOblique;writing-mode:lr-tb;fill:#000000;fill-opacity:1;fill-rule:nonzero;stroke:none"
           transform="matrix(1,0,0,-1,29,48.1399)"><tspan
             id="tspan44"
             y="0"
             x="0">N</tspan></text>
<text
           id="text46"
           style="font-style:oblique;font-variant:normal;font-weight:bold;font-size:14px;font-family:Helvetica;-inkscape-font-specification:Helvetica-BoldOblique;writing-mode:lr-tb;fill:#000000;fill-opacity:1;fill-rule:nonzero;stroke:none"
           transform="matrix(1,0,0,-1,43.44,43.1399)"><tspan
             id="tspan48"
             y="0"
             x="0">e</tspan></text>
<text
           id="text50"
           style="font-style:oblique;font-variant:normal;font-weight:bold;font-size:12px;font-family:Helvetica;-inkscape-font-specification:Helvetica-BoldOblique;writing-mode:lr-tb;fill:#000000;fill-opacity:1;fill-rule:nonzero;stroke:none"
           transform="matrix(1,0,0,-1,47.02416,60.1399)"><tspan
             id="tspan52"
             y="0"
             x="0 3.9960001 10.668">(1)</tspan></text>
<text
           id="text54"
           style="font-style:oblique;font-variant:normal;font-weight:bold;font-size:20px;font-family:Helvetica;-inkscape-font-specification:Helvetica-BoldOblique;writing-mode:lr-tb;fill:#000000;fill-opacity:1;fill-rule:nonzero;stroke:none"
           transform="matrix(1,0,0,-1,215.00016,48.1399)"><tspan
             id="tspan56"
             y="0"
             x="0">N</tspan></text>
<text
           id="text58"
           style="font-style:oblique;font-variant:normal;font-weight:bold;font-size:14px;font-family:Helvetica;-inkscape-font-specification:Helvetica-BoldOblique;writing-mode:lr-tb;fill:#000000;fill-opacity:1;fill-rule:nonzero;stroke:none"
           transform="matrix(1,0,0,-1,229.44016,43.1399)"><tspan
             id="tspan60"
             y="0"
             x="0">e</tspan></text>
<text
           id="text62"
           style="font-style:oblique;font-variant:normal;font-weight:bold;font-size:12px;font-family:Helvetica;-inkscape-font-specification:Helvetica-BoldOblique;writing-mode:lr-tb;fill:#000000;fill-opacity:1;fill-rule:nonzero;stroke:none"
           transform="matrix(1,0,0,-1,233.02432,60.1399)"><tspan
             id="tspan64"
             y="0"
             x="0 3.9960001 10.668">(2)</tspan></text>
</g><path
         id="path66"
         style="fill:none;stroke:#000000;stroke-width:20;stroke-linecap:butt;stroke-linejoin:miter;stroke-miterlimit:3.89999008;stroke-dasharray:none;stroke-opacity:1"
         d="m 1959.93,560.935 c 0,193.875 157.17,351.035 351.04,351.035 193.87,0 351.04,-157.16 351.04,-351.035 0,-193.872 -157.17,-351.035 -351.04,-351.035 -193.87,0 -351.04,157.163 -351.04,351.035 z" /></g></g></svg>