<?xml version="1.0" encoding="UTF-8" standalone="no"?>
<svg
   xmlns:dc="http://purl.org/dc/elements/1.1/"
   xmlns:cc="http://creativecommons.org/ns#"
   xmlns:rdf="http://www.w3.org/1999/02/22-rdf-syntax-ns#"
   xmlns:svg="http://www.w3.org/2000/svg"
   xmlns="http://www.w3.org/2000/svg"
   viewBox="0 0 229.24126 188.64993"
   height="188.64993"
   width="229.24126"
   xml:space="preserve"
   version="1.1"
   id="svg2"><metadata
     id="metadata8"><rdf:RDF><cc:Work
         rdf:about=""><dc:format>image/svg+xml</dc:format><dc:type
           rdf:resource="http://purl.org/dc/dcmitype/StillImage" /><dc:title></dc:title></cc:Work></rdf:RDF></metadata><defs
     id="defs6"><clipPath
       id="clipPath40"
       clipPathUnits="userSpaceOnUse"><path
         id="path42"
         d="m 0,150.92 183.395,0 0,-150.918 L 0,0.002 0,150.92 Z" /></clipPath><clipPath
       id="clipPath50"
       clipPathUnits="userSpaceOnUse"><path
         id="path52"
         d="m 156,149 4,0 0,2 -4,0 0,-2 z" /></clipPath></defs><g
     transform="matrix(1.25,0,0,-1.25,0,188.64994)"
     id="g10"><g
       id="g12"><path
         id="path14"
         style="fill:#231f20;fill-opacity:1;fill-rule:nonzero;stroke:none"
         d="m 39.652,6.705 c 0,0.996 -0.8,1.805 -1.8,1.805 -0.997,0 -1.801,-0.809 -1.801,-1.805 0,-0.992 0.804,-1.801 1.801,-1.801 1,0 1.8,0.809 1.8,1.801" /><path
         id="path16"
         style="fill:#231f20;fill-opacity:1;fill-rule:nonzero;stroke:none"
         d="m 87.707,30.732 c 0,0.997 -0.805,1.801 -1.801,1.801 -0.996,0 -1.804,-0.804 -1.804,-1.801 0,-0.992 0.808,-1.8 1.804,-1.8 0.996,0 1.801,0.808 1.801,1.8" /><path
         id="path18"
         style="fill:#231f20;fill-opacity:1;fill-rule:nonzero;stroke:none"
         d="m 135.758,78.787 c 0,0.992 -0.805,1.801 -1.801,1.801 -0.996,0 -1.801,-0.809 -1.801,-1.801 0,-0.996 0.805,-1.801 1.801,-1.801 0.996,0 1.801,0.805 1.801,1.801" /><path
         id="path20"
         style="fill:#231f20;fill-opacity:1;fill-rule:nonzero;stroke:none"
         d="m 63.68,54.76 c 0,0.992 -0.809,1.801 -1.801,1.801 -0.996,0 -1.801,-0.809 -1.801,-1.801 0,-0.996 0.805,-1.801 1.801,-1.801 0.992,0 1.801,0.805 1.801,1.801" /><path
         id="path22"
         style="fill:#231f20;fill-opacity:1;fill-rule:nonzero;stroke:none"
         d="m 99.719,126.838 c 0,0.996 -0.809,1.801 -1.801,1.801 -0.996,0 -1.801,-0.805 -1.801,-1.801 0,-0.992 0.805,-1.801 1.801,-1.801 0.992,0 1.801,0.809 1.801,1.801" /><path
         id="path24"
         style="fill:#231f20;fill-opacity:1;fill-rule:nonzero;stroke:none"
         d="m 38.238,2.631 c 0.055,0.219 0.246,0.996 0.836,0.996 0.043,0 0.246,0 0.426,-0.105 -0.238,-0.043 -0.41,-0.254 -0.41,-0.458 0,-0.132 0.094,-0.296 0.32,-0.296 0.188,0 0.457,0.152 0.457,0.492 0,0.437 -0.5,0.554 -0.781,0.554 -0.492,0 -0.781,-0.445 -0.887,-0.64 -0.207,0.555 -0.664,0.64 -0.91,0.64 -0.875,0 -1.355,-1.085 -1.355,-1.296 0,-0.086 0.086,-0.086 0.105,-0.086 0.066,0 0.094,0.015 0.106,0.093 0.289,0.891 0.843,1.102 1.128,1.102 0.161,0 0.457,-0.074 0.457,-0.563 0,-0.261 -0.14,-0.824 -0.457,-2.003 -0.132,-0.524 -0.425,-0.875 -0.796,-0.875 -0.051,0 -0.247,0 -0.426,0.109 0.215,0.039 0.398,0.219 0.398,0.453 0,0.231 -0.183,0.297 -0.308,0.297 -0.254,0 -0.465,-0.223 -0.465,-0.492 0,-0.387 0.418,-0.555 0.789,-0.555 0.558,0 0.859,0.59 0.883,0.641 0.105,-0.309 0.41,-0.641 0.914,-0.641 0.867,0 1.347,1.086 1.347,1.297 0,0.086 -0.078,0.086 -0.105,0.086 -0.074,0 -0.094,-0.035 -0.109,-0.094 -0.278,-0.898 -0.848,-1.101 -1.118,-1.101 -0.328,0 -0.465,0.269 -0.465,0.554 0,0.184 0.051,0.371 0.141,0.742 l 0.289,1.149" /><path
         id="path26"
         style="fill:#231f20;fill-opacity:1;fill-rule:nonzero;stroke:none"
         d="m 87.75,27.283 c 0.035,0.121 0.035,0.137 0.035,0.196 0,0.152 -0.121,0.226 -0.246,0.226 -0.082,0 -0.219,-0.051 -0.297,-0.176 C 87.227,27.486 87.16,27.225 87.129,27.072 87.07,26.854 87.012,26.631 86.961,26.4 L 86.578,24.885 C 86.547,24.76 86.184,24.17 85.629,24.17 c -0.43,0 -0.524,0.371 -0.524,0.684 0,0.386 0.145,0.91 0.43,1.652 0.133,0.344 0.168,0.433 0.168,0.605 0,0.375 -0.269,0.688 -0.691,0.688 -0.797,0 -1.114,-1.223 -1.114,-1.293 0,-0.086 0.09,-0.086 0.106,-0.086 0.082,0 0.094,0.016 0.137,0.148 0.222,0.793 0.562,1.047 0.847,1.047 0.071,0 0.211,0 0.211,-0.269 0,-0.207 -0.086,-0.43 -0.14,-0.59 -0.34,-0.891 -0.493,-1.375 -0.493,-1.77 0,-0.746 0.528,-1 1.028,-1 0.328,0 0.617,0.145 0.847,0.379 -0.109,-0.437 -0.207,-0.851 -0.543,-1.297 -0.218,-0.285 -0.539,-0.531 -0.925,-0.531 -0.118,0 -0.5,0.027 -0.645,0.356 0.137,0 0.246,0 0.367,0.097 0.082,0.078 0.164,0.188 0.164,0.348 0,0.262 -0.226,0.297 -0.308,0.297 -0.196,0 -0.473,-0.137 -0.473,-0.551 0,-0.422 0.371,-0.73 0.895,-0.73 0.863,0 1.73,0.761 1.968,1.718 l 0.809,3.211" /><path
         id="path28"
         style="fill:#231f20;fill-opacity:1;fill-rule:nonzero;stroke:none"
         d="m 132.922,72.838 c 0.453,0.484 0.699,0.695 1,0.957 0,0.008 0.523,0.457 0.824,0.758 0.805,0.785 0.988,1.187 0.988,1.222 0,0.082 -0.078,0.082 -0.093,0.082 -0.055,0 -0.082,-0.015 -0.125,-0.093 -0.254,-0.403 -0.43,-0.535 -0.629,-0.535 -0.207,0 -0.305,0.125 -0.434,0.265 -0.156,0.199 -0.305,0.367 -0.582,0.367 -0.629,0 -1.016,-0.785 -1.016,-0.964 0,-0.04 0.024,-0.09 0.098,-0.09 0.078,0 0.094,0.039 0.109,0.09 0.165,0.39 0.653,0.398 0.723,0.398 0.172,0 0.332,-0.063 0.527,-0.129 0.34,-0.125 0.43,-0.125 0.649,-0.125 -0.305,-0.363 -1.012,-0.969 -1.172,-1.102 l -0.758,-0.707 c -0.57,-0.562 -0.867,-1.043 -0.867,-1.105 0,-0.082 0.086,-0.082 0.102,-0.082 0.07,0 0.082,0.016 0.136,0.109 0.192,0.293 0.446,0.524 0.715,0.524 0.192,0 0.278,-0.074 0.492,-0.321 0.141,-0.179 0.289,-0.312 0.536,-0.312 0.835,0 1.32,1.07 1.32,1.297 0,0.043 -0.031,0.086 -0.102,0.086 -0.074,0 -0.09,-0.051 -0.117,-0.11 -0.191,-0.546 -0.73,-0.711 -1.008,-0.711 -0.168,0 -0.324,0.051 -0.5,0.114 -0.285,0.105 -0.406,0.144 -0.586,0.144 -0.015,0 -0.152,0 -0.226,-0.027" /><path
         id="path30"
         style="fill:#231f20;fill-opacity:1;fill-rule:nonzero;stroke:none"
         d="m 62.828,51.463 c 0,0.168 -0.121,0.305 -0.316,0.305 -0.227,0 -0.453,-0.219 -0.453,-0.45 0,-0.156 0.121,-0.3 0.32,-0.3 0.191,0 0.449,0.195 0.449,0.445 z m -0.644,-3.164 c 0.101,0.242 0.101,0.262 0.187,0.488 0.067,0.164 0.113,0.285 0.113,0.445 0,0.379 -0.273,0.692 -0.695,0.692 -0.789,0 -1.109,-1.223 -1.109,-1.301 0,-0.082 0.086,-0.082 0.101,-0.082 0.082,0 0.09,0.02 0.133,0.152 0.227,0.793 0.566,1.043 0.852,1.043 0.07,0 0.211,0 0.211,-0.265 0,-0.18 -0.059,-0.356 -0.094,-0.442 -0.067,-0.218 -0.445,-1.195 -0.582,-1.558 -0.082,-0.215 -0.192,-0.496 -0.192,-0.672 0,-0.395 0.289,-0.692 0.688,-0.692 0.797,0 1.105,1.223 1.105,1.297 0,0.086 -0.074,0.086 -0.101,0.086 -0.082,0 -0.082,-0.023 -0.125,-0.152 -0.149,-0.531 -0.43,-1.043 -0.86,-1.043 -0.14,0 -0.203,0.086 -0.203,0.277 0,0.211 0.051,0.332 0.246,0.84 l 0.329,0.887" /><path
         id="path32"
         style="fill:#231f20;fill-opacity:1;fill-rule:nonzero;stroke:none"
         d="m 99.289,123.51 c 0,0.156 -0.113,0.301 -0.316,0.301 -0.196,0 -0.45,-0.196 -0.45,-0.446 0,-0.168 0.118,-0.301 0.313,-0.301 0.23,0 0.453,0.219 0.453,0.446 z m -1.691,-5.684 c -0.16,-0.64 -0.563,-1.121 -1.036,-1.121 -0.05,0 -0.175,0 -0.328,0.074 0.254,0.059 0.379,0.278 0.379,0.446 0,0.136 -0.09,0.297 -0.32,0.297 -0.207,0 -0.453,-0.176 -0.453,-0.481 0,-0.336 0.34,-0.519 0.742,-0.519 0.59,0 1.371,0.445 1.582,1.277 l 0.774,3.082 c 0.039,0.168 0.039,0.285 0.039,0.312 0,0.481 -0.348,0.774 -0.774,0.774 -0.855,0 -1.336,-1.219 -1.336,-1.297 0,-0.086 0.086,-0.086 0.098,-0.086 0.074,0 0.086,0.012 0.156,0.172 0.207,0.512 0.598,1.027 1.059,1.027 0.121,0 0.269,-0.035 0.269,-0.39 0,-0.192 -0.027,-0.282 -0.058,-0.426 l -0.793,-3.145" /><path
         id="path34"
         style="fill:none;stroke:#231f20;stroke-width:0.47499999;stroke-linecap:butt;stroke-linejoin:miter;stroke-miterlimit:10;stroke-dasharray:none;stroke-opacity:1"
         d="m 157.984,6.705 0,143.774" /></g><g
       id="g36"><g
         clip-path="url(#clipPath40)"
         id="g38"><g
           transform="translate(0,-0.0800476)"
           id="g44"><g
             id="g46"><g
               clip-path="url(#clipPath50)"
               id="g48"><g
                 id="g54"><path
                   id="path56"
                   style="fill:none;stroke:#231f20;stroke-width:0.38;stroke-linecap:round;stroke-linejoin:round;stroke-miterlimit:10;stroke-dasharray:none;stroke-opacity:1"
                   d="m 156.637,149.547 c 0.504,0.082 1.261,1.012 1.347,1.262 0.082,-0.25 0.844,-1.18 1.352,-1.262" /></g></g></g></g><path
           id="path58"
           style="fill:none;stroke:#c9c8c8;stroke-width:0.47499999;stroke-linecap:butt;stroke-linejoin:miter;stroke-miterlimit:10;stroke-dasharray:2.5333, 2.5333;stroke-dashoffset:0;stroke-opacity:1"
           d="m 157.984,6.705 -118.164,0" /><path
           id="path60"
           style="fill:none;stroke:#231f20;stroke-width:0.47499999;stroke-linecap:butt;stroke-linejoin:miter;stroke-miterlimit:10;stroke-dasharray:none;stroke-opacity:1"
           d="m 155.582,6.705 4.805,0" /><path
           id="path62"
           style="fill:#231f20;fill-opacity:1;fill-rule:nonzero;stroke:none"
           d="m 162.691,7.951 0.793,0 c 0.168,0 0.25,0 0.25,0.168 0,0.094 -0.082,0.094 -0.234,0.094 l -0.742,0 c 0.304,1.195 0.344,1.363 0.344,1.414 0,0.141 -0.098,0.227 -0.243,0.227 -0.023,0 -0.257,-0.008 -0.336,-0.305 l -0.328,-1.336 -0.789,0 c -0.168,0 -0.254,0 -0.254,-0.16 0,-0.102 0.067,-0.102 0.239,-0.102 l 0.742,0 c -0.61,-2.39 -0.645,-2.539 -0.645,-2.687 0,-0.453 0.321,-0.774 0.774,-0.774 0.859,0 1.34,1.227 1.34,1.297 0,0.082 -0.067,0.082 -0.102,0.082 -0.074,0 -0.082,-0.023 -0.121,-0.113 -0.363,-0.879 -0.813,-1.082 -1.098,-1.082 -0.176,0 -0.261,0.109 -0.261,0.387 0,0.203 0.019,0.261 0.05,0.406 l 0.621,2.484" /><path
           id="path64"
           style="fill:#231f20;fill-opacity:1;fill-rule:nonzero;stroke:none"
           d="m 165.496,3.943 c -0.058,-0.199 -0.258,-0.527 -0.562,-0.527 -0.02,0 -0.2,0 -0.325,0.09 0.246,0.074 0.262,0.289 0.262,0.32 0,0.137 -0.098,0.223 -0.238,0.223 -0.164,0 -0.336,-0.141 -0.336,-0.363 0,-0.297 0.332,-0.434 0.625,-0.434 0.269,0 0.519,0.172 0.664,0.426 0.148,-0.321 0.476,-0.426 0.715,-0.426 0.683,0 1.047,0.746 1.047,0.91 0,0.082 -0.078,0.082 -0.094,0.082 -0.082,0 -0.09,-0.031 -0.113,-0.105 -0.125,-0.41 -0.485,-0.723 -0.817,-0.723 -0.238,0 -0.363,0.164 -0.363,0.391 0,0.156 0.144,0.699 0.309,1.359 0.117,0.457 0.39,0.606 0.585,0.606 0.008,0 0.196,0 0.321,-0.083 -0.192,-0.054 -0.262,-0.218 -0.262,-0.328 0,-0.129 0.106,-0.222 0.238,-0.222 0.137,0 0.336,0.117 0.336,0.367 0,0.332 -0.386,0.433 -0.625,0.433 -0.297,0 -0.535,-0.195 -0.664,-0.421 -0.105,0.246 -0.379,0.421 -0.715,0.421 -0.668,0 -1.046,-0.73 -1.046,-0.91 0,-0.078 0.082,-0.078 0.097,-0.078 0.078,0 0.086,0.024 0.113,0.102 0.153,0.465 0.528,0.719 0.821,0.719 0.195,0 0.355,-0.106 0.355,-0.391 0,-0.117 -0.07,-0.418 -0.125,-0.621 l -0.203,-0.817" /><path
           id="path66"
           style="fill:#231f20;fill-opacity:1;fill-rule:nonzero;stroke:none"
           d="m 176.406,7.338 c 0.125,0 0.285,0 0.285,0.164 0,0.172 -0.16,0.172 -0.277,0.172 l -5.043,0 c -0.117,0 -0.277,0 -0.277,-0.172 0,-0.164 0.16,-0.164 0.285,-0.164 l 5.027,0 z m 0.008,-1.633 c 0.117,0 0.277,0 0.277,0.164 0,0.168 -0.16,0.168 -0.285,0.168 l -5.027,0 c -0.125,0 -0.285,0 -0.285,-0.168 0,-0.164 0.16,-0.164 0.277,-0.164 l 5.043,0" /></g></g><g
       id="g68"><path
         id="path70"
         style="fill:#231f20;fill-opacity:1;fill-rule:nonzero;stroke:none"
         d="m 183.395,7.279 c 0,0.672 -0.043,1.344 -0.34,1.969 -0.383,0.809 -1.075,0.945 -1.43,0.945 -0.504,0 -1.117,-0.222 -1.465,-1.004 -0.269,-0.582 -0.312,-1.238 -0.312,-1.91 0,-0.629 0.035,-1.39 0.382,-2.031 0.36,-0.684 0.973,-0.851 1.387,-0.851 0.453,0 1.094,0.179 1.465,0.98 0.27,0.578 0.313,1.234 0.313,1.902 z m -1.782,-2.695 c -0.324,0 -0.824,0.211 -0.976,1.02 -0.086,0.503 -0.086,1.281 -0.086,1.777 0,0.539 0,1.094 0.062,1.551 0.16,0.996 0.793,1.074 1,1.074 0.282,0 0.836,-0.152 0.996,-0.988 0.086,-0.469 0.086,-1.106 0.086,-1.637 0,-0.633 0,-1.203 -0.093,-1.746 -0.125,-0.797 -0.606,-1.051 -0.985,-1.051" /><path
         id="path72"
         style="fill:none;stroke:#c9c8c8;stroke-width:0.47499999;stroke-linecap:butt;stroke-linejoin:miter;stroke-miterlimit:10;stroke-dasharray:2.5333, 2.5333;stroke-dashoffset:0;stroke-opacity:1"
         d="m 157.984,30.732 -70.105,0" /><path
         id="path74"
         style="fill:none;stroke:#231f20;stroke-width:0.47499999;stroke-linecap:butt;stroke-linejoin:miter;stroke-miterlimit:10;stroke-dasharray:none;stroke-opacity:1"
         d="m 155.582,30.732 4.805,0" /><path
         id="path76"
         style="fill:#231f20;fill-opacity:1;fill-rule:nonzero;stroke:none"
         d="m 162.691,32.701 0.793,0 c 0.168,0 0.25,0 0.25,0.164 0,0.098 -0.082,0.098 -0.234,0.098 l -0.742,0 c 0.304,1.191 0.344,1.363 0.344,1.41 0,0.145 -0.098,0.231 -0.243,0.231 -0.023,0 -0.257,-0.012 -0.336,-0.301 l -0.328,-1.34 -0.789,0 c -0.168,0 -0.254,0 -0.254,-0.16 0,-0.106 0.067,-0.106 0.239,-0.106 l 0.742,0 c -0.61,-2.386 -0.645,-2.531 -0.645,-2.683 0,-0.453 0.321,-0.774 0.774,-0.774 0.859,0 1.34,1.227 1.34,1.297 0,0.082 -0.067,0.082 -0.102,0.082 -0.074,0 -0.082,-0.023 -0.121,-0.113 -0.363,-0.879 -0.813,-1.082 -1.098,-1.082 -0.176,0 -0.261,0.109 -0.261,0.387 0,0.203 0.019,0.261 0.05,0.406 l 0.621,2.48" /><path
         id="path78"
         style="fill:#231f20;fill-opacity:1;fill-rule:nonzero;stroke:none"
         d="m 167.32,30.311 c 0.028,0.082 0.028,0.093 0.028,0.128 0,0.122 -0.094,0.192 -0.2,0.192 -0.062,0 -0.175,-0.031 -0.242,-0.145 -0.015,-0.035 -0.066,-0.222 -0.094,-0.347 l -0.124,-0.492 c -0.04,-0.145 -0.223,-0.895 -0.239,-0.961 -0.008,0 -0.269,-0.516 -0.734,-0.516 -0.406,0 -0.406,0.383 -0.406,0.492 0,0.32 0.136,0.699 0.312,1.156 0.074,0.192 0.106,0.262 0.106,0.364 0,0.289 -0.247,0.507 -0.567,0.507 -0.601,0 -0.871,-0.808 -0.871,-0.91 0,-0.082 0.082,-0.082 0.102,-0.082 0.086,0 0.089,0.035 0.105,0.098 0.152,0.496 0.41,0.73 0.649,0.73 0.097,0 0.144,-0.07 0.144,-0.211 0,-0.136 -0.051,-0.265 -0.082,-0.343 -0.285,-0.731 -0.344,-0.949 -0.344,-1.211 0,-0.102 0,-0.383 0.231,-0.574 0.187,-0.153 0.437,-0.18 0.597,-0.18 0.239,0 0.454,0.09 0.649,0.266 -0.078,-0.329 -0.145,-0.579 -0.395,-0.875 -0.16,-0.184 -0.398,-0.383 -0.715,-0.383 -0.039,0 -0.324,0 -0.445,0.199 0.324,0.031 0.324,0.32 0.324,0.324 0,0.192 -0.175,0.231 -0.238,0.231 -0.144,0 -0.344,-0.121 -0.344,-0.395 0,-0.305 0.285,-0.523 0.711,-0.523 0.602,0 1.336,0.461 1.52,1.207 l 0.562,2.254" /><path
         id="path80"
         style="fill:none;stroke:#c9c8c8;stroke-width:0.47499999;stroke-linecap:butt;stroke-linejoin:miter;stroke-miterlimit:10;stroke-dasharray:2.5333, 2.5333;stroke-dashoffset:0;stroke-opacity:1"
         d="m 157.984,78.787 -22.054,0" /><path
         id="path82"
         style="fill:none;stroke:#231f20;stroke-width:0.47499999;stroke-linecap:butt;stroke-linejoin:miter;stroke-miterlimit:10;stroke-dasharray:none;stroke-opacity:1"
         d="m 155.582,78.787 4.805,0" /><path
         id="path84"
         style="fill:#231f20;fill-opacity:1;fill-rule:nonzero;stroke:none"
         d="m 162.691,80.166 0.793,0 c 0.168,0 0.25,0 0.25,0.168 0,0.094 -0.082,0.094 -0.234,0.094 l -0.742,0 c 0.304,1.191 0.344,1.363 0.344,1.41 0,0.144 -0.098,0.23 -0.243,0.23 -0.023,0 -0.257,-0.011 -0.336,-0.3 l -0.328,-1.34 -0.789,0 c -0.168,0 -0.254,0 -0.254,-0.16 0,-0.106 0.067,-0.106 0.239,-0.106 l 0.742,0 c -0.61,-2.387 -0.645,-2.531 -0.645,-2.683 0,-0.454 0.321,-0.774 0.774,-0.774 0.859,0 1.34,1.227 1.34,1.297 0,0.082 -0.067,0.082 -0.102,0.082 -0.074,0 -0.082,-0.023 -0.121,-0.117 -0.363,-0.875 -0.813,-1.078 -1.098,-1.078 -0.176,0 -0.261,0.109 -0.261,0.386 0,0.204 0.019,0.262 0.05,0.407 l 0.621,2.48" /><path
         id="path86"
         style="fill:#231f20;fill-opacity:1;fill-rule:nonzero;stroke:none"
         d="m 165.012,76.053 c 0.156,0.156 0.261,0.269 0.769,0.672 0.125,0.101 0.571,0.461 0.742,0.625 0.368,0.359 0.59,0.664 0.59,0.734 0,0.07 -0.078,0.07 -0.097,0.07 -0.059,0 -0.075,-0.011 -0.106,-0.058 -0.183,-0.278 -0.308,-0.364 -0.449,-0.364 -0.07,0 -0.16,0.004 -0.34,0.18 -0.203,0.203 -0.336,0.242 -0.473,0.242 -0.476,0 -0.8,-0.515 -0.8,-0.695 0,-0.055 0.058,-0.07 0.105,-0.07 0.067,0 0.082,0.015 0.106,0.082 0.089,0.207 0.421,0.218 0.519,0.218 0.141,0 0.289,-0.035 0.375,-0.05 0.328,-0.075 0.367,-0.075 0.52,-0.075 -0.157,-0.16 -0.262,-0.265 -0.828,-0.718 -0.465,-0.371 -0.625,-0.52 -0.739,-0.637 -0.359,-0.355 -0.535,-0.617 -0.535,-0.672 0,-0.066 0.078,-0.066 0.106,-0.066 0.058,0 0.07,0.008 0.097,0.058 0.16,0.227 0.348,0.36 0.551,0.36 0.066,0 0.16,-0.004 0.32,-0.157 0.188,-0.175 0.305,-0.261 0.496,-0.261 0.637,0 1.036,0.718 1.036,0.918 0,0.074 -0.067,0.082 -0.102,0.082 -0.07,0 -0.082,-0.032 -0.105,-0.098 -0.118,-0.297 -0.465,-0.441 -0.758,-0.441 -0.137,0 -0.285,0.031 -0.434,0.066 -0.273,0.063 -0.324,0.063 -0.43,0.063 -0.015,0 -0.101,0 -0.136,-0.008" /><path
         id="path88"
         style="fill:none;stroke:#c9c8c8;stroke-width:0.47499999;stroke-linecap:butt;stroke-linejoin:miter;stroke-miterlimit:10;stroke-dasharray:2.5333, 2.5333;stroke-dashoffset:0;stroke-opacity:1"
         d="m 157.984,54.76 -94.132,0" /><path
         id="path90"
         style="fill:none;stroke:#231f20;stroke-width:0.47499999;stroke-linecap:butt;stroke-linejoin:miter;stroke-miterlimit:10;stroke-dasharray:none;stroke-opacity:1"
         d="m 155.582,54.76 4.805,0" /><path
         id="path92"
         style="fill:#231f20;fill-opacity:1;fill-rule:nonzero;stroke:none"
         d="m 162.691,56.182 0.793,0 c 0.168,0 0.25,0 0.25,0.164 0,0.093 -0.082,0.093 -0.234,0.093 l -0.742,0 c 0.304,1.2 0.344,1.364 0.344,1.415 0,0.144 -0.098,0.226 -0.243,0.226 -0.023,0 -0.257,-0.008 -0.336,-0.301 l -0.328,-1.34 -0.789,0 c -0.168,0 -0.254,0 -0.254,-0.16 0,-0.101 0.067,-0.101 0.239,-0.101 l 0.742,0 c -0.61,-2.391 -0.645,-2.535 -0.645,-2.688 0,-0.453 0.321,-0.773 0.774,-0.773 0.859,0 1.34,1.226 1.34,1.297 0,0.086 -0.067,0.086 -0.102,0.086 -0.074,0 -0.082,-0.028 -0.121,-0.118 -0.363,-0.878 -0.813,-1.082 -1.098,-1.082 -0.176,0 -0.261,0.114 -0.261,0.387 0,0.203 0.019,0.266 0.05,0.406 l 0.621,2.485" /><path
         id="path94"
         style="fill:#231f20;fill-opacity:1;fill-rule:nonzero;stroke:none"
         d="m 165.941,55.268 c 0,0.089 -0.074,0.222 -0.238,0.222 -0.16,0 -0.336,-0.152 -0.336,-0.328 0,-0.101 0.078,-0.223 0.242,-0.223 0.172,0 0.332,0.165 0.332,0.329 z m -1.214,-3.032 c -0.028,-0.074 -0.055,-0.148 -0.055,-0.246 0,-0.285 0.234,-0.508 0.566,-0.508 0.594,0 0.86,0.821 0.86,0.911 0,0.078 -0.078,0.078 -0.094,0.078 -0.086,0 -0.09,-0.035 -0.113,-0.102 -0.137,-0.476 -0.403,-0.722 -0.633,-0.722 -0.121,0 -0.149,0.078 -0.149,0.21 0,0.137 0.043,0.247 0.094,0.379 0.059,0.164 0.125,0.325 0.192,0.477 0.054,0.144 0.269,0.687 0.293,0.758 0.019,0.058 0.035,0.133 0.035,0.191 0,0.281 -0.239,0.504 -0.567,0.504 -0.59,0 -0.863,-0.805 -0.863,-0.91 0,-0.074 0.082,-0.074 0.102,-0.074 0.085,0 0.089,0.027 0.109,0.093 0.152,0.516 0.414,0.727 0.637,0.727 0.093,0 0.148,-0.047 0.148,-0.203 0,-0.141 -0.035,-0.231 -0.184,-0.598 L 164.73,52.24" /><path
         id="path96"
         style="fill:none;stroke:#c9c8c8;stroke-width:0.47499999;stroke-linecap:butt;stroke-linejoin:miter;stroke-miterlimit:10;stroke-dasharray:2.5333, 2.5333;stroke-dashoffset:0;stroke-opacity:1"
         d="m 157.984,126.838 -58.093,0" /><path
         id="path98"
         style="fill:none;stroke:#231f20;stroke-width:0.47499999;stroke-linecap:butt;stroke-linejoin:miter;stroke-miterlimit:10;stroke-dasharray:none;stroke-opacity:1"
         d="m 155.582,126.838 4.805,0" /><path
         id="path100"
         style="fill:#231f20;fill-opacity:1;fill-rule:nonzero;stroke:none"
         d="m 162.691,128.818 0.793,0 c 0.168,0 0.25,0 0.25,0.168 0,0.094 -0.082,0.094 -0.234,0.094 l -0.742,0 c 0.304,1.195 0.344,1.359 0.344,1.414 0,0.141 -0.098,0.227 -0.243,0.227 -0.023,0 -0.257,-0.008 -0.336,-0.305 l -0.328,-1.336 -0.789,0 c -0.168,0 -0.254,0 -0.254,-0.164 0,-0.098 0.067,-0.098 0.239,-0.098 l 0.742,0 c -0.61,-2.394 -0.645,-2.535 -0.645,-2.687 0,-0.453 0.321,-0.777 0.774,-0.777 0.859,0 1.34,1.234 1.34,1.3 0,0.086 -0.067,0.086 -0.102,0.086 -0.074,0 -0.082,-0.027 -0.121,-0.121 -0.363,-0.875 -0.813,-1.078 -1.098,-1.078 -0.176,0 -0.261,0.113 -0.261,0.387 0,0.203 0.019,0.261 0.05,0.406 l 0.621,2.484" /><path
         id="path102"
         style="fill:#231f20;fill-opacity:1;fill-rule:nonzero;stroke:none"
         d="m 166.625,127.904 c 0,0.098 -0.078,0.227 -0.238,0.227 -0.172,0 -0.332,-0.168 -0.332,-0.328 0,-0.094 0.066,-0.227 0.238,-0.227 0.16,0 0.332,0.156 0.332,0.328 z m -1.262,-4.015 c -0.101,-0.414 -0.418,-0.758 -0.769,-0.758 -0.078,0 -0.149,0.008 -0.215,0.035 0.152,0.07 0.199,0.211 0.199,0.305 0,0.144 -0.109,0.218 -0.23,0.218 -0.184,0 -0.336,-0.164 -0.336,-0.351 0,-0.227 0.226,-0.375 0.586,-0.375 0.355,0 1.054,0.215 1.242,0.941 l 0.535,2.133 c 0.02,0.067 0.027,0.117 0.027,0.207 0,0.328 -0.281,0.563 -0.636,0.563 -0.661,0 -1.039,-0.828 -1.039,-0.914 0,-0.079 0.082,-0.079 0.097,-0.079 0.074,0 0.082,0.02 0.121,0.11 0.149,0.344 0.457,0.715 0.805,0.715 0.148,0 0.203,-0.102 0.203,-0.289 0,-0.067 -0.012,-0.153 -0.019,-0.18 l -0.571,-2.281" /><path
         id="path104"
         style="fill:none;stroke:#eeeeee;stroke-width:12.01299953;stroke-linecap:butt;stroke-linejoin:miter;stroke-miterlimit:10;stroke-dasharray:none;stroke-opacity:1"
         d="m 61.879,56.729 0,70.109 34.07,0" /><path
         id="path106"
         style="fill:#231f20;fill-opacity:1;fill-rule:nonzero;stroke:none"
         d="m 71.031,109.018 c -0.035,0.093 -0.051,0.105 -0.078,0.132 -0.066,0.067 -0.172,0.067 -0.238,0 -0.055,-0.046 -0.067,-0.121 0,-0.269 l 1.691,-3.777 c 0.024,-0.051 0.043,-0.106 0.078,-0.137 0.02,-0.02 0.032,-0.031 0.129,-0.074 l 3.782,-1.692 c 0.085,-0.039 0.195,-0.09 0.281,-0.008 0.062,0.067 0.062,0.172 0,0.239 -0.024,0.019 -0.031,0.031 -0.129,0.066 l -3.82,1.711 -1.696,3.809" /><path
         id="path108"
         style="fill:#231f20;fill-opacity:1;fill-rule:nonzero;stroke:none"
         d="m 73.66,110.611 c -0.121,0.118 -0.297,0.129 -0.437,-0.011 -0.161,-0.157 -0.164,-0.473 -0.004,-0.633 0.109,-0.113 0.297,-0.133 0.437,0.012 0.141,0.136 0.184,0.449 0.004,0.628 l 0,0.004 z m 1.789,-2.695 c -0.101,0.242 -0.113,0.258 -0.215,0.477 -0.07,0.168 -0.129,0.281 -0.242,0.394 -0.265,0.27 -0.68,0.297 -0.976,0 -0.563,-0.558 0.078,-1.652 0.132,-1.707 0.059,-0.058 0.118,0 0.133,0.016 0.059,0.058 0.051,0.074 -0.015,0.203 -0.399,0.719 -0.336,1.137 -0.137,1.34 0.051,0.047 0.152,0.148 0.34,-0.043 0.125,-0.129 0.211,-0.293 0.246,-0.375 0.105,-0.203 0.527,-1.164 0.691,-1.516 0.094,-0.215 0.215,-0.488 0.34,-0.609 0.281,-0.282 0.692,-0.285 0.977,0 0.558,0.558 -0.082,1.64 -0.137,1.699 -0.059,0.059 -0.109,0.004 -0.133,-0.016 -0.058,-0.058 -0.043,-0.074 0.024,-0.195 0.265,-0.484 0.429,-1.043 0.128,-1.348 -0.101,-0.101 -0.203,-0.082 -0.339,0.055 -0.149,0.148 -0.2,0.27 -0.422,0.766 l -0.395,0.863" /><path
         id="path110"
         style="fill:#231f20;fill-opacity:1;fill-rule:nonzero;stroke:none"
         d="m 78.926,108.443 c -0.391,0.391 -0.774,0.477 -1.004,0.243 -0.195,-0.192 -0.168,-0.465 0,-0.629 0.16,-0.16 0.433,-0.196 0.633,0 0.07,0.066 0.125,0.172 0.133,0.285 0.003,0.027 0.003,0.043 0.007,0.047 0.008,0.008 0.02,0.004 0.102,-0.078 0.441,-0.442 0.59,-1.004 0.59,-1.403 0,-0.129 0.011,-0.136 0.031,-0.156 0.039,-0.039 0.094,-0.039 0.125,-0.008 0.062,0.067 0.082,1.004 -0.617,1.699" /><path
         id="path112"
         style="fill:#231f20;fill-opacity:1;fill-rule:nonzero;stroke:none"
         d="m 78.992,115.943 c -0.109,0.114 -0.297,0.129 -0.437,-0.011 -0.137,-0.137 -0.18,-0.453 0,-0.633 0.117,-0.117 0.297,-0.129 0.433,0.008 0.16,0.16 0.168,0.476 0.004,0.636 z m 2.824,-5.218 c 0.344,-0.567 0.395,-1.196 0.063,-1.524 -0.039,-0.039 -0.129,-0.125 -0.285,-0.179 0.136,0.218 0.066,0.464 -0.051,0.582 -0.094,0.097 -0.27,0.14 -0.434,-0.02 -0.148,-0.148 -0.195,-0.441 0.02,-0.656 0.234,-0.242 0.605,-0.137 0.891,0.148 0.418,0.418 0.66,1.289 0.214,2.031 l -1.629,2.727 c -0.089,0.148 -0.175,0.234 -0.195,0.254 -0.336,0.336 -0.797,0.297 -1.094,0 -0.609,-0.609 -0.086,-1.816 -0.031,-1.867 0.059,-0.063 0.117,0 0.133,0.011 0.055,0.055 0.055,0.063 -0.016,0.227 -0.211,0.512 -0.3,1.152 0.024,1.477 0.086,0.082 0.219,0.168 0.469,-0.082 0.136,-0.137 0.183,-0.219 0.261,-0.344 l 1.66,-2.785" /><path
         id="path114"
         style="fill:#231f20;fill-opacity:1;fill-rule:nonzero;stroke:none"
         d="m 83.387,115.666 c -0.039,0.102 -0.051,0.113 -0.071,0.133 -0.019,0.015 -0.027,0.027 -0.128,0.07 l -3.786,1.699 c -0.136,0.067 -0.211,0.067 -0.277,0 -0.063,-0.066 -0.066,-0.171 0,-0.238 0.02,-0.019 0.031,-0.031 0.129,-0.066 l 3.82,-1.711 1.699,-3.805 c 0.032,-0.098 0.043,-0.109 0.075,-0.141 0.066,-0.066 0.175,-0.066 0.238,0 0.078,0.079 0.043,0.165 0.008,0.247 l -1.707,3.812" /><path
         id="path116"
         style="fill:none;stroke:#3c4ca8;stroke-width:1.20099998;stroke-linecap:butt;stroke-linejoin:miter;stroke-miterlimit:10;stroke-dasharray:none;stroke-opacity:1"
         d="m 37.852,8.678 0,22.054" /><path
         id="path118"
         style="fill:none;stroke:#ee2737;stroke-width:1.20099998;stroke-linecap:butt;stroke-linejoin:miter;stroke-miterlimit:10;stroke-dasharray:none;stroke-opacity:1"
         d="m 37.852,30.732 0,24.028 22.058,0" /><path
         id="path120"
         style="fill:none;stroke:#ee2737;stroke-width:1.20099998;stroke-linecap:butt;stroke-linejoin:miter;stroke-miterlimit:10;stroke-dasharray:none;stroke-opacity:1"
         d="m 63.852,54.76 22.05,0 0,-22.055" /><path
         id="path122"
         style="fill:none;stroke:#ee2737;stroke-width:1.20099998;stroke-linecap:butt;stroke-linejoin:miter;stroke-miterlimit:10;stroke-dasharray:none;stroke-opacity:1"
         d="m 61.879,56.729 0,12.445" /><path
         id="path124"
         style="fill:none;stroke:#08a84d;stroke-width:1.20099998;stroke-linecap:butt;stroke-linejoin:miter;stroke-miterlimit:10;stroke-dasharray:none;stroke-opacity:1"
         d="m 61.879,69.178 0,36.039" /><path
         id="path126"
         style="fill:none;stroke:#f46a25;stroke-width:1.20099998;stroke-linecap:butt;stroke-linejoin:miter;stroke-miterlimit:10;stroke-dasharray:none;stroke-opacity:1"
         d="m 61.879,105.217 0,21.621 34.07,0" /><path
         id="path128"
         style="fill:none;stroke:#f46a25;stroke-width:1.20099998;stroke-linecap:butt;stroke-linejoin:miter;stroke-miterlimit:10;stroke-dasharray:none;stroke-opacity:1"
         d="m 99.891,126.838 34.066,0 0,-14.414" /><path
         id="path130"
         style="fill:none;stroke:#3c4ca8;stroke-width:1.20099998;stroke-linecap:butt;stroke-linejoin:miter;stroke-miterlimit:10;stroke-dasharray:none;stroke-opacity:1"
         d="m 133.957,112.424 0,-31.668" /><path
         id="path132"
         style="fill:none;stroke:#f46a25;stroke-width:1.20099998;stroke-linecap:butt;stroke-linejoin:miter;stroke-miterlimit:10;stroke-dasharray:none;stroke-opacity:1"
         d="m 97.918,128.807 0,22.058" /><path
         id="path134"
         style="fill:#f6f6f6;fill-opacity:1;fill-rule:nonzero;stroke:none"
         d="m 1.812,126.838 24.027,0 0,-72.078 -24.027,0 0,72.078 z" /><path
         id="path136"
         style="fill:none;stroke:#231f20;stroke-width:0.47499999;stroke-linecap:butt;stroke-linejoin:miter;stroke-miterlimit:10;stroke-dasharray:none;stroke-opacity:1"
         d="m 25.836,54.76 -23.637,0" /><path
         id="path138"
         style="fill:none;stroke:#231f20;stroke-width:0.38;stroke-linecap:round;stroke-linejoin:round;stroke-miterlimit:10;stroke-dasharray:none;stroke-opacity:1"
         d="m 3.215,53.408 c -0.086,0.508 -1.016,1.27 -1.266,1.352 0.25,0.086 1.184,0.844 1.266,1.351" /><path
         id="path140"
         style="fill:#231f20;fill-opacity:1;fill-rule:nonzero;stroke:none"
         d="M 1.008,44.006 C 0.973,43.897 0.965,43.881 0.965,43.838 c 0,-0.188 0.16,-0.238 0.246,-0.238 0.043,0 0.227,0.031 0.312,0.218 0.028,0.071 0.067,0.348 0.293,1.547 0.079,-0.011 0.137,-0.019 0.278,-0.019 1.398,0 2.695,1.32 2.695,2.652 0,0.656 -0.328,1.164 -0.961,1.164 -1.219,0 -1.723,-1.637 -2.23,-3.277 -0.91,0.168 -1.379,0.64 -1.379,1.246 0,0.234 0.191,1.16 0.695,1.742 0.07,0.074 0.07,0.094 0.07,0.113 0,0.032 -0.019,0.082 -0.101,0.082 C 0.648,49.068 0,47.846 0,47.037 0,46.248 0.555,45.631 1.457,45.42 L 1.008,44.006 Z m 1.164,1.828 c -0.07,0 -0.082,0 -0.152,0.008 -0.106,0 -0.11,0.008 -0.11,0.035 0,0.016 0.141,0.781 0.164,0.906 0.262,1.078 0.922,1.887 1.668,1.887 0.586,0 0.809,-0.453 0.809,-0.856 0,-0.953 -1.086,-1.98 -2.383,-1.98" /><path
         id="path142"
         style="fill:#231f20;fill-opacity:1;fill-rule:nonzero;stroke:none"
         d="m 7.34,48.119 c 0.035,0.082 0.035,0.098 0.035,0.113 0,0.094 -0.078,0.149 -0.145,0.149 -0.097,0 -0.121,-0.063 -0.16,-0.149 L 5.945,45.522 C 5.91,45.439 5.91,45.428 5.91,45.408 c 0,-0.027 0,-0.035 0.035,-0.121 L 7.066,42.58 c 0.036,-0.086 0.071,-0.148 0.164,-0.148 0.067,0 0.145,0.05 0.145,0.144 0,0.02 0,0.031 -0.035,0.117 L 6.211,45.4 7.34,48.119" /><path
         id="path144"
         style="fill:#231f20;fill-opacity:1;fill-rule:nonzero;stroke:none"
         d="m 9.73,47.639 c 0,0.09 -0.07,0.222 -0.238,0.222 -0.164,0 -0.336,-0.156 -0.336,-0.328 0,-0.101 0.078,-0.222 0.239,-0.222 0.171,0 0.335,0.168 0.335,0.328 z M 8.516,44.607 C 8.492,44.533 8.461,44.459 8.461,44.361 c 0,-0.285 0.234,-0.507 0.566,-0.507 0.598,0 0.86,0.82 0.86,0.91 0,0.078 -0.082,0.078 -0.098,0.078 -0.082,0 -0.09,-0.035 -0.113,-0.102 -0.133,-0.476 -0.395,-0.722 -0.629,-0.722 -0.121,0 -0.152,0.078 -0.152,0.211 0,0.136 0.046,0.246 0.097,0.378 0.059,0.165 0.125,0.325 0.192,0.477 0.05,0.145 0.269,0.688 0.293,0.762 0.019,0.058 0.035,0.129 0.035,0.187 0,0.281 -0.239,0.504 -0.567,0.504 -0.59,0 -0.863,-0.808 -0.863,-0.91 0,-0.074 0.082,-0.074 0.102,-0.074 0.082,0 0.089,0.027 0.105,0.094 0.156,0.515 0.418,0.726 0.641,0.726 0.093,0 0.148,-0.047 0.148,-0.207 0,-0.137 -0.035,-0.227 -0.187,-0.594 L 8.52,44.611" /><path
         id="path146"
         style="fill:#231f20;fill-opacity:1;fill-rule:nonzero;stroke:none"
         d="m 11.43,44.01 c 0,-0.328 -0.059,-0.711 -0.465,-1.094 -0.024,-0.023 -0.039,-0.039 -0.039,-0.07 0,-0.043 0.047,-0.082 0.082,-0.082 0.082,0 0.59,0.476 0.59,1.183 0,0.371 -0.145,0.653 -0.418,0.653 -0.196,0 -0.34,-0.157 -0.34,-0.34 0,-0.192 0.137,-0.348 0.348,-0.348 0.14,0 0.238,0.098 0.242,0.098" /><path
         id="path148"
         style="fill:#231f20;fill-opacity:1;fill-rule:nonzero;stroke:none"
         d="m 14.82,47.639 c 0,0.097 -0.074,0.222 -0.234,0.222 -0.176,0 -0.336,-0.168 -0.336,-0.328 0,-0.094 0.07,-0.222 0.238,-0.222 0.16,0 0.332,0.156 0.332,0.328 z m -1.261,-4.016 c -0.102,-0.414 -0.418,-0.762 -0.77,-0.762 -0.074,0 -0.148,0.012 -0.211,0.036 0.152,0.074 0.199,0.214 0.199,0.304 0,0.145 -0.113,0.223 -0.234,0.223 -0.18,0 -0.336,-0.164 -0.336,-0.352 0,-0.226 0.231,-0.379 0.59,-0.379 0.355,0 1.055,0.219 1.238,0.942 l 0.535,2.137 c 0.02,0.066 0.032,0.117 0.032,0.207 0,0.328 -0.282,0.558 -0.637,0.558 -0.664,0 -1.043,-0.824 -1.043,-0.91 0,-0.078 0.082,-0.078 0.098,-0.078 0.074,0 0.082,0.019 0.125,0.105 0.148,0.348 0.457,0.719 0.804,0.719 0.149,0 0.199,-0.101 0.199,-0.297 0,-0.062 -0.011,-0.148 -0.019,-0.176 l -0.57,-2.281" /><path
         id="path150"
         style="fill:#231f20;fill-opacity:1;fill-rule:nonzero;stroke:none"
         d="m 17.23,45.287 c 0.036,0.082 0.036,0.098 0.036,0.113 0,0.032 0,0.036 -0.036,0.122 l -1.121,2.703 c -0.035,0.093 -0.066,0.156 -0.164,0.156 -0.066,0 -0.144,-0.055 -0.144,-0.149 0,-0.015 0,-0.031 0.035,-0.113 l 1.129,-2.711 -1.129,-2.715 c -0.035,-0.086 -0.035,-0.097 -0.035,-0.113 0,-0.098 0.078,-0.148 0.144,-0.148 0.102,0 0.125,0.066 0.16,0.148 l 1.125,2.707" /><path
         id="path152"
         style="fill:#231f20;fill-opacity:1;fill-rule:nonzero;stroke:none"
         d="m 21.266,43.416 c 0,0.027 0,0.043 -0.145,0.184 -1.051,1.062 -1.32,2.656 -1.32,3.941 0,1.469 0.316,2.93 1.355,3.984 0.11,0.102 0.11,0.118 0.11,0.145 0,0.059 -0.036,0.082 -0.082,0.082 -0.086,0 -0.844,-0.57 -1.344,-1.641 -0.426,-0.929 -0.528,-1.859 -0.528,-2.57 0,-0.656 0.094,-1.676 0.555,-2.625 0.504,-1.035 1.231,-1.582 1.317,-1.582 0.046,0 0.082,0.027 0.082,0.082" /><path
         id="path154"
         style="fill:#231f20;fill-opacity:1;fill-rule:nonzero;stroke:none"
         d="m 23.52,48.807 0.792,0 c 0.165,0 0.25,0 0.25,0.168 0,0.089 -0.085,0.089 -0.234,0.089 l -0.742,0 c 0.301,1.196 0.344,1.368 0.344,1.415 0,0.144 -0.098,0.23 -0.242,0.23 -0.024,0 -0.258,-0.012 -0.336,-0.301 l -0.329,-1.344 -0.793,0 c -0.168,0 -0.25,0 -0.25,-0.156 0,-0.105 0.067,-0.105 0.235,-0.105 l 0.742,0 c -0.609,-2.391 -0.641,-2.531 -0.641,-2.684 0,-0.453 0.321,-0.773 0.774,-0.773 0.859,0 1.34,1.226 1.34,1.297 0,0.082 -0.067,0.082 -0.102,0.082 -0.074,0 -0.082,-0.024 -0.125,-0.118 -0.359,-0.875 -0.808,-1.078 -1.094,-1.078 -0.179,0 -0.261,0.11 -0.261,0.387 0,0.203 0.015,0.262 0.05,0.406 l 0.622,2.481" /><path
         id="path156"
         style="fill:#231f20;fill-opacity:1;fill-rule:nonzero;stroke:none"
         d="m 27.27,47.541 c 0,0.656 -0.094,1.676 -0.559,2.629 -0.5,1.035 -1.227,1.582 -1.313,1.582 -0.05,0 -0.082,-0.031 -0.082,-0.082 0,-0.027 0,-0.043 0.157,-0.195 0.824,-0.832 1.308,-2.172 1.308,-3.934 0,-1.441 -0.312,-2.918 -1.355,-3.98 -0.11,-0.102 -0.11,-0.118 -0.11,-0.145 0,-0.051 0.032,-0.082 0.082,-0.082 0.086,0 0.844,0.57 1.34,1.641 0.43,0.929 0.532,1.863 0.532,2.566" /><path
         id="path158"
         style="fill:none;stroke:#231f20;stroke-width:0.47499999;stroke-linecap:butt;stroke-linejoin:miter;stroke-miterlimit:10;stroke-dasharray:none;stroke-opacity:1"
         d="m 25.836,54.76 0,71.691" /><path
         id="path160"
         style="fill:none;stroke:#231f20;stroke-width:0.38;stroke-linecap:round;stroke-linejoin:round;stroke-miterlimit:10;stroke-dasharray:none;stroke-opacity:1"
         d="m 24.492,125.436 c 0.504,0.086 1.262,1.015 1.348,1.265 0.082,-0.25 0.844,-1.179 1.351,-1.265" /><path
         id="path162"
         style="fill:#231f20;fill-opacity:1;fill-rule:nonzero;stroke:none"
         d="m 30.555,87.967 0.789,0 c 0.168,0 0.254,0 0.254,0.164 0,0.094 -0.086,0.094 -0.235,0.094 l -0.742,0 c 0.301,1.195 0.348,1.363 0.348,1.414 0,0.144 -0.106,0.226 -0.246,0.226 -0.024,0 -0.258,-0.008 -0.336,-0.301 l -0.328,-1.339 -0.793,0 c -0.168,0 -0.254,0 -0.254,-0.161 0,-0.101 0.07,-0.101 0.242,-0.101 l 0.738,0 c -0.609,-2.391 -0.64,-2.535 -0.64,-2.688 0,-0.453 0.32,-0.773 0.773,-0.773 0.859,0 1.34,1.227 1.34,1.297 0,0.086 -0.067,0.086 -0.102,0.086 -0.074,0 -0.086,-0.028 -0.125,-0.117 -0.359,-0.879 -0.808,-1.082 -1.097,-1.082 -0.172,0 -0.258,0.113 -0.258,0.386 0,0.203 0.015,0.266 0.051,0.407 l 0.621,2.484" /><path
         id="path164"
         style="fill:none;stroke:#3c4ca8;stroke-width:0.48100001;stroke-linecap:butt;stroke-linejoin:miter;stroke-miterlimit:10;stroke-dasharray:none;stroke-opacity:1"
         d="m 21.031,53.557 0,2.406" /><path
         id="path166"
         style="fill:none;stroke:#ee2737;stroke-width:0.48100001;stroke-linecap:butt;stroke-linejoin:miter;stroke-miterlimit:10;stroke-dasharray:none;stroke-opacity:1"
         d="m 16.23,53.557 0,2.406" /><path
         id="path168"
         style="fill:none;stroke:#08a84d;stroke-width:0.48100001;stroke-linecap:butt;stroke-linejoin:miter;stroke-miterlimit:10;stroke-dasharray:none;stroke-opacity:1"
         d="m 11.422,53.557 0,2.406" /><path
         id="path170"
         style="fill:none;stroke:#f46a25;stroke-width:0.48100001;stroke-linecap:butt;stroke-linejoin:miter;stroke-miterlimit:10;stroke-dasharray:none;stroke-opacity:1"
         d="m 6.617,53.557 0,2.406" /><path
         id="path172"
         style="fill:none;stroke:#ee2737;stroke-width:0.72100002;stroke-linecap:butt;stroke-linejoin:miter;stroke-miterlimit:10;stroke-dasharray:none;stroke-opacity:1"
         d="m 16.23,54.76 0,14.414" /><path
         id="path174"
         style="fill:#f6f6f6;fill-opacity:1;fill-rule:nonzero;stroke:none"
         d="m 17.43,69.178 c 0,0.66 -0.539,1.199 -1.2,1.199 -0.668,0 -1.203,-0.539 -1.203,-1.199 0,-0.668 0.535,-1.203 1.203,-1.203 0.661,0 1.2,0.535 1.2,1.203" /><path
         id="path176"
         style="fill:none;stroke:#ee2737;stroke-width:0.72100002;stroke-linecap:butt;stroke-linejoin:miter;stroke-miterlimit:10;stroke-dasharray:none;stroke-opacity:1"
         d="m 17.43,69.178 c 0,0.66 -0.539,1.199 -1.2,1.199 -0.668,0 -1.203,-0.539 -1.203,-1.199 0,-0.668 0.535,-1.203 1.203,-1.203 0.661,0 1.2,0.535 1.2,1.203 z" /><path
         id="path178"
         style="fill:none;stroke:#08a84d;stroke-width:0.72100002;stroke-linecap:butt;stroke-linejoin:miter;stroke-miterlimit:10;stroke-dasharray:none;stroke-opacity:1"
         d="m 11.422,69.178 0,36.039" /><path
         id="path180"
         style="fill:#f6f6f6;fill-opacity:1;fill-rule:nonzero;stroke:none"
         d="m 12.625,105.217 c 0,0.664 -0.535,1.199 -1.203,1.199 -0.664,0 -1.199,-0.535 -1.199,-1.199 0,-0.664 0.535,-1.203 1.199,-1.203 0.668,0 1.203,0.539 1.203,1.203" /><path
         id="path182"
         style="fill:none;stroke:#08a84d;stroke-width:0.72100002;stroke-linecap:butt;stroke-linejoin:miter;stroke-miterlimit:10;stroke-dasharray:none;stroke-opacity:1"
         d="m 12.625,105.217 c 0,0.664 -0.535,1.199 -1.203,1.199 -0.664,0 -1.199,-0.535 -1.199,-1.199 0,-0.664 0.535,-1.203 1.199,-1.203 0.668,0 1.203,0.539 1.203,1.203 z" /><path
         id="path184"
         style="fill:none;stroke:#f46a25;stroke-width:0.72100002;stroke-linecap:butt;stroke-linejoin:miter;stroke-miterlimit:10;stroke-dasharray:none;stroke-opacity:1"
         d="m 6.617,105.217 0,21.621" /><path
         id="path186"
         style="fill:none;stroke:#c9c8c8;stroke-width:0.47499999;stroke-linecap:butt;stroke-linejoin:miter;stroke-miterlimit:10;stroke-dasharray:2.5333, 2.5333;stroke-dashoffset:0;stroke-opacity:1"
         d="m 37.852,54.76 -12.012,0" /><path
         id="path188"
         style="fill:none;stroke:#231f20;stroke-width:0.47499999;stroke-linecap:butt;stroke-linejoin:miter;stroke-miterlimit:10;stroke-dasharray:none;stroke-opacity:1"
         d="m 24.641,54.76 2.398,0" /><path
         id="path190"
         style="fill:none;stroke:#c9c8c8;stroke-width:0.47499999;stroke-linecap:butt;stroke-linejoin:miter;stroke-miterlimit:10;stroke-dasharray:2.5333, 2.5333;stroke-dashoffset:0;stroke-opacity:1"
         d="m 61.879,69.178 -36.039,0" /><path
         id="path192"
         style="fill:none;stroke:#231f20;stroke-width:0.47499999;stroke-linecap:butt;stroke-linejoin:miter;stroke-miterlimit:10;stroke-dasharray:none;stroke-opacity:1"
         d="m 24.641,69.178 2.398,0" /><path
         id="path194"
         style="fill:none;stroke:#c9c8c8;stroke-width:0.47499999;stroke-linecap:butt;stroke-linejoin:miter;stroke-miterlimit:10;stroke-dasharray:2.5333, 2.5333;stroke-dashoffset:0;stroke-opacity:1"
         d="m 61.879,105.217 -36.039,0" /><path
         id="path196"
         style="fill:none;stroke:#231f20;stroke-width:0.47499999;stroke-linecap:butt;stroke-linejoin:miter;stroke-miterlimit:10;stroke-dasharray:none;stroke-opacity:1"
         d="m 24.641,105.217 2.398,0" /><path
         id="path198"
         style="fill:none;stroke:#c9c8c8;stroke-width:0.47499999;stroke-linecap:butt;stroke-linejoin:miter;stroke-miterlimit:10;stroke-dasharray:2.5333, 2.5333;stroke-dashoffset:0;stroke-opacity:1"
         d="m 61.879,126.838 -36.039,0" /><path
         id="path200"
         style="fill:none;stroke:#231f20;stroke-width:0.47499999;stroke-linecap:butt;stroke-linejoin:miter;stroke-miterlimit:10;stroke-dasharray:none;stroke-opacity:1"
         d="m 24.641,126.838 2.398,0" /></g></g></svg>