<?xml version="1.0" encoding="utf-8"?>
<!-- Generator: Adobe Illustrator 19.1.0, SVG Export Plug-In . SVG Version: 6.00 Build 0)  -->
<svg version="1.1" id="Layer_1" xmlns="http://www.w3.org/2000/svg" xmlns:xlink="http://www.w3.org/1999/xlink" x="0px" y="0px"
	 viewBox="0 0 15.1 7.1" style="enable-background:new 0 0 15.1 7.1;" xml:space="preserve">
<style type="text/css">
	.st0{clip-path:url(#SVGID_2_);fill:none;stroke:#247CB5;stroke-width:0.453;}
	.st1{clip-path:url(#SVGID_2_);fill:#247CB5;}
	.st2{clip-path:url(#SVGID_4_);fill:none;stroke:#000000;stroke-width:0.453;}
	.st3{clip-path:url(#SVGID_6_);fill:none;stroke:#000000;stroke-width:0.453;}
</style>
<g>
	<defs>
		<rect id="SVGID_1_" x="4.8" width="6" height="7.1"/>
	</defs>
	<clipPath id="SVGID_2_">
		<use xlink:href="#SVGID_1_"  style="overflow:visible;"/>
	</clipPath>
	<path class="st0" d="M10.3,1.4c-1.8-2.1-5.2-0.8-5.1,2C5.2,5.5,7.3,6.6,9,6.1h0"/>
	<polygon class="st1" points="9.4,6.8 10.3,5.2 8.4,5.5 	"/>
</g>
<g>
	<defs>
		<rect id="SVGID_3_" x="9.6" y="0.5" width="5.5" height="5.5"/>
	</defs>
	<clipPath id="SVGID_4_">
		<use xlink:href="#SVGID_3_"  style="overflow:visible;"/>
	</clipPath>
	<path class="st2" d="M10,4.3V2.1c0-0.7,0.6-1.3,1.3-1.3h2.2c0.7,0,1.2,0.6,1.2,1.3v2.2c0,0.7-0.5,1.2-1.2,1.2h-2.2
		C10.6,5.5,10,5,10,4.3z"/>
</g>
<g>
	<defs>
		<rect id="SVGID_5_" y="0.5" width="5.5" height="5.5"/>
	</defs>
	<clipPath id="SVGID_6_">
		<use xlink:href="#SVGID_5_"  style="overflow:visible;"/>
	</clipPath>
	<path class="st3" d="M0.4,4.3V2.1c0-0.7,0.5-1.3,1.2-1.3h2.2c0.7,0,1.3,0.6,1.3,1.3v2.2c0,0.7-0.6,1.2-1.3,1.2H1.6
		C1,5.5,0.4,5,0.4,4.3z"/>
</g>
</svg>
