<?xml version="1.0" encoding="UTF-8" standalone="no"?>
<svg
   xmlns:dc="http://purl.org/dc/elements/1.1/"
   xmlns:cc="http://creativecommons.org/ns#"
   xmlns:rdf="http://www.w3.org/1999/02/22-rdf-syntax-ns#"
   xmlns:svg="http://www.w3.org/2000/svg"
   xmlns="http://www.w3.org/2000/svg"
   viewBox="0 0 600.37872 845.086"
   height="845.086"
   width="600.37872"
   xml:space="preserve"
   version="1.1"
   id="svg2"><metadata
     id="metadata8"><rdf:RDF><cc:Work
         rdf:about=""><dc:format>image/svg+xml</dc:format><dc:type
           rdf:resource="http://purl.org/dc/dcmitype/StillImage" /><dc:title></dc:title></cc:Work></rdf:RDF></metadata><defs
     id="defs6"><clipPath
       id="clipPath18"
       clipPathUnits="userSpaceOnUse"><path
         id="path20"
         d="m 60.665,68.384 480.303,0 0,677.999 -480.303,0 0,-677.999 z" /></clipPath><clipPath
       id="clipPath64"
       clipPathUnits="userSpaceOnUse"><path
         id="path66"
         d="m 60.665,68.384 480.303,0 0,677.999 -480.303,0 0,-677.999 z" /></clipPath></defs><g
     transform="matrix(1.25,0,0,-1.25,-75.83125,932.97875)"
     id="g10"><path
       id="path12"
       style="fill:#e7e7e7;fill-opacity:1;fill-rule:nonzero;stroke:none"
       d="m 449.652,746.383 38.877,0 0,-664.081 -38.877,0 0,664.081 z" /><g
       id="g14"><g
         clip-path="url(#clipPath18)"
         id="g16"><path
           id="path22"
           style="fill:none;stroke:#231f20;stroke-width:1.76499999;stroke-linecap:round;stroke-linejoin:round;stroke-miterlimit:10;stroke-dasharray:none;stroke-opacity:1"
           d="m 61.547,82.302 426.982,0 m -408.191,0 0,-1.764 m 19.438,1.764 0,-4.412" /></g></g><text
       id="text24"
       style="font-variant:normal;font-weight:normal;font-size:6.17749977px;font-family:Arial;-inkscape-font-specification:ArialMT;writing-mode:lr-tb;fill:#231f20;fill-opacity:1;fill-rule:nonzero;stroke:none"
       transform="matrix(1,0,0,-1,90.0681,70.3896)"><tspan
         id="tspan26"
         y="0"
         x="0 3.7194726 7.4389453 11.158419 14.877891 16.878103 21.623041">1000 CE</tspan></text>
<path
       id="path28"
       style="fill:none;stroke:#231f20;stroke-width:1.76499999;stroke-linecap:round;stroke-linejoin:round;stroke-miterlimit:10;stroke-dasharray:none;stroke-opacity:1"
       d="m 119.214,82.302 0,-1.764 m 19.438,1.764 0,-1.764 m 19.437,1.764 0,-1.764 m 19.438,1.764 0,-1.764 m 19.437,1.764 0,-4.412" /><text
       id="text30"
       style="font-variant:normal;font-weight:normal;font-size:6.17749977px;font-family:Arial;-inkscape-font-specification:ArialMT;writing-mode:lr-tb;fill:#231f20;fill-opacity:1;fill-rule:nonzero;stroke:none"
       transform="matrix(1,0,0,-1,189.4617,70.3896)"><tspan
         id="tspan32"
         y="0"
         x="0 3.7194726 7.4389453 11.158419 14.877891 16.878103 21.623041">1250 CE</tspan></text>
<path
       id="path34"
       style="fill:none;stroke:#231f20;stroke-width:1.76499999;stroke-linecap:round;stroke-linejoin:round;stroke-miterlimit:10;stroke-dasharray:none;stroke-opacity:1"
       d="m 216.401,82.302 0,-1.764 m 19.439,1.764 0,-1.764 m 19.437,1.764 0,-1.764 m 19.438,1.764 0,-1.764 m 19.437,1.764 0,-4.412" /><path
       id="path36"
       style="fill:#231f20;fill-opacity:1;fill-rule:nonzero;stroke:none"
       d="m 288.953,70.39 -0.543,0 0,3.46 c -0.131,-0.125 -0.303,-0.25 -0.515,-0.374 -0.211,-0.125 -0.402,-0.219 -0.571,-0.281 l 0,0.525 c 0.304,0.142 0.57,0.315 0.796,0.518 0.228,0.204 0.389,0.401 0.483,0.592 l 0.35,0 0,-4.44" /><path
       id="path38"
       style="fill:#231f20;fill-opacity:1;fill-rule:nonzero;stroke:none"
       d="m 290.628,71.548 0.569,0.048 c 0.043,-0.277 0.141,-0.485 0.294,-0.625 0.154,-0.141 0.34,-0.21 0.557,-0.21 0.262,0 0.483,0.099 0.664,0.296 0.181,0.196 0.271,0.458 0.271,0.784 0,0.31 -0.087,0.554 -0.26,0.732 -0.174,0.18 -0.403,0.269 -0.684,0.269 -0.175,0 -0.333,-0.04 -0.474,-0.119 -0.14,-0.079 -0.251,-0.183 -0.332,-0.309 l -0.509,0.067 0.428,2.27 2.2,0 0,-0.518 -1.765,0 -0.238,-1.189 c 0.265,0.186 0.544,0.277 0.835,0.277 0.386,0 0.711,-0.133 0.977,-0.401 0.266,-0.266 0.399,-0.611 0.399,-1.031 0,-0.401 -0.118,-0.746 -0.35,-1.037 -0.284,-0.359 -0.671,-0.537 -1.162,-0.537 -0.403,0 -0.731,0.112 -0.985,0.338 -0.254,0.224 -0.399,0.523 -0.435,0.895" /><path
       id="path40"
       style="fill:#231f20;fill-opacity:1;fill-rule:nonzero;stroke:none"
       d="m 294.905,72.57 c 0,-0.725 0.085,-1.208 0.255,-1.449 0.17,-0.24 0.38,-0.36 0.629,-0.36 0.249,0 0.459,0.12 0.629,0.362 0.17,0.241 0.255,0.724 0.255,1.447 0,0.729 -0.085,1.212 -0.255,1.452 -0.17,0.239 -0.382,0.358 -0.635,0.358 -0.25,0 -0.448,-0.105 -0.597,-0.316 -0.187,-0.27 -0.281,-0.768 -0.281,-1.494 z m -0.557,0 c 0,0.524 0.053,0.944 0.161,1.263 0.107,0.319 0.267,0.565 0.479,0.737 0.212,0.173 0.479,0.26 0.801,0.26 0.237,0 0.445,-0.048 0.624,-0.143 0.18,-0.096 0.327,-0.234 0.443,-0.413 0.118,-0.181 0.209,-0.4 0.275,-0.659 0.066,-0.257 0.099,-0.606 0.099,-1.045 0,-0.518 -0.052,-0.937 -0.159,-1.255 -0.106,-0.32 -0.266,-0.566 -0.478,-0.74 -0.212,-0.173 -0.481,-0.26 -0.804,-0.26 -0.427,0 -0.761,0.152 -1.005,0.458 -0.291,0.368 -0.436,0.967 -0.436,1.797" /><path
       id="path42"
       style="fill:#231f20;fill-opacity:1;fill-rule:nonzero;stroke:none"
       d="m 298.625,72.57 c 0,-0.725 0.085,-1.208 0.255,-1.449 0.17,-0.24 0.38,-0.36 0.629,-0.36 0.249,0 0.459,0.12 0.629,0.362 0.17,0.241 0.255,0.724 0.255,1.447 0,0.729 -0.085,1.212 -0.255,1.452 -0.17,0.239 -0.382,0.358 -0.635,0.358 -0.25,0 -0.448,-0.105 -0.598,-0.316 -0.186,-0.27 -0.28,-0.768 -0.28,-1.494 z m -0.558,0 c 0,0.524 0.054,0.944 0.161,1.263 0.108,0.319 0.268,0.565 0.48,0.737 0.212,0.173 0.478,0.26 0.801,0.26 0.237,0 0.445,-0.048 0.624,-0.143 0.179,-0.096 0.327,-0.234 0.443,-0.413 0.117,-0.181 0.209,-0.4 0.275,-0.659 0.066,-0.257 0.099,-0.606 0.099,-1.045 0,-0.518 -0.053,-0.937 -0.159,-1.255 -0.106,-0.32 -0.267,-0.566 -0.479,-0.74 -0.211,-0.173 -0.48,-0.26 -0.803,-0.26 -0.427,0 -0.761,0.152 -1.005,0.458 -0.291,0.368 -0.437,0.967 -0.437,1.797" /><path
       id="path44"
       style="fill:#231f20;fill-opacity:1;fill-rule:nonzero;stroke:none"
       d="m 307.163,71.941 0.585,-0.149 c -0.123,-0.48 -0.344,-0.847 -0.662,-1.099 -0.318,-0.252 -0.708,-0.378 -1.169,-0.378 -0.477,0 -0.864,0.096 -1.163,0.291 -0.298,0.194 -0.526,0.474 -0.682,0.842 -0.155,0.369 -0.233,0.764 -0.233,1.186 0,0.461 0.088,0.862 0.264,1.205 0.175,0.343 0.426,0.604 0.75,0.781 0.326,0.178 0.683,0.267 1.073,0.267 0.442,0 0.814,-0.112 1.116,-0.338 0.302,-0.225 0.512,-0.542 0.631,-0.95 l -0.576,-0.136 c -0.103,0.322 -0.252,0.557 -0.447,0.703 -0.195,0.147 -0.44,0.221 -0.736,0.221 -0.34,0 -0.624,-0.082 -0.852,-0.245 -0.228,-0.162 -0.388,-0.381 -0.481,-0.655 -0.093,-0.275 -0.139,-0.558 -0.139,-0.85 0,-0.376 0.055,-0.704 0.164,-0.984 0.11,-0.282 0.281,-0.491 0.512,-0.629 0.231,-0.139 0.482,-0.208 0.751,-0.208 0.327,0 0.606,0.093 0.832,0.283 0.228,0.188 0.381,0.47 0.462,0.842" /><path
       id="path46"
       style="fill:#231f20;fill-opacity:1;fill-rule:nonzero;stroke:none"
       d="m 308.765,70.39 0,4.422 3.197,0 0,-0.522 -2.611,0 0,-1.354 2.446,0 0,-0.519 -2.446,0 0,-1.506 2.713,0 0,-0.521 -3.299,0" /><path
       id="path48"
       style="fill:none;stroke:#231f20;stroke-width:1.76499999;stroke-linecap:round;stroke-linejoin:round;stroke-miterlimit:10;stroke-dasharray:none;stroke-opacity:1"
       d="m 313.589,82.302 0,-1.764 m 19.438,1.764 0,-1.764 m 19.439,1.764 0,-1.764 m 19.436,1.764 0,-1.764 m 19.439,1.764 0,-4.412" /><text
       id="text50"
       style="font-variant:normal;font-weight:normal;font-size:6.17749977px;font-family:Arial;-inkscape-font-specification:ArialMT;writing-mode:lr-tb;fill:#231f20;fill-opacity:1;fill-rule:nonzero;stroke:none"
       transform="matrix(1,0,0,-1,381.1918,70.3896)"><tspan
         id="tspan52"
         y="0"
         x="0 3.7194726 7.4389453 11.158419 14.877891 16.878784 21.62372">1750 CE</tspan></text>
<path
       id="path54"
       style="fill:none;stroke:#231f20;stroke-width:1.76499999;stroke-linecap:round;stroke-linejoin:round;stroke-miterlimit:10;stroke-dasharray:none;stroke-opacity:1"
       d="m 410.778,82.302 0,-1.764 m 19.438,1.764 0,-1.764 m 19.436,1.764 0,-1.764 m 19.44,1.764 0,-1.764 m 19.437,1.764 0,-4.412" /><text
       id="text56"
       style="font-variant:normal;font-weight:normal;font-size:6.17749977px;font-family:Arial;-inkscape-font-specification:ArialMT;writing-mode:lr-tb;fill:#231f20;fill-opacity:1;fill-rule:nonzero;stroke:none"
       transform="matrix(1,0,0,-1,477.0557,70.3896)"><tspan
         id="tspan58"
         y="0"
         x="0 3.4353695 6.870739 10.306108 13.741478 15.458267 19.919102">2000 CE</tspan></text>
<g
       id="g60"><g
         clip-path="url(#clipPath64)"
         id="g62"><path
           id="path68"
           style="fill:none;stroke:#231f20;stroke-width:3.52999997;stroke-linecap:butt;stroke-linejoin:miter;stroke-miterlimit:10;stroke-dasharray:none;stroke-opacity:1"
           d="m 459.864,201.695 0,3.872 27.78,0 m -27.615,496.203 0,-4.516 3.136,0 m -3.136,4.516 0,4.517 27.615,0 m -32.59,-372.96 0,3.871 4.858,0 m -9.655,315.855 0,-9.356 0.881,0 m -76.622,-509.753 0,5.804 21.707,0 m -220.198,-28.124 0,-19.625 311.619,0 m -98.265,344.408 0,6.615 98.265,0 m -25.883,7.743 0,-2.582 25.883,0 m -41.349,-120.662 0,-5.81 40.889,0 m -158.481,-72.268 0,2.582 158.941,0 m -28.611,215.517 0,-3.872 28.611,0 m -22.415,-224.551 0,-2.581 22.415,0 m -26.74,74.851 0,-2.58 26.74,0 m -27.162,162.604 0,-2.581 27.162,0 m -54.927,194.626 0,-42.748 13.522,0 m 1.37,-333.357 0,14.358 5.788,0 m -92.85,-82.11 0,6.291 84.999,0 m 19.72,504.915 0,-3.871 22.378,0 m -22.378,3.871 0,3.872 17.612,0 m -18.872,-376.834 0,-5.16 4.597,0 m -10.23,201.321 0,2.581 29.271,0 m -32.522,-364.571 0,9.679 4.742,0 m -11.052,272.944 0,7.098 15.561,0 m -25.558,-268.428 0,-2.582 48.829,0 m -27.732,126.471 0,2.581 27.732,0 m -22.313,90.336 0,2.582 22.313,0 m -417.656,-12.261 0,155.852 73.368,0 m 321.743,-295.871 0,-2.583 22.545,0 m -188.121,-149.377 0,-5.485 188.121,0 m -22.528,487.818 0,-2.582 22.528,0 m -36.506,35.489 0,7.098 11.226,0 m -12.107,2.258 0,9.356 5.817,0 m -49.799,-547.178 0,2.578 81.369,0 m -11.083,245.201 0,-2.582 11.083,0 m -22.627,65.816 0,3.871 0.314,0 m -0.314,-3.871 0,-3.87 22.627,0 m -28.533,-0.646 0,-4.517 28.533,0 m -29.548,260.685 0,5.162 16.11,0 m -51.14,-375.622 0,20.085 23.229,0 m -13.578,335.937 0,42.748 21.439,0 m -233.111,-240.177 0,-20.507 129.435,0 m 136.704,-123.811 0,2.582 0.46,0" /><path
           id="path70"
           style="fill:none;stroke:#231f20;stroke-width:3.52999997;stroke-linecap:butt;stroke-linejoin:miter;stroke-miterlimit:10;stroke-dasharray:none;stroke-opacity:1"
           d="m 461.781,520.129 0,-11.936 0.988,0 m -4.328,97.435 0,-5.163 2.58,0 m -1.91,-178.737 0,4.516 5.906,0 m -0.586,267.138 0,-2.581 23.213,0 m -48.829,-477.492 0,2.58 48.829,0 m -179.607,153.171 0,24.115 19.333,0 m 128.143,-85.659 0,-3.871 32.131,0 m -33.636,-30.65 0,-5.485 33.636,0 m -35.329,162.283 0,-8.065 6.796,0 m -161.022,-168.413 0,-3.872 30.614,0 m 134.066,258.75 0,-5.807 1.135,0 m -4.265,-223.907 0,-5.807 28.005,0 m -48.841,-103.401 0,-10.164 48.841,0 m -133.882,1.212 0,8.952 85.041,0 m 26.426,69.848 0,2.581 22.415,0 m -39.085,-141.958 0,2.582 39.085,0 m -266.599,363.705 0,20.507 92.797,0 m 142.016,203.298 0,11.936 4.171,0 m 8.574,-349.085 0,-2.582 19.041,0 m -93.8,201.967 0,-5.808 93.8,0 m -23.845,126.472 0,-2.581 23.845,0 m -34.247,-368.442 0,-5.809 11.979,0 m 21.808,25.809 0,-2.58 0.46,0 m -26.623,281.334 0,2.581 26.623,0 m -26.046,-95.66 0,-12.744 26.046,0 m -123.077,-209.751 0,-22.542 123.077,0 m -204.775,349.126 0,51.983 149.848,0 m 22.337,-330.131 0,-3.872 32.59,0 m -23.108,198.74 0,-2.58 23.108,0 m -5.936,121.308 0,-2.581 5.936,0 M 308.037,369.06 l 0,-24.118 179.607,0 m -195.411,-75.839 0,-15.788 5.856,0 M 463.581,514 l 0,3.872 15.142,0 m -33.366,-146.475 0,-7.098 1.996,0 m -76.418,195.192 0,-7.421 22.909,0 m -110.975,59.405 0,-51.984 88.066,0 m 81.38,-129.698 0,8.067 35.329,0 m -2.533,281.332 0,-2.579 2.533,0 M 350.48,445.522 l 0,-9.115 38.899,0 m -246.023,139.881 0,35.187 139.513,0 m 163.37,9.235 0,32.343 4.018,0 m -27.191,-345.617 0,-20.083 24.543,0 m 1.662,113.081 0,3.872 13.49,0" /><path
           id="path72"
           style="fill:none;stroke:#231f20;stroke-width:3.52999997;stroke-linecap:butt;stroke-linejoin:miter;stroke-miterlimit:10;stroke-dasharray:none;stroke-opacity:1"
           d="m 370.935,559.491 0,7.421 116.709,0 m -24.296,158.087 0,-5.807 21.763,0 m -26.958,3.388 0,11.13 4.929,0 m -0.321,-329.404 0,2.58 24.883,0 m -35.368,195.192 0,13.228 4.305,0 m 5.783,35.489 0,-3.872 19.344,0 m -411.72,-226.487 0,-155.853 30.179,0 m 344.939,124.237 0,-2.582 42.538,0 m -39.275,202.127 0,-13.711 11.737,0 m 2.976,159.056 0,-8.711 0.266,0 M 327.37,393.175 l 0,13.066 85.494,0 m 41.292,299.965 0,16.374 3.997,0 m -2.428,-224.146 0,-8.954 31.919,0 m -5.936,157.443 0,2.581 5.936,0 m -31.57,12.905 0,2.582 31.57,0 m -28.611,-197.449 0,3.871 1.449,0 m 22.396,263.266 0,2.581 4.766,0 m -25.28,-86.465 0,3.871 25.28,0 m -26.071,-69.687 0,-2.581 26.071,0 m -27.162,-110.985 0,2.581 27.162,0 m -31.378,-291.658 0,5.163 6.252,0 m -4.761,401.351 0,-3.871 3.816,0 m -10.435,58.718 0,-7.097 11.652,0 m -59.344,-485.237 0,2.581 84.198,0 m -23.74,348.442 0,2.58 23.74,0 m -29.548,172.93 0,-5.162 5.703,0 m -6.042,-83.884 0,3.871 29.887,0 m -195.411,-323.618 0,15.788 72.334,0 m 41.884,95.217 0,8.712 38.655,0 m 11.475,226.486 0,-9.678 1.86,0 m -104.679,-445.309 0,-8.956 49.684,0 m 45.825,249.071 0,-3.871 38.373,0 M 462.79,636.6 l 0,2.581 24.854,0 M 463.581,514 l 0,-3.872 24.063,0 m -13.438,172.93 0,-2.581 13.438,0 m -66.836,-544.6 0,-2.581 66.836,0 m -79.178,321.34 0,3.872 79.178,0 m -23.828,73.559 0,-3.872 0.72,0 m -321.18,48.093 0,-35.187 344.288,0 m -66.836,-405.224 0,2.582 66.836,0 m -42.098,87.433 0,4.841 4.862,0 m -5.302,158.087 0,2.581 42.538,0 m -289.72,-260.151 0,31.506 45.251,0" /><path
           id="path74"
           style="fill:none;stroke:#231f20;stroke-width:3.52999997;stroke-linecap:butt;stroke-linejoin:miter;stroke-miterlimit:10;stroke-dasharray:none;stroke-opacity:1"
           d="m 446.239,620.71 0,-32.345 2.13,0 m 2.039,-357.632 0,-4.52 37.236,0 m -8.921,291.659 0,2.581 8.921,0 m -29.491,202.127 0,-11.131 29.491,0 m -29.448,-534.274 0,-2.582 29.448,0 m -40.291,189.706 0,-6.454 16.653,0 m -1.237,150.348 0,5.807 0.812,0 m -6.547,-347.15 0,2.58 30.61,0 m -26.74,141.959 0,2.581 26.74,0 m -42.098,-88.078 0,-4.841 42.098,0 m -93.8,331.019 0,5.808 20.969,0 m 40.912,-59.444 0,8.952 5.873,0 m -1.734,-305.691 0,-3.874 4.985,0 m -294.76,219.723 0,-48.484 137.948,0 m 137.32,2.337 0,7.097 14.297,0 m -1.458,-201.319 0,2.581 29.448,0 m -22.268,116.146 0,2.583 22.268,0 m -31.378,-116.149 0,-5.161 1.93,0 m -97.649,42.426 0,-6.292 78.268,0 m 21.291,361.345 0,2.581 27.538,0 m -24.854,59.365 0,-2.582 24.854,0 m -39.27,-454.585 0,12.583 6.748,0 m 29.989,527.176 0,2.582 2.533,0 m -311.619,-610.15 0,19.626 21.899,0 m 210.542,323.386 0,-3.871 53.295,0 m 6.842,-98.08 0,2.582 19.041,0 m -27.99,23.227 0,-2.58 27.99,0 m -81.369,-260.683 0,-2.581 81.369,0 m -33.636,160.345 0,5.484 5.631,0 m 1.934,306.5 0,2.581 26.071,0 m -23.213,105.822 0,2.581 23.213,0 m -40.291,-331.664 0,6.453 40.291,0 m -38.832,103.887 0,-7.097 10.221,0 m 5.34,14.195 0,2.581 23.271,0 m -23.828,47.749 0,3.872 23.828,0 m -23.845,136.795 0,2.581 23.845,0 m -9.527,-54.202 0,2.581 9.527,0 m -24.479,73.56 0,3.871 24.479,0 m -26.046,-193.739 0,12.743 0.183,0 m 1.301,213.581 0,8.712 24.562,0 m -23.638,-384.577 0,5.165 12.555,0 m -12.025,165.185 0,2.582 23.108,0 m -200.394,-371.57 0,30.75 32.481,0" /><path
           id="path76"
           style="fill:none;stroke:#231f20;stroke-width:3.52999997;stroke-linecap:butt;stroke-linejoin:miter;stroke-miterlimit:10;stroke-dasharray:none;stroke-opacity:1"
           d="m 465.099,280.417 0,2.581 22.545,0 m -13.438,400.06 0,2.58 13.438,0 m -23.74,-183.252 0,-2.582 23.74,0 m -29.271,54.202 0,-2.581 29.271,0 m -244.469,-388.669 0,51.398 26.919,0 m 185.764,475.68 0,-11.938 2.238,0 m -10.487,-390.543 0,-14.358 6.399,0 m -126.638,120.18 0,-13.067 79.081,0 m 53.188,-101.629 0,5.809 4.107,0 m -74.367,152.119 0,-6.614 62.936,0 m -56.092,-290.045 0,-3.871 24.585,0 m 17.995,33.394 0,10.162 9.571,0 m 14.144,8.066 0,2.581 25.126,0 m -198.242,-78.724 0,3.875 116.873,0 m 70.286,247.779 0,2.58 11.083,0 m -173.802,120.946 0,-11.897 134.97,0 m 14.353,222.615 0,-3.872 1.266,0 m -4.325,-118.728 0,-2.58 27.538,0 m -22.795,-374.253 0,2.582 22.795,0 m -37.236,30.33 0,4.515 3.559,0 m 11.364,194.867 0,-2.58 22.313,0 m -81.193,-47.427 0,-8.711 38.906,0 m -49.134,-231.649 0,3.872 91.421,0 m -74.78,262.621 0,-5.807 36.407,0 m -129.54,-210.477 0,-29.638 34.031,0 m 104.679,445.309 0,5.162 6.675,0 m -0.267,-412.969 0,-2.579 22.795,0 m -25.863,324.887 0,11.938 2.035,0" /><path
           id="path78"
           style="fill:none;stroke:#231f20;stroke-width:3.52999997;stroke-linecap:butt;stroke-linejoin:miter;stroke-miterlimit:10;stroke-dasharray:none;stroke-opacity:1"
           d="m 446.295,327.521 0,5.806 8.759,0 m -6.495,-233.585 0,-2.58 39.085,0 m -32.131,210.354 0,3.873 5.391,0 m 2.444,413.61 0,5.808 1.918,0 m -11.299,-495.559 0,3.871 11.262,0 m -11.832,62.592 0,5.805 2.116,0 m -355.346,-42.933 0,152.961 69.922,0 m 194.478,-132.653 0,22.545 58.499,0 m 40.68,-23.148 0,-3.871 1.353,0 m -364.932,-15.834 0,-152.959 75.858,0 m 284.996,488.841 0,-2.582 26.623,0 m -317.555,-180.339 0,48.485 50.956,0 m 232.922,-230.781 0,-3.871 33.677,0 m -72.831,326.501 0,3.871 72.831,0 m -4.766,172.93 0,-2.582 4.766,0 m -31.063,-116.791 0,9.679 7.788,0 m -8.295,37.424 0,-2.58 31.57,0 m -84.198,-508.466 0,-2.581 84.198,0 m -72.831,409.096 0,-3.872 43.56,0 m -160.284,-300.691 0,3.871 189.555,0 m -23.271,224.551 0,-2.581 23.271,0 m -217.55,-265.002 0,54.949 22.139,0 m 21.609,217.433 0,11.898 141.883,0 m 8.644,126.551 0,-3.872 13.748,0 m -14.371,-336.825 0,3.872 23.898,0 m -244.469,-125.404 0,-51.4 46.227,0 m 172.359,339.409 0,2.58 25.883,0 m -188.121,-324.888 0,5.487 74.993,0 m 85.396,203.254 0,-2.58 27.732,0 m -198.242,-223.262 0,-3.871 198.242,0 m -289.72,23.765 0,-31.508 250.635,0 m -161.309,59.465 0,-30.75 12.273,0 m 20.208,61.5 0,29.644 40.816,0 m 103.822,405.384 0,3.871 23.275,0 m -39.27,-449.423 0,-12.583 8.66,0 m -82.518,-32.906 0,-5.809 113.128,0 m -32.522,63.881 0,-9.68 1.144,0 m 8.85,428.454 0,2.58 22.528,0 m -27.99,-234.876 0,2.583 27.99,0 m -22.268,-85.175 0,-2.582 22.268,0 m -74.78,112.921 0,5.808 74.78,0 m -25.126,-224.55 0,-2.582 25.126,0 m -158.941,64.526 0,-2.581 158.941,0" /><path
           id="path80"
           style="fill:none;stroke:#231f20;stroke-width:3.52999997;stroke-linecap:butt;stroke-linejoin:miter;stroke-miterlimit:10;stroke-dasharray:none;stroke-opacity:1"
           d="m 270.094,214.154 0,-54.947 17.156,0 m 165.026,442.871 0,-13.228 5.481,0 m 20.36,32.263 0,-2.58 9.527,0 M 350.48,445.522 l 0,9.114 57.986,0 m 70.257,63.236 0,-2.582 8.921,0 m -39.275,73.075 0,13.713 3.907,0 m 10.485,-197.772 0,-2.582 24.883,0 m -421.833,18.712 4.177,0 m 384.168,285.77 0,-16.372 1.702,0 m 1.176,-522.984 0,-2.582 30.61,0" /></g></g><text
       id="text82"
       style="font-variant:normal;font-weight:normal;font-size:4.4124999px;font-family:Arial;-inkscape-font-specification:ArialMT;writing-mode:lr-tb;fill:#231f20;fill-opacity:1;fill-rule:nonzero;stroke:none"
       transform="matrix(1,0,0,-1,491.6157,710.5671)"><tspan
         id="tspan84"
         y="0"
         x="0 2.3170037 4.9781823 7.8732238 10.662365 14.118235 17.014158 19.369993 21.701117 24.01812">6a_CN_gb28</tspan><tspan
         id="tspan86"
         y="505.88385"
         x="0 2.3170037 3.6844375 6.5799198 9.1382875 12.61269 15.508172 18.707676 21.493288 24.052979 27.527382 30.934713 33.252602">6f_TH_EUTHD65</tspan><tspan
         id="tspan88"
         y="536.8587"
         x="0 2.3170037 3.6839962 6.5790377 9.1369638 12.610925 15.505966 18.065657 21.538736 23.85574 26.172743">6f_TH_TH571</tspan><tspan
         id="tspan90"
         y="542.02094"
         x="0 2.3170037 3.6844375 6.5799198 9.1382875 12.61269 15.508172 18.707676 21.493288 24.052979 27.527382">6f_TH_EUTH7</tspan><tspan
         id="tspan92"
         y="397.48242"
         x="0 2.3236225 4.6472449 7.5422864 10.256415 13.711403 16.607327 20.014217 22.331663">6d_VN_D65</tspan><tspan
         id="tspan94"
         y="5.1621838"
         x="0 2.3174009 4.9785357 7.8735328 10.66263 14.118456 17.014336 18.381283 20.984173 23.301575">6a_CN_fs12</tspan><tspan
         id="tspan96"
         y="490.39951"
         x="0 2.3174009 4.7133441 7.6092238 10.398321 12.952231 15.848111 19.381157 22.171135 24.488537">6o_CA_QC30</tspan><tspan
         id="tspan98"
         y="619.4519"
         x="0 2.3174009 5.211957 8.0006123 10.554965 13.449521 16.983007 19.772545 22.088621">6_CA_QC66</tspan><tspan
         id="tspan100"
         y="263.26697"
         x="0 2.3174009 4.5893531 7.4852328 10.27433 13.730156 16.620298 18.893133 22.859926 25.177328">6k_CN_km45</tspan><tspan
         id="tspan102"
         y="268.42783"
         x="0 2.7450163 5.4900327 8.2350483 11.469852 14.214869 16.959885 19.514723 23.047812 26.25967 28.577114 30.89456">6_LA_LAOS349</tspan><tspan
         id="tspan104"
         y="412.96631"
         x="0 2.3236225 4.6472449 7.5422864 10.256415 13.711403 16.607327 20.014217 22.331663">6d_VN_D26</tspan><tspan
         id="tspan106"
         y="531.69434"
         x="0 2.3170037 3.6839962 6.5790377 9.1369638 12.610925 15.505966 18.705029 21.490198 24.049891 27.523851 29.840855">6f_TH_EUTH36</tspan><tspan
         id="tspan108"
         y="134.21457"
         x="0 2.3170037 4.9777412 7.8723412 10.586029 14.040575 16.936058 19.649746 23.104292 25.421295 27.738298">6a_VN_VN506</tspan><tspan
         id="tspan110"
         y="77.431435"
         x="0 2.3178864 4.9790649 7.8741064 10.588235 14.043222 16.939146 20.346037 22.663483">6a_VN_D31</tspan><tspan
         id="tspan112"
         y="-10.324368"
         x="0 2.3178864 4.979506 7.8749886 10.664571 14.120882 17.017248 18.384682 20.988056 23.305943">6a_CN_fs14</tspan><tspan
         id="tspan114"
         y="459.42465"
         x="0 2.0566661 4.1133323 6.9024739 9.4489279 11.505593 14.294735 16.611298 18.928743 21.382975 22.608812 24.078615 27.022194 29.228445 30.208902 32.663136">6_CA_C269 (Asia)</tspan><tspan
         id="tspan116"
         y="247.7813"
         x="0 2.0566661 4.1133323 6.4126863 9.201827 11.258493 14.047635 16.36508 18.682526">6_TH_C208</tspan><tspan
         id="tspan118"
         y="402.6424"
         x="0 2.3236225 4.6472449 7.5422864 10.256415 13.711403 16.607327 20.014217 22.331663">6d_VN_D94</tspan><tspan
         id="tspan120"
         y="474.91251"
         x="0 2.7450163 5.4900327 8.2350483 11.469852 14.214869 16.959885 19.514723 23.047812 26.25967 28.577114 30.89456">6_LA_LAOS248</tspan><tspan
         id="tspan122"
         y="242.61823"
         x="0 2.3174009 6.2833118 9.1791916 11.737074 15.210108 18.105988 21.154099 23.4715 25.7889">6m_TH_B492</tspan><tspan
         id="tspan124"
         y="335.53622"
         x="0 2.3174009 2.9086318 5.8049526 8.3632755 11.836752 14.733072 17.932533 20.7181 23.278189 26.750782 30.15807 32.47591">6i_TH_EUTHD60</tspan><tspan
         id="tspan126"
         y="356.18317"
         x="0 2.3174009 5.2128391 7.7729278 11.245521 14.141842 16.700165 19.071398 21.38924">6_TH_Th25</tspan><tspan
         id="tspan128"
         y="598.80182"
         x="0 2.7450163 5.4900327 8.2350483 11.469852 14.214869 16.959885 19.514723 23.047812 26.25967 28.577114 30.89456">6_LA_LAOS132</tspan><tspan
         id="tspan130"
         y="-15.486551"
         x="0 2.3178864 4.9790649 7.8741064 10.663247 14.119118 17.015041 19.370874 21.692732">6a_CN_gz1</tspan><tspan
         id="tspan132"
         y="15.48611"
         x="0 2.3178864 4.9790649 7.8741064 11.348067 14.066168 16.961208 20.159389 22.945442 26.41852 29.13662">6a_HK_EUHK2</tspan><tspan
         id="tspan134"
         y="123.89153"
         x="0 2.3178864 4.9790649 7.8741064 10.588235 14.043222 16.939146 20.346037">6a_VN_D9</tspan><tspan
         id="tspan136"
         y="154.86375"
         x="0 2.7450163 5.4900327 8.2350483 11.469852 14.214869 16.959885 19.514723 23.047812 26.25967 28.576674">6_LA_LAOS23</tspan><tspan
         id="tspan138"
         y="340.69928"
         x="0 2.0566661 4.1133323 6.4126863 9.201827 11.258493 14.047635 16.36508 18.682526">6_TH_C159</tspan><tspan
         id="tspan140"
         y="227.133"
         x="0 2.0566661 4.1133323 6.4126863 9.201827 11.258493 14.047635 16.36508 18.682526">6_TH_C185</tspan><tspan
         id="tspan142"
         y="175.51292"
         x="0 2.3170037 5.2120452 7.7717361 11.243933 14.139856 16.697783 19.068619 21.386065">6_TH_Th32</tspan><tspan
         id="tspan144"
         y="36.134846"
         x="0 2.3170037 4.9777412 7.8723412 10.661041 14.11647 17.011953 19.613562 21.934978 24.251982 26.568987">6a_CN_sz826</tspan><tspan
         id="tspan146"
         y="371.67239"
         x="0 2.7935538 5.5871077 9.1131363 12.639165 15.432718 19.205847 22.042645 24.360088 26.677534">6_CN_GX004</tspan><tspan
         id="tspan148"
         y="500.72388"
         x="0 2.0571074 4.1142149 6.1713223 8.9609051 11.5078 13.564907 16.601589 19.391172 21.708618 24.025181">6p_CA_QC216</tspan><tspan
         id="tspan150"
         y="10.324368"
         x="0 2.3178864 4.9790649 7.8741064 10.663247 14.119118 17.015041 19.370874 21.702">6a_CN_gb9</tspan><tspan
         id="tspan152"
         y="87.755798"
         x="0 2.3178864 4.979506 7.8749886 10.589559 14.044988 16.941353 19.655922 23.111351 25.429237 27.747124">6a_VN_VN538</tspan><tspan
         id="tspan154"
         y="278.75308"
         x="0 2.3178864 4.6357727 7.6861339 10.493808 12.811694 15.12958 17.447466 19.765352 22.083239 24.401125 26.855799 28.082958 29.552322 32.496342 34.703033 35.683933 38.138607">6_US_537796 (Asia)</tspan><tspan
         id="tspan156"
         y="433.61639"
         x="0 2.3236225 4.6472449 7.5422864 10.256415 13.711403 16.607327 20.014217 22.331663">6d_VN_D42</tspan><tspan
         id="tspan158"
         y="103.24279"
         x="0 2.3178864 4.9790649 7.8741064 10.588235 14.043222 16.939146 20.346037 22.663483">6a_VN_D17</tspan><tspan
         id="tspan160"
         y="588.47968"
         x="0 2.7450163 5.4900327 8.2350483 11.469852 14.214869 16.959885 19.514723 23.047812 26.25967 28.577114 30.89456">6_LA_LAOS344</tspan><tspan
         id="tspan162"
         y="-30.97266"
         x="0 2.3178864 4.9790649 7.8741064 10.663247 14.119118 17.015041 19.370874 21.692732">6a_CN_gz8</tspan><tspan
         id="tspan164"
         y="180.67422"
         x="0 2.3170037 5.2120452 7.7717361 11.243933 14.139856 16.697783 19.068619 21.386065">6_TH_Th27</tspan><tspan
         id="tspan166"
         y="428.45462"
         x="0 2.3178864 4.9570026 7.8480725 10.562201 14.017189 16.91223 20.320444 22.63789">6e_VN_D82</tspan><tspan
         id="tspan168"
         y="25.810919"
         x="0 2.3178864 4.9790649 7.8741064 10.663247 14.119118 17.015041 18.382034 20.984968">6a_CN_fs1</tspan><tspan
         id="tspan170"
         y="593.64233"
         x="0 2.3204896 4.6409793 7.5359764 10.250061 13.705005 16.600883 19.313644 22.770794 25.091284 27.411774">6d_VN_VN235</tspan><tspan
         id="tspan172"
         y="211.64732"
         x="0 2.3170037 5.2120452 7.7717361 11.243933 14.139856 16.697783 19.068619 21.386065">6_TH_Th28</tspan><tspan
         id="tspan174"
         y="351.02277"
         x="0 2.3170037 2.9078374 5.8037615 8.3616877 11.834766 14.73069 17.29038 20.764343 23.081347 25.39835">6i_TH_TH602</tspan><tspan
         id="tspan176"
         y="289.07877"
         x="0 2.3170037 2.9073963 5.8028789 8.5165663 11.971112 14.865712 17.579399 21.033947 23.35095 25.667953">6l_VN_VN530</tspan><tspan
         id="tspan178"
         y="294.24094"
         x="0 2.3170037 2.9073963 5.8028789 8.5165663 11.971112 14.865712 17.579399 21.033947 23.35095 25.667953">6l_VN_VN507</tspan><tspan
         id="tspan180"
         y="160.02681"
         x="0 2.7450163 5.4900327 8.2350483 11.469852 14.214869 16.959885 19.514723 23.047812 26.25967 28.577114 30.89456">6_LA_LAOS347</tspan><tspan
         id="tspan182"
         y="387.15848"
         x="0 2.3236225 4.6472449 7.5422864 10.256415 13.711403 16.607327 20.014217 22.331663">6d_VN_D41</tspan><tspan
         id="tspan184"
         y="20.649618"
         x="0 2.3170037 4.9781823 7.8732238 10.662365 14.118235 17.014158 19.369993 21.701117 24.01812">6a_CN_gb14</tspan><tspan
         id="tspan186"
         y="495.56259"
         x="0 2.3200924 4.6401849 7.5352263 10.249355 13.704343 16.600266 19.31307 22.770266 25.090357">6p_VN_VN12</tspan><tspan
         id="tspan188"
         y="521.3717"
         x="0 2.0566661 4.1133323 6.4126863 9.201827 11.258493 14.047635 16.36508 18.682526">6_TH_C046</tspan><tspan
         id="tspan190"
         y="407.80765"
         x="0 2.3174009 4.9564729 7.8474989 10.561584 14.016527 16.911524 19.625608 23.080551 25.397953 27.715353">6e_VN_VN787</tspan><tspan
         id="tspan192"
         y="443.94162"
         x="0 2.3236225 4.6472449 7.5422864 10.256415 13.711403 16.607327 20.014217 22.331663">6d_VN_D67</tspan><tspan
         id="tspan194"
         y="345.86234"
         x="0 2.3170037 2.9078374 5.8037615 8.3616877 11.834766 14.73069 17.29038 20.764343 23.081347 25.39835">6i_TH_TH555</tspan><tspan
         id="tspan196"
         y="139.37808"
         x="0 2.3170037 4.9777412 7.8723412 10.586029 14.040575 16.936058 19.649746 23.104292 25.421295 27.738298">6a_VN_VN571</tspan><tspan
         id="tspan198"
         y="438.77988"
         x="0 2.3170037 4.9556789 7.8463073 10.559995 14.014542 16.909142 19.622829 23.077375 25.394379 27.711382">6e_VN_VN843</tspan><tspan
         id="tspan200"
         y="552.34528"
         x="0 2.3170037 3.6839962 6.5790377 9.1369638 12.610925 15.505966 18.065657 21.538736 23.85574 26.172743">6f_TH_TH271</tspan><tspan
         id="tspan202"
         y="511.04913"
         x="0 2.3170037 3.6839962 6.5790377 9.1369638 12.610925 15.505966 18.065657 21.538736 23.85574 26.172743">6f_TH_TH552</tspan><tspan
         id="tspan204"
         y="283.91568"
         x="0 2.3178864 4.5898824 7.4858065 10.197729 13.653599 16.549522 19.956413 22.272976">6k_VN_D33</tspan><tspan
         id="tspan206"
         y="469.75034"
         x="0 2.3178864 5.2133689 7.9266152 11.382926 14.279291 17.686625 20.004511">6_VN_D85</tspan><tspan
         id="tspan208"
         y="609.12842"
         x="0 2.3178864 4.6741614 7.566555 8.4080191 11.816675 14.712157 17.306707 20.026131 22.344017 24.661903">6g_ID_JK046</tspan><tspan
         id="tspan210"
         y="361.34802"
         x="0 2.3170037 5.2120452 7.7717361 11.243933 14.139856 16.697783 19.068619 21.386065">6_TH_Th26</tspan><tspan
         id="tspan212"
         y="165.18767"
         x="0 2.7450163 5.4900327 8.2350483 11.469852 14.214869 16.959885 19.514723 23.047812 26.25967 28.577114 30.89456">6_LA_LAOS384</tspan><tspan
         id="tspan214"
         y="41.298794"
         x="0 2.3170037 4.9781823 7.8732238 10.662365 14.118235 17.014158 19.369993 21.701117 24.01812">6a_CN_gb26</tspan><tspan
         id="tspan216"
         y="567.8327"
         x="0 2.0567105 4.1143031 6.1710138 8.9601994 11.506256 13.562966 16.353476 18.670523 21.1248 22.350195 23.820044 27.006353 29.460188 33.136288 35.590122 38.043957 40.497791 41.477852 43.93169">6q_CA_C99 (Cambodia)</tspan><tspan
         id="tspan218"
         y="392.32245"
         x="0 2.3236225 4.6472449 7.5422864 10.256415 13.711403 16.607327 20.014217 22.331663">6d_VN_D88</tspan><tspan
         id="tspan220"
         y="108.40674"
         x="0 2.3178864 4.9790649 7.8741064 10.588235 14.043222 16.939146 20.346037 22.663483">6a_VN_D75</tspan><tspan
         id="tspan222"
         y="216.80907"
         x="0 2.3170037 5.2120452 7.7717361 11.243933 14.139856 16.697783 19.068619 21.386065">6_TH_Th22</tspan><tspan
         id="tspan224"
         y="449.10336"
         x="0 2.3170037 5.2116036 7.9239674 11.379396 14.274879 17.681328 19.998333">6_VN_D83</tspan><tspan
         id="tspan226"
         y="516.21045"
         x="0 2.3170037 5.2120452 7.7717361 11.243933 14.139856 16.697783 19.068619 21.386065">6_TH_Th52</tspan><tspan
         id="tspan228"
         y="381.99808"
         x="0 2.3236225 4.6472449 7.5422864 10.256415 13.711403 16.607327 20.014217 22.331663">6d_VN_D53</tspan><tspan
         id="tspan230"
         y="185.83772"
         x="0 2.3170037 5.2120452 7.7717361 11.243933 14.139856 16.697783 19.068619 21.386065">6_TH_Th23</tspan><tspan
         id="tspan232"
         y="67.109268"
         x="0 2.3178864 4.9790649 7.8741064 10.588235 14.043222 16.939146 20.346037">6a_VN_D2</tspan><tspan
         id="tspan234"
         y="366.50888"
         x="0 2.7450163 5.4900327 8.2350483 11.469852 14.214869 16.959885 19.514723 23.047812 26.25967 28.577114 30.89456">6_LA_LAOS176</tspan><tspan
         id="tspan236"
         y="614.29059"
         x="0 2.3174009 4.6731906 7.5650988 8.4060774 11.814248 14.709246 17.30331 20.022247 22.339649 24.657049">6g_ID_JK148</tspan><tspan
         id="tspan238"
         y="273.59265"
         x="0 2.3174009 2.9081905 5.80407 8.5181551 11.973098 14.868095 17.58218 21.037123 23.354525 25.671925">6l_VN_VN531</tspan><tspan
         id="tspan240"
         y="-5.1608601"
         x="0 2.3174009 4.9780941 7.8726501 10.661306 14.116691 17.012129 18.378635 20.981085">6a_CN_fs6</tspan><tspan
         id="tspan242"
         y="113.56804"
         x="0 2.3174009 4.9780941 7.8726501 10.586293 14.040795 16.936234 20.34264 22.659599">6a_VN_D23</tspan><tspan
         id="tspan244"
         y="-20.647411"
         x="0 2.3174009 4.9785357 7.8735328 10.66263 14.118456 17.014336 18.381283 20.984173 23.301575">6a_CN_fs13</tspan><tspan
         id="tspan246"
         y="149.70377"
         x="0 2.3187687 4.6375375 7.5325789 10.091388 13.564466 16.459507 19.020964 22.494925 24.813694 27.132462">6b_TH_TH580</tspan><tspan
         id="tspan248"
         y="480.07559"
         x="0 2.0566661 4.1133323 6.9024739 9.4489279 11.505593 14.541835 17.330976 19.64842 21.965866">6_CA_QC227</tspan><tspan
         id="tspan250"
         y="144.53983"
         x="0 2.7450163 5.4900327 8.2350483 11.469852 14.214869 16.959885 19.514723 23.047812 26.25967 28.577114 30.89456">6_LA_LAOS373</tspan><tspan
         id="tspan252"
         y="51.62228"
         x="0 2.3174009 4.9785357 7.8735328 10.587617 14.042561 16.93844 19.652525 23.107468 25.42487 27.74227">6a_VN_VN569</tspan><tspan
         id="tspan254"
         y="562.66791"
         x="0 2.0566661 4.1133323 6.9024739 9.4489279 11.505593 14.294735 16.610857 19.065088 20.291763 21.760685 24.703823 26.910072 27.89053 30.344763">6_CA_C81 (Asia)</tspan><tspan
         id="tspan256"
         y="304.56531"
         x="0 2.3174009 4.6873107 7.5823078 10.295509 13.751335 16.647215 19.3613 22.816244 25.133644 27.451044">6h_VN_VN085</tspan><tspan
         id="tspan258"
         y="232.29607"
         x="0 2.0566661 4.1133323 6.4126863 9.201827 11.258493 14.047635 16.36508 18.682526">6_TH_C192</tspan><tspan
         id="tspan260"
         y="454.26556"
         x="0 2.3174009 5.2123981 7.925159 11.380984 14.276864 17.683712 20.001112">6_VN_D49</tspan><tspan
         id="tspan262"
         y="325.21228"
         x="0 2.7450163 5.4900327 8.2350483 11.469852 14.214869 16.959885 19.514723 23.047812 26.25967 28.577114 30.89456">6_LA_LAOS250</tspan><tspan
         id="tspan264"
         y="61.946205"
         x="0 2.3178864 4.9790649 7.8741064 10.588235 14.043222 16.939146 20.346037 22.663483">6a_VN_D45</tspan><tspan
         id="tspan266"
         y="221.97081"
         x="0 2.0566661 4.1133323 6.4126863 9.201827 11.258493 14.665385 16.983271">6_TH_D86</tspan><tspan
         id="tspan268"
         y="46.459656"
         x="0 2.3178864 4.9790649 7.8741064 10.588235 14.043222 16.939146 20.346037">6a_VN_D1</tspan><tspan
         id="tspan270"
         y="-25.808271"
         x="0 2.3178864 4.9790649 7.8741064 10.663247 14.119118 17.015041 18.382034 20.984968">6a_CN_fs3</tspan><tspan
         id="tspan272"
         y="423.29114"
         x="0 2.3236225 4.6472449 7.5422864 10.256415 13.711403 16.607327 20.014217 22.331663">6d_VN_D60</tspan><tspan
         id="tspan274"
         y="56.784904"
         x="0 2.3178864 4.9790649 7.8741064 10.588235 14.043222 16.939146 19.653275 23.108263 25.098301">6a_VN_VN11</tspan><tspan
         id="tspan276"
         y="258.10654"
         x="0 2.3178864 5.2129273 8.0020685 11.457939 14.35298 16.624977 20.591814 22.909258">6_CN_km41</tspan><tspan
         id="tspan278"
         y="129.05327"
         x="0 2.3178864 4.9790649 7.8741064 10.588235 14.043222 16.939146 20.346037 22.663483">6a_VN_D36</tspan><tspan
         id="tspan280"
         y="376.83279"
         x="0 2.3178864 4.9574437 7.8489552 10.563525 14.018953 16.914436 19.629005 23.084435 25.402321 27.720207">6e_VN_VN998</tspan><tspan
         id="tspan282"
         y="237.45648"
         x="0 2.3170037 6.282959 9.1788826 12.588862 15.999725 18.895649 22.094711 24.879881 27.928919 30.713648 33.763126">6m_MM_EUBUR1</tspan><tspan
         id="tspan284"
         y="557.50702"
         x="0 2.7450163 5.4900327 8.2350483 11.469852 14.214869 16.959885 19.514723 23.047812 26.25967 28.577114 30.89456">6_LA_LAOS310</tspan><tspan
         id="tspan286"
         y="603.96625"
         x="0 2.3170037 4.9058175 7.8017411 10.36055 13.833629 16.72867 19.288361 22.762323 25.079327 27.39633">6c_TH_TH846</tspan><tspan
         id="tspan288"
         y="206.48514"
         x="0 2.3170037 5.2120452 7.7717361 11.243933 14.139856 16.697783 19.068619 21.386065">6_TH_Th33</tspan><tspan
         id="tspan290"
         y="82.594055"
         x="0 2.3178864 4.9790649 7.8741064 10.588235 14.043222 16.939146 20.346037 22.663483">6a_VN_D16</tspan><tspan
         id="tspan292"
         y="118.72934"
         x="0 2.3178864 4.9790649 7.8741064 10.588235 14.043222 16.939146 20.346037 22.663483">6a_VN_D78</tspan><tspan
         id="tspan294"
         y="583.3175"
         x="0 2.0566661 4.1133323 6.9024739 9.4489279 11.505593 14.294735 16.611298 18.928743 21.382975 22.608812 24.078615 27.022194 29.228445 30.208902 32.663136">6_CA_C150 (Asia)</tspan><tspan
         id="tspan296"
         y="98.08149"
         x="0 2.3178864 4.9790649 7.8741064 10.588235 14.043222 16.939146 20.346037 22.663483">6a_VN_D22</tspan><tspan
         id="tspan298"
         y="314.88879"
         x="0 2.3178864 4.6882811 7.5837636 10.557347 13.607709 16.498337 19.472803 22.523165">6h_FR_FR1</tspan><tspan
         id="tspan300"
         y="72.270134"
         x="0 2.3178864 4.9790649 7.8741064 10.588235 14.043222 16.939146 20.346037 22.663483">6a_VN_D52</tspan><tspan
         id="tspan302"
         y="330.37491"
         x="0 2.3170037 2.9078374 5.8037615 8.3616877 11.834766 14.73069 17.929752 20.714922 23.274614 26.746811 30.153702 32.470703 34.787708">6i_TH_EUTHD100</tspan><tspan
         id="tspan304"
         y="299.40179"
         x="0 2.7450163 5.4900327 8.2350483 11.469852 14.214869 16.959885 19.514723 23.047812 26.25967 28.577114 30.89456">6_LA_LAOS382</tspan><tspan
         id="tspan306"
         y="418.13116"
         x="0 2.3236225 4.6472449 7.5422864 10.256415 13.711403 16.607327 20.014217 22.331663">6d_VN_D79</tspan><tspan
         id="tspan308"
         y="201.32384"
         x="0 2.3178864 5.2129273 8.0020685 11.457939 14.35298 16.624977 20.591814 22.909258">6_CN_km42</tspan><tspan
         id="tspan310"
         y="464.58948"
         x="0 2.7450163 5.4900327 8.2350483 11.469852 14.214869 16.959885 19.514723 23.047812 26.25967 28.577114 30.89456">6_LA_LAOS350</tspan><tspan
         id="tspan312"
         y="526.53479"
         x="0 2.3170037 3.6839962 6.5790377 9.1369638 12.610925 15.505966 18.065657 21.538736 23.85574 26.172743">6f_TH_TH976</tspan><tspan
         id="tspan314"
         y="30.974869"
         x="0 2.3170037 4.9777412 7.8723412 10.661041 14.11647 17.011953 19.613562 21.934978 24.251982 26.568987">6a_CN_sz593</tspan><tspan
         id="tspan316"
         y="92.918869"
         x="0 2.3178864 4.9790649 7.8741064 10.588235 14.043222 16.939146 20.346037 22.663483">6a_VN_D12</tspan><tspan
         id="tspan318"
         y="252.94524"
         x="0 2.3178864 4.5903239 7.4866886 10.199053 13.655364 16.551729 19.265417 22.721727 25.039614 27.3575">6k_VN_VN405</tspan><tspan
         id="tspan320"
         y="578.15485"
         x="0 2.7450163 5.4900327 8.2350483 11.469852 14.214869 16.959885 19.514723 23.047812 26.25967 28.577114 30.89456">6_LA_LAOS390</tspan><tspan
         id="tspan322"
         y="170.34985"
         x="0 2.3174009 5.2123981 7.9962001 11.209338 14.105218 14.946197 18.718399 21.035799 23.353201 25.670601 27.988003">6_US_IG57272</tspan><tspan
         id="tspan324"
         y="196.16078"
         x="0 2.3174009 5.2128391 7.7729278 11.245521 14.141842 16.700165 19.071398 21.38924">6_TH_Th31</tspan><tspan
         id="tspan326"
         y="572.99268"
         x="0 2.0566661 4.1133323 6.9024739 9.4489279 11.505593 14.294735 16.611298 18.928743 21.382975 22.608812 24.078615 27.022194 29.228445 30.208902 32.663136">6_CA_C197 (Asia)</tspan><tspan
         id="tspan328"
         y="320.05099"
         x="0 2.3170037 3.7162075 6.611249 9.1700573 12.643136 15.538177 18.097868 21.570948 23.887951 26.204954">6j_TH_TH553</tspan><tspan
         id="tspan330"
         y="309.72617"
         x="0 2.3170037 4.6865163 7.5811162 10.293921 13.74935 16.644833 19.358521 22.813066 25.13007 27.447073">6h_VN_VN004</tspan><tspan
         id="tspan332"
         y="485.23865"
         x="0 2.3178864 4.7138739 7.6097975 10.322602 13.77759 16.673513 19.387642 22.84263">6o_VN_VN4</tspan><tspan
         id="tspan334"
         y="190.99815"
         x="0 2.3178864 4.6882811 7.5837636 10.143014 13.615651 16.512016 19.711519 22.497131 25.057705 28.531225 30.849112">6n_TH_EUTH86</tspan><tspan
         id="tspan336"
         y="547.18396"
         x="0 2.3170037 3.6839962 6.5790377 9.1369638 12.610925 15.505966 18.705029 21.490198 24.049891 27.523851 29.840855">6f_TH_EUTH13</tspan><tspan
         id="tspan338"
         y="337.09735"
         x="-188.87662">1</tspan><tspan
         id="tspan340"
         y="494.61258"
         x="-58.539314">1</tspan><tspan
         id="tspan342"
         y="482.47159"
         x="-53.131355">1</tspan><tspan
         id="tspan344"
         y="380.84155"
         x="-51.940418">1</tspan><tspan
         id="tspan346"
         y="261.07748"
         x="-145.98845">1</tspan><tspan
         id="tspan348"
         y="326.9314"
         x="-90.016327">1</tspan><tspan
         id="tspan350"
         y="278.12915"
         x="-46.359047">1</tspan><tspan
         id="tspan352"
         y="232.40108"
         x="-48.540146">1</tspan><tspan
         id="tspan354"
         y="538.65063"
         x="-59.431961">1</tspan><tspan
         id="tspan356"
         y="220.50189"
         x="-182.63116">1</tspan><tspan
         id="tspan358"
         y="336.96631"
         x="-52.876751">1</tspan><tspan
         id="tspan360"
         y="547.16278"
         x="-149.32695 -146.89879 -145.418 -142.98984">0.98</tspan><tspan
         id="tspan362"
         y="44.90469"
         x="-66.399742">1</tspan><tspan
         id="tspan364"
         y="289.0545"
         x="-326.82239">1</tspan><tspan
         id="tspan366"
         y="147.98907"
         x="-132.59474 -130.16747 -128.68535 -126.25809">0.99</tspan><tspan
         id="tspan368"
         y="400.04254"
         x="-73.403702">1</tspan><tspan
         id="tspan370"
         y="595.41522"
         x="-326.62341 -324.19525 -322.71445 -320.28629">0.99</tspan><tspan
         id="tspan372"
         y="241.45244"
         x="-281.16141 -278.73325 -277.25247">0.9</tspan><tspan
         id="tspan374"
         y="96.44622"
         x="-214.04022">1</tspan><tspan
         id="tspan376"
         y="270.1915"
         x="-107.53395">1</tspan><tspan
         id="tspan378"
         y="421.00986"
         x="-50.62373">1</tspan><tspan
         id="tspan380"
         y="-9.8063402"
         x="-29.491827">1</tspan><tspan
         id="tspan382"
         y="300.79749"
         x="-84.044884">1</tspan><tspan
         id="tspan384"
         y="209.92822"
         x="-41.628849">1</tspan><tspan
         id="tspan386"
         y="438.3779"
         x="-208.64903 -206.22215 -204.74001">0.9</tspan><tspan
         id="tspan388"
         y="574.42145"
         x="-122.83694">1</tspan><tspan
         id="tspan390"
         y="487.43918"
         x="-136.3661">1</tspan><tspan
         id="tspan392"
         y="421.70703"
         x="-132.34412">1</tspan><tspan
         id="tspan394"
         y="252.40382"
         x="-89.328857">1</tspan></text>
<path
       id="path396"
       style="fill:#c3c2c3;fill-opacity:1;fill-rule:nonzero;stroke:none"
       d="m 527.264,745.457 1.159,0 0,-174.986 -1.159,0 0,174.986 z" /><text
       id="text398"
       style="font-variant:normal;font-weight:normal;font-size:4.94980001px;font-family:Arial;-inkscape-font-specification:ArialMT;writing-mode:lr-tb;fill:#383435;fill-opacity:1;fill-rule:nonzero;stroke:none"
       transform="matrix(0,-0.91326922,-1,0,530.4028,664.9422)"><tspan
         id="tspan400"
         y="0"
         x="0 2.4754446 5.2280779 7.980711 9.3572998 11.832745 14.585378 17.338011 18.713066 21.465698">subtype 6a</tspan></text>
<path
       id="path402"
       style="fill:#c3c2c3;fill-opacity:1;fill-rule:nonzero;stroke:none"
       d="m 526.888,539.336 1.16,0 0,-51.23 -1.16,0 0,51.23 z" /><text
       id="text404"
       style="font-variant:normal;font-weight:normal;font-size:4.94980001px;font-family:Arial;-inkscape-font-specification:ArialMT;writing-mode:lr-tb;fill:#383435;fill-opacity:1;fill-rule:nonzero;stroke:none"
       transform="matrix(0,-0.91326922,-1,0,530.8538,528.9875)"><tspan
         id="tspan406"
         y="0"
         x="0 2.4754446 5.2280779 7.980711 9.3572998 11.832745 14.585378 17.338011 18.713066 21.465698">subtype 6n</tspan></text>
<path
       id="path408"
       style="fill:#ffffff;fill-opacity:1;fill-rule:nonzero;stroke:none"
       d="m 458.69,498.251 c 0,-1.822 -1.349,-3.301 -3.013,-3.301 -1.664,0 -3.014,1.479 -3.014,3.301 0,1.821 1.35,3.299 3.014,3.299 1.664,0 3.013,-1.478 3.013,-3.299" /><path
       id="path410"
       style="fill:none;stroke:#383435;stroke-width:1.76499999;stroke-linecap:butt;stroke-linejoin:miter;stroke-miterlimit:4;stroke-dasharray:none;stroke-opacity:1"
       d="m 458.69,498.251 c 0,-1.822 -1.349,-3.301 -3.013,-3.301 -1.664,0 -3.014,1.479 -3.014,3.301 0,1.821 1.35,3.299 3.014,3.299 1.664,0 3.013,-1.478 3.013,-3.299 z" /><path
       id="path412"
       style="fill:#ffffff;fill-opacity:1;fill-rule:nonzero;stroke:none"
       d="m 449.065,471.26 c -1.666,0 -3.014,1.478 -3.014,3.3 0,1.822 1.348,3.301 3.014,3.301 1.665,0 3.013,-1.479 3.013,-3.301 0,-1.822 -1.348,-3.3 -3.013,-3.3" /><path
       id="path414"
       style="fill:none;stroke:#383435;stroke-width:1.76499999;stroke-linecap:butt;stroke-linejoin:miter;stroke-miterlimit:4;stroke-dasharray:none;stroke-opacity:1"
       d="m 449.065,471.26 c -1.666,0 -3.014,1.478 -3.014,3.3 0,1.822 1.348,3.301 3.014,3.301 1.665,0 3.013,-1.479 3.013,-3.301 0,-1.822 -1.348,-3.3 -3.013,-3.3" /><path
       id="path416"
       style="fill:#c3c2c3;fill-opacity:1;fill-rule:nonzero;stroke:none"
       d="m 529.09,486.078 1.156,0 0,-23.094 -1.156,0 0,23.094 z" /><path
       id="path418"
       style="fill:#383435;fill-opacity:1;fill-rule:nonzero;stroke:none"
       d="m 538.191,482.532 0.068,-0.392 c -0.173,-0.023 -0.305,-0.084 -0.397,-0.185 -0.092,-0.1 -0.137,-0.241 -0.137,-0.423 0,-0.182 0.041,-0.317 0.122,-0.405 0.081,-0.089 0.176,-0.133 0.286,-0.133 0.098,0 0.176,0.039 0.232,0.117 0.038,0.055 0.088,0.19 0.148,0.406 0.08,0.291 0.15,0.493 0.209,0.606 0.058,0.113 0.139,0.198 0.244,0.256 0.103,0.058 0.219,0.087 0.344,0.087 0.115,0 0.22,-0.023 0.318,-0.071 0.098,-0.048 0.179,-0.114 0.243,-0.196 0.05,-0.062 0.092,-0.146 0.127,-0.253 0.034,-0.106 0.052,-0.221 0.052,-0.343 0,-0.184 -0.03,-0.345 -0.087,-0.484 -0.059,-0.139 -0.137,-0.242 -0.236,-0.308 -0.099,-0.066 -0.232,-0.112 -0.398,-0.137 l -0.058,0.389 c 0.132,0.017 0.236,0.068 0.31,0.153 0.073,0.084 0.11,0.204 0.11,0.358 0,0.183 -0.032,0.313 -0.098,0.391 -0.067,0.078 -0.144,0.117 -0.233,0.117 -0.055,0 -0.106,-0.016 -0.152,-0.048 -0.046,-0.033 -0.085,-0.084 -0.115,-0.152 -0.017,-0.041 -0.054,-0.157 -0.112,-0.352 -0.082,-0.281 -0.149,-0.477 -0.202,-0.588 -0.051,-0.111 -0.128,-0.198 -0.228,-0.262 -0.1,-0.063 -0.224,-0.094 -0.372,-0.094 -0.145,0 -0.282,0.038 -0.41,0.115 -0.127,0.078 -0.227,0.189 -0.297,0.335 -0.071,0.146 -0.105,0.31 -0.105,0.494 0,0.305 0.069,0.537 0.207,0.697 0.139,0.159 0.345,0.261 0.617,0.305" /><path
       id="path420"
       style="fill:#383435;fill-opacity:1;fill-rule:nonzero;stroke:none"
       d="m 537.425,478.577 0.377,0 c -0.29,0.182 -0.435,0.431 -0.435,0.744 0,0.138 0.028,0.268 0.087,0.387 0.058,0.12 0.131,0.209 0.219,0.267 0.088,0.058 0.195,0.099 0.322,0.123 0.086,0.016 0.221,0.024 0.406,0.024 l 1.59,0 0,-0.397 -1.423,0 c -0.227,0 -0.381,-0.008 -0.46,-0.025 -0.114,-0.025 -0.204,-0.077 -0.269,-0.158 -0.065,-0.081 -0.098,-0.181 -0.098,-0.301 0,-0.119 0.033,-0.231 0.101,-0.335 0.066,-0.105 0.158,-0.178 0.273,-0.222 0.115,-0.043 0.282,-0.065 0.501,-0.065 l 1.375,0 0,-0.397 -2.566,0 0,0.355" /><path
       id="path422"
       style="fill:#383435;fill-opacity:1;fill-rule:nonzero;stroke:none"
       d="m 538.728,477.237 c -0.308,0 -0.531,-0.038 -0.667,-0.115 -0.224,-0.125 -0.336,-0.294 -0.336,-0.507 0,-0.174 0.082,-0.324 0.248,-0.451 0.165,-0.126 0.411,-0.189 0.738,-0.189 0.335,0 0.582,0.06 0.741,0.182 0.16,0.121 0.239,0.268 0.239,0.44 0,0.174 -0.082,0.324 -0.247,0.451 -0.165,0.126 -0.404,0.189 -0.716,0.189 z m -1.303,-0.004 0,0.368 3.543,0 0,-0.397 -1.264,0 c 0.231,-0.168 0.346,-0.382 0.346,-0.642 0,-0.144 -0.032,-0.281 -0.096,-0.409 -0.063,-0.129 -0.153,-0.235 -0.268,-0.318 -0.116,-0.084 -0.254,-0.149 -0.417,-0.196 -0.163,-0.047 -0.337,-0.07 -0.522,-0.07 -0.44,0 -0.78,0.099 -1.02,0.297 -0.241,0.199 -0.36,0.437 -0.36,0.716 0,0.276 0.126,0.493 0.379,0.651 l -0.321,0" /><path
       id="path424"
       style="fill:#383435;fill-opacity:1;fill-rule:nonzero;stroke:none"
       d="m 537.813,474.217 -0.383,-0.057 c -0.026,0.112 -0.039,0.212 -0.039,0.3 0,0.145 0.025,0.256 0.075,0.336 0.05,0.079 0.115,0.135 0.197,0.168 0.081,0.032 0.252,0.048 0.514,0.048 l 1.476,0 0,0.291 0.338,0 0,-0.291 0.636,0 0.262,-0.395 -0.898,0 0,-0.4 -0.338,0 0,0.4 -1.501,0 c -0.124,0 -0.204,-0.007 -0.239,-0.021 -0.035,-0.014 -0.063,-0.037 -0.085,-0.068 -0.02,-0.032 -0.031,-0.077 -0.031,-0.136 0,-0.044 0.006,-0.102 0.016,-0.175" /><path
       id="path426"
       style="fill:#383435;fill-opacity:1;fill-rule:nonzero;stroke:none"
       d="m 536.436,473.847 0.409,0.044 c -0.026,-0.087 -0.039,-0.163 -0.039,-0.227 0,-0.089 0.016,-0.159 0.048,-0.212 0.033,-0.053 0.078,-0.097 0.136,-0.131 0.043,-0.024 0.152,-0.065 0.323,-0.121 0.025,-0.007 0.06,-0.019 0.107,-0.035 l 2.571,0.889 0,-0.428 -1.486,-0.488 c -0.189,-0.063 -0.387,-0.12 -0.595,-0.17 0.2,-0.045 0.396,-0.1 0.585,-0.163 l 1.496,-0.501 0,-0.398 -2.61,0.893 c -0.281,0.095 -0.476,0.169 -0.582,0.222 -0.144,0.071 -0.248,0.152 -0.316,0.243 -0.066,0.091 -0.1,0.2 -0.1,0.327 0,0.076 0.017,0.162 0.053,0.256" /><path
       id="path428"
       style="fill:#383435;fill-opacity:1;fill-rule:nonzero;stroke:none"
       d="m 538.693,471.209 c -0.33,0 -0.574,-0.061 -0.732,-0.183 -0.157,-0.122 -0.236,-0.27 -0.236,-0.444 0,-0.177 0.082,-0.327 0.245,-0.453 0.164,-0.126 0.417,-0.189 0.759,-0.189 0.328,0 0.573,0.061 0.736,0.184 0.162,0.123 0.244,0.27 0.244,0.441 0,0.169 -0.087,0.318 -0.26,0.449 -0.174,0.13 -0.425,0.195 -0.756,0.195 z m -2.252,0.36 3.55,0 0,-0.362 -0.333,0 c 0.13,-0.085 0.229,-0.182 0.293,-0.289 0.066,-0.108 0.099,-0.238 0.099,-0.391 0,-0.2 -0.057,-0.376 -0.17,-0.53 -0.112,-0.153 -0.272,-0.268 -0.477,-0.346 -0.206,-0.078 -0.43,-0.117 -0.675,-0.117 -0.263,0 -0.5,0.043 -0.709,0.129 -0.211,0.086 -0.373,0.211 -0.484,0.375 -0.112,0.164 -0.168,0.337 -0.168,0.518 0,0.132 0.03,0.251 0.092,0.356 0.06,0.105 0.139,0.192 0.231,0.26 l -1.249,0 0,0.397" /><path
       id="path430"
       style="fill:#383435;fill-opacity:1;fill-rule:nonzero;stroke:none"
       d="m 538.955,468.755 0,-1.31 c 0.216,0.018 0.377,0.068 0.485,0.151 0.168,0.126 0.251,0.29 0.251,0.492 0,0.182 -0.066,0.336 -0.2,0.46 -0.134,0.125 -0.312,0.193 -0.536,0.207 z m -0.704,-1.305 -0.056,-0.411 c -0.261,0.065 -0.466,0.185 -0.611,0.36 -0.145,0.175 -0.217,0.399 -0.217,0.671 0,0.343 0.115,0.615 0.347,0.816 0.23,0.201 0.555,0.301 0.972,0.301 0.432,0 0.767,-0.101 1.005,-0.304 0.24,-0.204 0.359,-0.467 0.359,-0.791 0,-0.313 -0.117,-0.569 -0.351,-0.768 -0.233,-0.198 -0.562,-0.298 -0.986,-0.298 -0.026,0 -0.065,10e-4 -0.116,0.003 l 0,1.748 c -0.282,-0.015 -0.498,-0.088 -0.648,-0.219 -0.149,-0.131 -0.224,-0.294 -0.224,-0.49 0,-0.145 0.042,-0.27 0.126,-0.373 0.083,-0.103 0.216,-0.185 0.4,-0.245" /><path
       id="path432"
       style="fill:#383435;fill-opacity:1;fill-rule:nonzero;stroke:none"
       d="m 532.634,477.268 c -0.151,0 -0.294,-0.029 -0.431,-0.087 -0.137,-0.058 -0.241,-0.14 -0.312,-0.244 -0.073,-0.105 -0.109,-0.214 -0.109,-0.329 0,-0.168 0.074,-0.312 0.223,-0.433 0.148,-0.121 0.349,-0.181 0.604,-0.181 0.245,0 0.438,0.06 0.579,0.179 0.141,0.119 0.211,0.269 0.211,0.45 0,0.18 -0.07,0.332 -0.211,0.457 -0.141,0.125 -0.326,0.188 -0.554,0.188 z m 1.527,-1.622 -0.034,0.395 c 0.171,0.035 0.295,0.085 0.372,0.15 0.124,0.107 0.187,0.239 0.187,0.397 0,0.127 -0.04,0.238 -0.117,0.333 -0.099,0.126 -0.246,0.224 -0.437,0.296 -0.192,0.072 -0.465,0.11 -0.82,0.113 0.16,-0.096 0.279,-0.213 0.356,-0.351 0.077,-0.138 0.116,-0.284 0.116,-0.435 0,-0.265 -0.107,-0.491 -0.32,-0.677 -0.214,-0.186 -0.489,-0.279 -0.828,-0.279 -0.223,0 -0.429,0.044 -0.62,0.131 -0.191,0.088 -0.337,0.208 -0.439,0.361 -0.101,0.154 -0.152,0.327 -0.152,0.521 0,0.331 0.134,0.601 0.4,0.81 0.267,0.209 0.706,0.314 1.319,0.314 0.684,0 1.182,-0.116 1.493,-0.347 0.27,-0.202 0.406,-0.473 0.406,-0.814 0,-0.255 -0.078,-0.463 -0.234,-0.626 -0.157,-0.162 -0.373,-0.26 -0.648,-0.292" /><path
       id="path434"
       style="fill:#383435;fill-opacity:1;fill-rule:nonzero;stroke:none"
       d="m 531.485,475.083 2.567,0 0,-0.356 -0.36,0 c 0.125,-0.073 0.227,-0.171 0.303,-0.293 0.077,-0.122 0.115,-0.261 0.115,-0.418 0,-0.173 -0.04,-0.316 -0.119,-0.426 -0.078,-0.112 -0.188,-0.19 -0.331,-0.236 0.3,-0.185 0.45,-0.427 0.45,-0.724 0,-0.232 -0.07,-0.411 -0.212,-0.536 -0.14,-0.125 -0.358,-0.188 -0.651,-0.188 l -1.762,0 0,0.395 1.618,0 c 0.173,0 0.298,0.013 0.375,0.039 0.077,0.026 0.138,0.072 0.185,0.14 0.047,0.068 0.07,0.147 0.07,0.238 0,0.165 -0.06,0.302 -0.18,0.411 -0.12,0.109 -0.312,0.164 -0.576,0.164 l -1.492,0 0,0.397 1.668,0 c 0.194,0 0.338,0.032 0.435,0.097 0.097,0.065 0.145,0.171 0.145,0.318 0,0.111 -0.032,0.215 -0.096,0.31 -0.065,0.095 -0.159,0.164 -0.284,0.206 -0.124,0.043 -0.302,0.064 -0.536,0.064 l -1.332,0 0,0.398" /><path
       id="path436"
       style="fill:#c3c2c3;fill-opacity:1;fill-rule:nonzero;stroke:none"
       d="m 532.492,440.504 1.159,0 0,-25.058 -1.159,0 0,25.058 z" /><text
       id="text438"
       style="font-variant:normal;font-weight:normal;font-size:4.94980001px;font-family:Arial;-inkscape-font-specification:ArialMT;writing-mode:lr-tb;fill:#383435;fill-opacity:1;fill-rule:nonzero;stroke:none"
       transform="matrix(0,-0.91326922,-1,0,535.0718,430.6246)"><tspan
         id="tspan440"
         y="0"
         x="0 2.7530787">6l</tspan></text>
<path
       id="path442"
       style="fill:#ffffff;fill-opacity:1;fill-rule:nonzero;stroke:none"
       d="m 455.479,429.923 c 0,-1.822 -1.347,-3.299 -3.013,-3.299 -1.664,0 -3.015,1.477 -3.015,3.299 0,1.823 1.351,3.3 3.015,3.3 1.666,0 3.013,-1.477 3.013,-3.3" /><path
       id="path444"
       style="fill:none;stroke:#383435;stroke-width:1.76499999;stroke-linecap:butt;stroke-linejoin:miter;stroke-miterlimit:4;stroke-dasharray:none;stroke-opacity:1"
       d="m 455.479,429.923 c 0,-1.822 -1.347,-3.299 -3.013,-3.299 -1.664,0 -3.015,1.477 -3.015,3.299 0,1.823 1.351,3.3 3.015,3.3 1.666,0 3.013,-1.477 3.013,-3.3 z" /><path
       id="path446"
       style="fill:#c3c2c3;fill-opacity:1;fill-rule:nonzero;stroke:none"
       d="m 523.24,460.787 1.158,0 0,-14.428 -1.158,0 0,14.428 z" /><text
       id="text448"
       style="font-variant:normal;font-weight:normal;font-size:4.94980001px;font-family:Arial;-inkscape-font-specification:ArialMT;writing-mode:lr-tb;fill:#383435;fill-opacity:1;fill-rule:nonzero;stroke:none"
       transform="matrix(0,-0.91326922,-1,0,525.7388,455.28881)"><tspan
         id="tspan450"
         y="0"
         x="0 2.7526333">6k</tspan></text>
<path
       id="path452"
       style="fill:#c3c2c3;fill-opacity:1;fill-rule:nonzero;stroke:none"
       d="m 522.945,409.778 1.159,0 0,-15.218 -1.159,0 0,15.218 z" /><text
       id="text454"
       style="font-variant:normal;font-weight:normal;font-size:4.94980001px;font-family:Arial;-inkscape-font-specification:ArialMT;writing-mode:lr-tb;fill:#383435;fill-opacity:1;fill-rule:nonzero;stroke:none"
       transform="matrix(0,-0.91326922,-1,0,525.8628,405.9576)"><tspan
         id="tspan456"
         y="0"
         x="0 2.7530787">6h</tspan></text>
<text
       id="text458"
       style="font-variant:normal;font-weight:normal;font-size:3.29979992px;font-family:Helvetica;-inkscape-font-specification:Helvetica;writing-mode:lr-tb;fill:#231f20;fill-opacity:1;fill-rule:nonzero;stroke:none"
       transform="matrix(0.91329778,0,0,-1,444.89351,370.0496)"><tspan
         id="tspan460"
         y="0"
         x="0">I</tspan></text>
<path
       id="path462"
       style="fill:#c3c2c3;fill-opacity:1;fill-rule:nonzero;stroke:none"
       d="m 530.008,384.4 1.16,0 0,-36.614 -1.16,0 0,36.614 z" /><text
       id="text464"
       style="font-variant:normal;font-weight:normal;font-size:4.94980001px;font-family:Arial;-inkscape-font-specification:ArialMT;writing-mode:lr-tb;fill:#383435;fill-opacity:1;fill-rule:nonzero;stroke:none"
       transform="matrix(0,-0.91326922,-1,0,533.4778,378.7806)"><tspan
         id="tspan466"
         y="0"
         x="0 2.4754446 5.2280779 7.980711 9.3572998 11.832745 14.585378 17.338011 18.713066 21.465698">subtype 6i</tspan></text>
<path
       id="path468"
       style="fill:#c3c2c3;fill-opacity:1;fill-rule:nonzero;stroke:none"
       d="m 528.229,208.553 1.16,0 0,-51.514 -1.16,0 0,51.514 z" /><text
       id="text470"
       style="font-variant:normal;font-weight:normal;font-size:4.94980001px;font-family:Arial;-inkscape-font-specification:ArialMT;writing-mode:lr-tb;fill:#383435;fill-opacity:1;fill-rule:nonzero;stroke:none"
       transform="matrix(0,-0.91326922,-1,0,530.9197,194.6676)"><tspan
         id="tspan472"
         y="0"
         x="0 2.4754446 5.2280779 7.980711 9.3572998 11.832745 14.585378 17.338011 18.713066 21.465698">subtype 6f</tspan></text>
<path
       id="path474"
       style="fill:#ffffff;fill-opacity:1;fill-rule:nonzero;stroke:none"
       d="m 451.11,179.173 c 0,-1.822 -1.349,-3.301 -3.014,-3.301 -1.663,0 -3.013,1.479 -3.013,3.301 0,1.82 1.35,3.3 3.013,3.3 1.665,0 3.014,-1.48 3.014,-3.3" /><path
       id="path476"
       style="fill:none;stroke:#383435;stroke-width:1.76499999;stroke-linecap:butt;stroke-linejoin:miter;stroke-miterlimit:4;stroke-dasharray:none;stroke-opacity:1"
       d="m 451.11,179.173 c 0,-1.822 -1.349,-3.301 -3.014,-3.301 -1.663,0 -3.013,1.479 -3.013,3.301 0,1.82 1.35,3.3 3.013,3.3 1.665,0 3.014,-1.48 3.014,-3.3 z" /><path
       id="path478"
       style="fill:#c3c2c3;fill-opacity:1;fill-rule:nonzero;stroke:none"
       d="m 526.257,244.737 1.16,0 0,-25.796 -1.16,0 0,25.796 z" /><text
       id="text480"
       style="font-variant:normal;font-weight:normal;font-size:4.94980001px;font-family:Arial;-inkscape-font-specification:ArialMT;writing-mode:lr-tb;fill:#383435;fill-opacity:1;fill-rule:nonzero;stroke:none"
       transform="matrix(0,-0.91326922,-1,0,529.0767,242.7496)"><tspan
         id="tspan482"
         y="0"
         x="0 2.4754446 5.2280779 7.980711 9.3572998 11.832745 14.585378 17.338011 18.713066 21.465698">subtype 6o</tspan></text>
<path
       id="path484"
       style="fill:#ffffff;fill-opacity:1;fill-rule:nonzero;stroke:none"
       d="m 448.32,226.07 c 0,-1.823 -1.35,-3.298 -3.013,-3.298 -1.664,0 -3.013,1.475 -3.013,3.298 0,1.825 1.349,3.301 3.013,3.301 1.663,0 3.013,-1.476 3.013,-3.301" /><path
       id="path486"
       style="fill:none;stroke:#383435;stroke-width:1.76499999;stroke-linecap:butt;stroke-linejoin:miter;stroke-miterlimit:4;stroke-dasharray:none;stroke-opacity:1"
       d="m 448.32,226.07 c 0,-1.823 -1.35,-3.298 -3.013,-3.298 -1.664,0 -3.013,1.475 -3.013,3.298 0,1.825 1.349,3.301 3.013,3.301 1.663,0 3.013,-1.476 3.013,-3.301 z" /><path
       id="path488"
       style="fill:#c3c2c3;fill-opacity:1;fill-rule:nonzero;stroke:none"
       d="m 525.147,342.783 1.158,0 0,-76.773 -1.158,0 0,76.773 z" /><text
       id="text490"
       style="font-variant:normal;font-weight:normal;font-size:4.94980001px;font-family:Arial;-inkscape-font-specification:ArialMT;writing-mode:lr-tb;fill:#383435;fill-opacity:1;fill-rule:nonzero;stroke:none"
       transform="matrix(0,-0.91326922,-1,0,528.2137,325.8926)"><tspan
         id="tspan492"
         y="0"
         x="0 2.4754446 5.2280779 7.980711 9.3572998 11.832745 14.585378 17.338011 19.813456 21.188509 23.941143 26.693777 28.06883 31.370892 32.745945 35.498581">subtypes 6d &amp; 6e</tspan></text>
<path
       id="path494"
       style="fill:#ffffff;fill-opacity:1;fill-rule:nonzero;stroke:none"
       d="m 450.371,287.092 c 0,-1.824 -1.351,-3.304 -3.014,-3.304 -1.664,0 -3.013,1.48 -3.013,3.304 0,1.819 1.349,3.298 3.013,3.298 1.663,0 3.014,-1.479 3.014,-3.298" /><path
       id="path496"
       style="fill:none;stroke:#383435;stroke-width:1.76499999;stroke-linecap:butt;stroke-linejoin:miter;stroke-miterlimit:4;stroke-dasharray:none;stroke-opacity:1"
       d="m 450.371,287.092 c 0,-1.824 -1.351,-3.304 -3.014,-3.304 -1.664,0 -3.013,1.48 -3.013,3.304 0,1.819 1.349,3.298 3.013,3.298 1.663,0 3.014,-1.479 3.014,-3.298 z" /><path
       id="path498"
       style="fill:#ffffff;fill-opacity:1;fill-rule:nonzero;stroke:none"
       d="m 449.351,327.81 c 0,-1.823 -1.351,-3.302 -3.014,-3.302 -1.664,0 -3.014,1.479 -3.014,3.302 0,1.819 1.35,3.299 3.014,3.299 1.663,0 3.014,-1.48 3.014,-3.299" /><path
       id="path500"
       style="fill:none;stroke:#383435;stroke-width:1.76499999;stroke-linecap:butt;stroke-linejoin:miter;stroke-miterlimit:4;stroke-dasharray:none;stroke-opacity:1"
       d="m 449.351,327.81 c 0,-1.823 -1.351,-3.302 -3.014,-3.302 -1.664,0 -3.014,1.479 -3.014,3.302 0,1.819 1.35,3.299 3.014,3.299 1.663,0 3.014,-1.48 3.014,-3.299 z" /><path
       id="path502"
       style="fill:#c3c2c3;fill-opacity:1;fill-rule:nonzero;stroke:none"
       d="m 520.956,104.762 1.159,0 0,-8.66 -1.159,0 0,8.66 z" /><text
       id="text504"
       style="font-variant:normal;font-weight:normal;font-size:4.94980001px;font-family:Arial;-inkscape-font-specification:ArialMT;writing-mode:lr-tb;fill:#383435;fill-opacity:1;fill-rule:nonzero;stroke:none"
       transform="matrix(0,-0.91326922,-1,0,523.8328,102.3686)"><tspan
         id="tspan506"
         y="0"
         x="0 2.7526333">6g</tspan></text>
<path
       id="path508"
       style="fill:#ffffff;fill-opacity:1;fill-rule:nonzero;stroke:none"
       d="m 457.17,706.205 c 0,-1.821 -1.348,-3.298 -3.014,-3.298 -1.661,0 -3.013,1.477 -3.013,3.298 0,1.824 1.352,3.302 3.013,3.302 1.666,0 3.014,-1.478 3.014,-3.302" /><path
       id="path510"
       style="fill:none;stroke:#383435;stroke-width:1.76499999;stroke-linecap:butt;stroke-linejoin:miter;stroke-miterlimit:4;stroke-dasharray:none;stroke-opacity:1"
       d="m 457.17,706.205 c 0,-1.821 -1.348,-3.298 -3.014,-3.298 -1.661,0 -3.013,1.477 -3.013,3.298 0,1.824 1.352,3.302 3.013,3.302 1.666,0 3.014,-1.478 3.014,-3.302 z" /><path
       id="path512"
       style="fill:#ffffff;fill-opacity:1;fill-rule:nonzero;stroke:none"
       d="m 448.861,620.543 c 0,-1.823 -1.348,-3.3 -3.012,-3.3 -1.664,0 -3.016,1.477 -3.016,3.3 0,1.823 1.352,3.3 3.016,3.3 1.664,0 3.012,-1.477 3.012,-3.3" /><path
       id="path514"
       style="fill:none;stroke:#383435;stroke-width:1.76499999;stroke-linecap:butt;stroke-linejoin:miter;stroke-miterlimit:4;stroke-dasharray:none;stroke-opacity:1"
       d="m 448.861,620.543 c 0,-1.823 -1.348,-3.3 -3.012,-3.3 -1.664,0 -3.016,1.477 -3.016,3.3 0,1.823 1.352,3.3 3.016,3.3 1.664,0 3.012,-1.477 3.012,-3.3 z" /><path
       id="path516"
       style="fill:#ffffff;fill-opacity:1;fill-rule:nonzero;stroke:none"
       d="m 448.742,370.439 c 0,-1.824 -1.349,-3.299 -3.014,-3.299 -1.664,0 -3.014,1.475 -3.014,3.299 0,1.821 1.35,3.298 3.014,3.298 1.665,0 3.014,-1.477 3.014,-3.298" /><path
       id="path518"
       style="fill:none;stroke:#383435;stroke-width:1.76499999;stroke-linecap:butt;stroke-linejoin:miter;stroke-miterlimit:4;stroke-dasharray:none;stroke-opacity:1"
       d="m 448.742,370.439 c 0,-1.824 -1.349,-3.299 -3.014,-3.299 -1.664,0 -3.014,1.475 -3.014,3.299 0,1.821 1.35,3.298 3.014,3.298 1.665,0 3.014,-1.477 3.014,-3.298 z" /><text
       id="text520"
       style="font-variant:normal;font-weight:normal;font-size:4.4124999px;font-family:Arial;-inkscape-font-specification:ArialMT;writing-mode:lr-tb;fill:#231f20;fill-opacity:1;fill-rule:nonzero;stroke:none"
       transform="matrix(1,0,0,-1,441.0937,708.6335)"><tspan
         id="tspan522"
         y="0"
         x="0 2.4272721 3.9093866 6.336659">0.96</tspan></text>
</g></svg>