<?xml version="1.0" encoding="UTF-8" standalone="no"?>
<svg
   xmlns:dc="http://purl.org/dc/elements/1.1/"
   xmlns:cc="http://creativecommons.org/ns#"
   xmlns:rdf="http://www.w3.org/1999/02/22-rdf-syntax-ns#"
   xmlns:svg="http://www.w3.org/2000/svg"
   xmlns="http://www.w3.org/2000/svg"
   viewBox="0 0 211.3998 226.66216"
   height="226.66216"
   width="211.3998"
   xml:space="preserve"
   version="1.1"
   id="svg2"><metadata
     id="metadata8"><rdf:RDF><cc:Work
         rdf:about=""><dc:format>image/svg+xml</dc:format><dc:type
           rdf:resource="http://purl.org/dc/dcmitype/StillImage" /><dc:title></dc:title></cc:Work></rdf:RDF></metadata><defs
     id="defs6"><clipPath
       id="clipPath18"
       clipPathUnits="userSpaceOnUse"><path
         id="path20"
         d="m -8.141,191.373 177.153,0 c 0.058,0 0.109,-0.047 0.109,-0.11 l 0,-193.742 c 0,-0.058 -0.051,-0.109 -0.109,-0.109 l -177.153,0 c -0.058,0 -0.105,0.051 -0.105,0.109 l 0,193.742 c 0,0.063 0.047,0.11 0.105,0.11 z" /></clipPath><clipPath
       id="clipPath28"
       clipPathUnits="userSpaceOnUse"><path
         id="path30"
         d="M 0,0 170,0 170,182 0,182 0,0 Z" /></clipPath><clipPath
       id="clipPath38"
       clipPathUnits="userSpaceOnUse"><path
         id="path40"
         d="M 0,182 170,182 170,0.355 0,0.355 0,182 Z" /></clipPath><clipPath
       id="clipPath48"
       clipPathUnits="userSpaceOnUse"><path
         id="path50"
         d="M 67,0 170,0 170,155 67,155 67,0 Z" /></clipPath><clipPath
       id="clipPath74"
       clipPathUnits="userSpaceOnUse"><path
         id="path76"
         d="m 73.992,154.188 58.344,0 0,-154.188 -58.344,0 0,154.188 z" /></clipPath><clipPath
       id="clipPath84"
       clipPathUnits="userSpaceOnUse"><path
         id="path86"
         d="m 75,3 57,0 0,147 -57,0 0,-147 z" /></clipPath><clipPath
       id="clipPath94"
       clipPathUnits="userSpaceOnUse"><path
         id="path96"
         d="m 75.164,149.129 56.043,0 0,-146.043 -56.043,0 0,146.043 z" /></clipPath><clipPath
       id="clipPath104"
       clipPathUnits="userSpaceOnUse"><path
         id="path106"
         d="m 75,3 56,0 0,146 -56,0 0,-146 z" /></clipPath><clipPath
       id="clipPath138"
       clipPathUnits="userSpaceOnUse"><path
         id="path140"
         d="m 67.617,111.941 47.961,0 0,-111.551 -47.961,0 0,111.551 z" /></clipPath><clipPath
       id="clipPath148"
       clipPathUnits="userSpaceOnUse"><path
         id="path150"
         d="m 67,0 49,0 0,112 -49,0 0,-112 z" /></clipPath><clipPath
       id="clipPath158"
       clipPathUnits="userSpaceOnUse"><path
         id="path160"
         d="m 67,112 49,0 0,-112 -49,0 0,112 z" /></clipPath><clipPath
       id="clipPath164"
       clipPathUnits="userSpaceOnUse"><path
         id="path166"
         d="m 69.988,111.699 33.571,-1.242 12.019,-34.605 0,-74.805 -47.66,-0.625 2.07,111.277 z" /></clipPath><clipPath
       id="clipPath174"
       clipPathUnits="userSpaceOnUse"><path
         id="path176"
         d="m 73,0 60,0 0,155 -60,0 0,-155 z" /></clipPath><clipPath
       id="clipPath184"
       clipPathUnits="userSpaceOnUse"><path
         id="path186"
         d="m 73.547,154.516 59.277,0 0,-154.516 -59.277,0 0,154.516 z" /></clipPath><clipPath
       id="clipPath194"
       clipPathUnits="userSpaceOnUse"><path
         id="path196"
         d="m 73,0 60,0 0,155 -60,0 0,-155 z" /></clipPath><clipPath
       id="clipPath204"
       clipPathUnits="userSpaceOnUse"><path
         id="path206"
         d="m 73.992,154.188 58.344,0 0,-154.188 -58.344,0 0,154.188 z" /></clipPath><clipPath
       id="clipPath214"
       clipPathUnits="userSpaceOnUse"><path
         id="path216"
         d="m 75,3 57,0 0,147 -57,0 0,-147 z" /></clipPath><clipPath
       id="clipPath224"
       clipPathUnits="userSpaceOnUse"><path
         id="path226"
         d="m 75.164,149.129 56.043,0 0,-146.043 -56.043,0 0,146.043 z" /></clipPath><clipPath
       id="clipPath234"
       clipPathUnits="userSpaceOnUse"><path
         id="path236"
         d="m 75,3 56,0 0,146 -56,0 0,-146 z" /></clipPath><clipPath
       id="clipPath280"
       clipPathUnits="userSpaceOnUse"><path
         id="path282"
         d="m 0,145 51,0 0,5 -51,0 0,-5 z" /></clipPath><clipPath
       id="clipPath322"
       clipPathUnits="userSpaceOnUse"><path
         id="path324"
         d="m 0,108 48,0 0,6 -48,0 0,-6 z" /></clipPath><clipPath
       id="clipPath362"
       clipPathUnits="userSpaceOnUse"><path
         id="path364"
         d="m 0,37 46,0 0,5 -46,0 0,-5 z" /></clipPath><clipPath
       id="clipPath400"
       clipPathUnits="userSpaceOnUse"><path
         id="path402"
         d="m 0,73 51,0 0,5 -51,0 0,-5 z" /></clipPath><clipPath
       id="clipPath442"
       clipPathUnits="userSpaceOnUse"><path
         id="path444"
         d="m 145,87 4,0 0,15 -4,0 0,-15 z" /></clipPath><clipPath
       id="clipPath462"
       clipPathUnits="userSpaceOnUse"><path
         id="path464"
         d="m 145,0 4,0 0,16 -4,0 0,-16 z" /></clipPath><clipPath
       id="clipPath480"
       clipPathUnits="userSpaceOnUse"><path
         id="path482"
         d="M 0,0 170,0 170,182 0,182 0,0 Z" /></clipPath><clipPath
       id="clipPath490"
       clipPathUnits="userSpaceOnUse"><path
         id="path492"
         d="M 0,182 170,182 170,0.355 0,0.355 0,182 Z" /></clipPath><clipPath
       id="clipPath500"
       clipPathUnits="userSpaceOnUse"><path
         id="path502"
         d="m 152,3 7,0 0,179 -7,0 0,-179 z" /></clipPath></defs><g
     transform="matrix(1.25,0,0,-1.25,0,226.66216)"
     id="g10"><g
       id="g12" /><g
       id="g14"><g
         clip-path="url(#clipPath18)"
         id="g16"><g
           transform="translate(0,-0.670273)"
           id="g22"><g
             id="g24"><g
               clip-path="url(#clipPath28)"
               id="g26"><g
                 id="g32" /><g
                 id="g34"><g
                   clip-path="url(#clipPath38)"
                   id="g36"><g
                     id="g42"><g
                       id="g44"><g
                         clip-path="url(#clipPath48)"
                         id="g46"><g
                           id="g52"><g
                             transform="matrix(1,0,0,-1,0,182)"
                             id="g54"><path
                               id="path56"
                               style="fill:none;stroke:#000000;stroke-width:0.64668;stroke-linecap:butt;stroke-linejoin:miter;stroke-miterlimit:4;stroke-dasharray:none;stroke-opacity:0.42745104"
                               d="m 68.695,33.734 206.938,0" /></g><g
                             transform="matrix(1,0,0,-1,0,182)"
                             id="g58"><path
                               id="path60"
                               style="fill:none;stroke:#000000;stroke-width:0.64668;stroke-linecap:butt;stroke-linejoin:miter;stroke-miterlimit:4;stroke-dasharray:none;stroke-opacity:0.42745104"
                               d="m 68.695,70.832 206.938,0" /></g><g
                             transform="matrix(1,0,0,-1,0,182)"
                             id="g62"><path
                               id="path64"
                               style="fill:none;stroke:#000000;stroke-width:0.64668;stroke-linecap:butt;stroke-linejoin:miter;stroke-miterlimit:4;stroke-dasharray:none;stroke-opacity:0.42745104"
                               d="m 68.695,105.773 206.938,0" /></g><g
                             transform="matrix(1,0,0,-1,0,182)"
                             id="g66"><path
                               id="path68"
                               style="fill:none;stroke:#000000;stroke-width:0.64668;stroke-linecap:butt;stroke-linejoin:miter;stroke-miterlimit:4;stroke-dasharray:none;stroke-opacity:0.42657303"
                               d="m 68.695,142.176 206.938,0" /></g></g><g
                           id="g70"><g
                             clip-path="url(#clipPath74)"
                             id="g72"><g
                               id="g78"><g
                                 id="g80"><g
                                   clip-path="url(#clipPath84)"
                                   id="g82"><g
                                   id="g88" /><g
                                   id="g90"><g
                                   clip-path="url(#clipPath94)"
                                   id="g92"><g
                                   id="g98"><g
                                   id="g100"><g
                                   clip-path="url(#clipPath104)"
                                   id="g102"><g
                                   id="g108"><g
                                   transform="matrix(0,-1,1,0,0,182)"
                                   id="g110"><path
                                   id="path112"
                                   style="fill:none;stroke:#d95317;stroke-width:1.53853405;stroke-linecap:round;stroke-linejoin:round;stroke-miterlimit:10;stroke-dasharray:none;stroke-opacity:1"
                                   d="m 33.805,89.656 71.996,0" /></g><g
                                   transform="matrix(0,-1,1,0,0,182)"
                                   id="g114"><path
                                   id="path116"
                                   style="fill:none;stroke:#d95317;stroke-width:1.53853405;stroke-linecap:round;stroke-linejoin:round;stroke-miterlimit:10;stroke-dasharray:none;stroke-opacity:1"
                                   d="m 105.801,76.156 71.996,0" /></g><g
                                   transform="matrix(0,-1,1,0,0,182)"
                                   id="g118"><path
                                   id="path120"
                                   style="fill:none;stroke:#d95317;stroke-width:1.53853405;stroke-linecap:round;stroke-linejoin:round;stroke-miterlimit:10;stroke-dasharray:none;stroke-opacity:1"
                                   d="m 105.801,103.164 71.996,0" /></g><g
                                   transform="matrix(0,-1,1,0,0,182)"
                                   id="g122"><path
                                   id="path124"
                                   style="fill:none;stroke:#d95317;stroke-width:1.53853405;stroke-linecap:round;stroke-linejoin:round;stroke-miterlimit:10;stroke-dasharray:none;stroke-opacity:1"
                                   d="m 33.805,130.172 107.988,0" /></g><g
                                   transform="matrix(0,-1,1,0,0,182)"
                                   id="g126"><path
                                   id="path128"
                                   style="fill:none;stroke:#d95317;stroke-width:1.53853405;stroke-linecap:round;stroke-linejoin:round;stroke-miterlimit:10;stroke-dasharray:none;stroke-opacity:1"
                                   d="m 33.805,89.656 0,40.516" /></g><g
                                   transform="matrix(0,-1,1,0,0,182)"
                                   id="g130"><path
                                   id="path132"
                                   style="fill:none;stroke:#d95317;stroke-width:1.53853405;stroke-linecap:round;stroke-linejoin:round;stroke-miterlimit:10;stroke-dasharray:none;stroke-opacity:1"
                                   d="m 105.801,76.156 0,27.008" /></g></g></g></g></g></g></g></g></g></g></g></g><g
                           id="g134"><g
                             clip-path="url(#clipPath138)"
                             id="g136"><g
                               id="g142"><g
                                 id="g144"><g
                                   clip-path="url(#clipPath148)"
                                   id="g146"><g
                                   id="g152" /><g
                                   id="g154"><g
                                   clip-path="url(#clipPath158)"
                                   id="g156"><g
                                   clip-path="url(#clipPath164)"
                                   id="g162"><g
                                   id="g168"><g
                                   id="g170"><g
                                   clip-path="url(#clipPath174)"
                                   id="g172"><g
                                   id="g178" /><g
                                   id="g180"><g
                                   clip-path="url(#clipPath184)"
                                   id="g182"><g
                                   id="g188"><g
                                   id="g190"><g
                                   clip-path="url(#clipPath194)"
                                   id="g192"><g
                                   id="g198" /><g
                                   id="g200"><g
                                   clip-path="url(#clipPath204)"
                                   id="g202"><g
                                   id="g208"><g
                                   id="g210"><g
                                   clip-path="url(#clipPath214)"
                                   id="g212"><g
                                   id="g218" /><g
                                   id="g220"><g
                                   clip-path="url(#clipPath224)"
                                   id="g222"><g
                                   id="g228"><g
                                   id="g230"><g
                                   clip-path="url(#clipPath234)"
                                   id="g232"><g
                                   id="g238"><g
                                   transform="matrix(0,-1,1,0,0,182)"
                                   id="g240"><path
                                   id="path242"
                                   style="fill:none;stroke:#0071be;stroke-width:1.53853405;stroke-linecap:round;stroke-linejoin:round;stroke-miterlimit:10;stroke-dasharray:none;stroke-opacity:1"
                                   d="m 33.805,89.656 71.996,0" /></g><g
                                   transform="matrix(0,-1,1,0,0,182)"
                                   id="g244"><path
                                   id="path246"
                                   style="fill:none;stroke:#0071be;stroke-width:1.53853405;stroke-linecap:round;stroke-linejoin:round;stroke-miterlimit:10;stroke-dasharray:none;stroke-opacity:1"
                                   d="m 105.801,76.156 71.996,0" /></g><g
                                   transform="matrix(0,-1,1,0,0,182)"
                                   id="g248"><path
                                   id="path250"
                                   style="fill:none;stroke:#0071be;stroke-width:1.53853405;stroke-linecap:round;stroke-linejoin:round;stroke-miterlimit:10;stroke-dasharray:none;stroke-opacity:1"
                                   d="m 105.801,103.164 71.996,0" /></g><g
                                   transform="matrix(0,-1,1,0,0,182)"
                                   id="g252"><path
                                   id="path254"
                                   style="fill:none;stroke:#0071be;stroke-width:1.53853405;stroke-linecap:round;stroke-linejoin:round;stroke-miterlimit:10;stroke-dasharray:none;stroke-opacity:1"
                                   d="m 33.805,130.172 107.988,0" /></g><g
                                   transform="matrix(0,-1,1,0,0,182)"
                                   id="g256"><path
                                   id="path258"
                                   style="fill:none;stroke:#0071be;stroke-width:1.53853405;stroke-linecap:round;stroke-linejoin:round;stroke-miterlimit:10;stroke-dasharray:none;stroke-opacity:1"
                                   d="m 33.805,89.656 0,40.516" /></g><g
                                   transform="matrix(0,-1,1,0,0,182)"
                                   id="g260"><path
                                   id="path262"
                                   style="fill:none;stroke:#0071be;stroke-width:1.53853405;stroke-linecap:round;stroke-linejoin:round;stroke-miterlimit:10;stroke-dasharray:none;stroke-opacity:1"
                                   d="m 105.801,76.156 0,27.008" /></g></g></g></g></g></g></g></g></g></g></g></g></g></g></g></g></g></g></g></g></g></g></g></g></g></g></g></g><g
                           id="g264"><path
                             id="path266"
                             style="fill:#000000;fill-opacity:1;fill-rule:evenodd;stroke:none"
                             d="m 92.137,111.172 c 0,-1.414 -1.153,-2.563 -2.567,-2.563 -1.414,0 -2.562,1.149 -2.562,2.563 0,1.418 1.148,2.566 2.562,2.566 1.414,0 2.567,-1.148 2.567,-2.566 z" /><path
                             id="path268"
                             style="fill:#000000;fill-opacity:1;fill-rule:evenodd;stroke:none"
                             d="m 92.137,76.336 c 0,-1.414 -1.153,-2.563 -2.567,-2.563 -1.414,0 -2.562,1.149 -2.562,2.563 0,1.418 1.148,2.566 2.562,2.566 1.414,0 2.567,-1.148 2.567,-2.566 z" /><path
                             id="path270"
                             style="fill:#000000;fill-opacity:1;fill-rule:evenodd;stroke:none"
                             d="m 132.703,39.91 c 0,-1.418 -1.148,-2.566 -2.562,-2.566 -1.418,0 -2.567,1.148 -2.567,2.566 0,1.418 1.149,2.563 2.567,2.563 1.414,0 2.562,-1.145 2.562,-2.563 z" /><path
                             id="path272"
                             style="fill:#000000;fill-opacity:1;fill-rule:evenodd;stroke:none"
                             d="m 113.043,148.121 c 0,-1.418 -1.148,-2.562 -2.563,-2.562 -1.414,0 -2.566,1.144 -2.566,2.562 0,1.414 1.152,2.563 2.566,2.563 1.415,0 2.563,-1.149 2.563,-2.563 z" /></g></g></g></g></g></g></g></g></g><g
           transform="translate(0,-0.670273)"
           id="g274"><g
             id="g276"><g
               clip-path="url(#clipPath280)"
               id="g278"><g
                 id="g284"><path
                   id="path286"
                   style="fill:#000000;fill-opacity:1;fill-rule:nonzero;stroke:none"
                   d="m 2.938,149.281 0,-0.515 c -0.168,0.156 -0.344,0.269 -0.532,0.343 -0.187,0.082 -0.386,0.125 -0.594,0.125 -0.417,0 -0.742,-0.132 -0.968,-0.39 -0.219,-0.25 -0.328,-0.621 -0.328,-1.11 0,-0.48 0.109,-0.851 0.328,-1.109 0.226,-0.25 0.551,-0.375 0.968,-0.375 0.208,0 0.407,0.035 0.594,0.109 0.188,0.082 0.364,0.203 0.532,0.36 l 0,-0.516 C 2.77,146.086 2.586,146 2.391,145.938 2.203,145.875 2,145.844 1.781,145.844 c -0.554,0 -0.992,0.164 -1.312,0.5 -0.313,0.344 -0.469,0.804 -0.469,1.39 0,0.594 0.156,1.055 0.469,1.391 0.32,0.344 0.758,0.516 1.312,0.516 0.219,0 0.422,-0.032 0.61,-0.094 0.195,-0.063 0.379,-0.152 0.547,-0.266 z" /><path
                   id="path288"
                   style="fill:#000000;fill-opacity:1;fill-rule:nonzero;stroke:none"
                   d="m 6.023,148.344 c -0.242,0 -0.433,-0.094 -0.578,-0.282 -0.136,-0.187 -0.203,-0.449 -0.203,-0.781 0,-0.324 0.067,-0.578 0.203,-0.765 0.145,-0.188 0.336,-0.282 0.578,-0.282 0.239,0 0.426,0.094 0.563,0.282 0.144,0.187 0.219,0.441 0.219,0.765 0,0.321 -0.075,0.578 -0.219,0.766 -0.137,0.195 -0.324,0.297 -0.563,0.297 z m 0,0.375 c 0.383,0 0.688,-0.133 0.907,-0.391 0.226,-0.25 0.343,-0.601 0.343,-1.047 0,-0.449 -0.117,-0.804 -0.343,-1.062 -0.219,-0.25 -0.524,-0.375 -0.907,-0.375 -0.398,0 -0.703,0.125 -0.921,0.375 -0.219,0.258 -0.329,0.613 -0.329,1.062 0,0.446 0.11,0.797 0.329,1.047 0.218,0.258 0.523,0.391 0.921,0.391 z" /><path
                   id="path290"
                   style="fill:#000000;fill-opacity:1;fill-rule:nonzero;stroke:none"
                   d="m 9.602,147.297 c -0.368,0 -0.622,-0.043 -0.766,-0.125 -0.137,-0.086 -0.203,-0.227 -0.203,-0.422 0,-0.156 0.051,-0.281 0.156,-0.375 0.102,-0.094 0.242,-0.141 0.422,-0.141 0.25,0 0.445,0.082 0.594,0.25 0.156,0.176 0.234,0.414 0.234,0.719 l 0,0.094 -0.437,0 z m 0.89,0.187 0,-1.562 -0.453,0 0,0.422 C 9.934,146.176 9.805,146.051 9.648,145.969 9.5,145.887 9.32,145.844 9.102,145.844 c -0.282,0 -0.508,0.078 -0.672,0.234 -0.168,0.164 -0.25,0.379 -0.25,0.641 0,0.301 0.101,0.531 0.312,0.687 0.207,0.156 0.516,0.235 0.922,0.235 l 0.625,0 0,0.047 c 0,0.207 -0.07,0.367 -0.203,0.484 -0.137,0.113 -0.324,0.172 -0.563,0.172 -0.156,0 -0.312,-0.024 -0.468,-0.063 -0.149,-0.031 -0.289,-0.09 -0.422,-0.172 l 0,0.422 c 0.164,0.063 0.328,0.11 0.484,0.141 0.156,0.031 0.305,0.047 0.453,0.047 0.395,0 0.688,-0.106 0.875,-0.313 0.196,-0.199 0.297,-0.508 0.297,-0.922 z" /><path
                   id="path292"
                   style="fill:#000000;fill-opacity:1;fill-rule:nonzero;stroke:none"
                   d="m 11.742,149.719 0.453,0 0,-3.797 -0.453,0 0,3.797 z" /><path
                   id="path294"
                   style="fill:#000000;fill-opacity:1;fill-rule:nonzero;stroke:none"
                   d="m 16.094,147.406 0,-0.218 -2.063,0 c 0.02,-0.313 0.114,-0.555 0.281,-0.719 0.165,-0.157 0.395,-0.235 0.688,-0.235 0.176,0 0.344,0.02 0.5,0.063 0.164,0.039 0.328,0.101 0.484,0.187 l 0,-0.422 c -0.156,-0.074 -0.324,-0.124 -0.5,-0.156 -0.168,-0.039 -0.339,-0.062 -0.515,-0.062 -0.43,0 -0.774,0.125 -1.031,0.375 -0.25,0.258 -0.376,0.609 -0.376,1.047 0,0.445 0.118,0.8 0.36,1.062 0.238,0.258 0.562,0.391 0.969,0.391 0.375,0 0.664,-0.121 0.875,-0.36 0.218,-0.23 0.328,-0.547 0.328,-0.953 z m -0.453,0.125 c 0,0.25 -0.071,0.446 -0.203,0.594 -0.137,0.145 -0.313,0.219 -0.532,0.219 -0.25,0 -0.453,-0.074 -0.609,-0.219 -0.149,-0.137 -0.231,-0.336 -0.25,-0.594 l 1.594,0 z" /><path
                   id="path296"
                   style="fill:#000000;fill-opacity:1;fill-rule:nonzero;stroke:none"
                   d="m 18.543,148.578 0,-0.422 c -0.125,0.063 -0.262,0.11 -0.406,0.141 -0.137,0.031 -0.278,0.047 -0.422,0.047 -0.219,0 -0.387,-0.039 -0.5,-0.11 -0.117,-0.062 -0.172,-0.164 -0.172,-0.296 0,-0.106 0.039,-0.188 0.125,-0.25 0.082,-0.055 0.242,-0.11 0.484,-0.172 l 0.157,-0.032 c 0.312,-0.062 0.535,-0.156 0.671,-0.281 0.133,-0.125 0.204,-0.305 0.204,-0.531 0,-0.25 -0.102,-0.453 -0.297,-0.61 -0.199,-0.144 -0.477,-0.218 -0.828,-0.218 -0.149,0 -0.305,0.015 -0.469,0.047 -0.156,0.031 -0.324,0.07 -0.5,0.125 l 0,0.468 c 0.164,-0.086 0.328,-0.148 0.484,-0.187 0.164,-0.043 0.328,-0.063 0.485,-0.063 0.218,0 0.382,0.032 0.5,0.094 0.113,0.07 0.171,0.176 0.171,0.313 0,0.125 -0.042,0.218 -0.125,0.281 -0.085,0.062 -0.265,0.125 -0.546,0.187 l -0.157,0.032 c -0.281,0.062 -0.484,0.148 -0.609,0.265 -0.117,0.125 -0.172,0.297 -0.172,0.516 0,0.25 0.086,0.441 0.266,0.578 0.187,0.145 0.445,0.219 0.781,0.219 0.164,0 0.32,-0.012 0.469,-0.031 0.144,-0.024 0.281,-0.059 0.406,-0.11 z" /><path
                   id="path298"
                   style="fill:#000000;fill-opacity:1;fill-rule:nonzero;stroke:none"
                   d="m 21.492,148.547 0,-0.422 c -0.125,0.07 -0.258,0.125 -0.39,0.156 -0.125,0.039 -0.25,0.063 -0.375,0.063 -0.293,0 -0.524,-0.094 -0.688,-0.282 -0.156,-0.187 -0.234,-0.449 -0.234,-0.781 0,-0.336 0.078,-0.593 0.234,-0.781 0.164,-0.18 0.395,-0.266 0.688,-0.266 0.125,0 0.25,0.016 0.375,0.047 0.132,0.039 0.265,0.094 0.39,0.157 l 0,-0.407 c -0.125,-0.062 -0.258,-0.109 -0.39,-0.14 -0.137,-0.032 -0.278,-0.047 -0.422,-0.047 -0.418,0 -0.746,0.129 -0.985,0.39 -0.242,0.258 -0.359,0.61 -0.359,1.047 0,0.446 0.117,0.797 0.359,1.047 0.25,0.258 0.586,0.391 1.016,0.391 0.133,0 0.266,-0.016 0.391,-0.047 0.132,-0.024 0.265,-0.063 0.39,-0.125 z" /><path
                   id="path300"
                   style="fill:#000000;fill-opacity:1;fill-rule:nonzero;stroke:none"
                   d="m 24.914,147.406 0,-0.218 -2.062,0 c 0.019,-0.313 0.113,-0.555 0.281,-0.719 0.164,-0.157 0.394,-0.235 0.687,-0.235 0.176,0 0.344,0.02 0.5,0.063 0.164,0.039 0.328,0.101 0.485,0.187 l 0,-0.422 c -0.157,-0.074 -0.325,-0.124 -0.5,-0.156 -0.168,-0.039 -0.34,-0.062 -0.516,-0.062 -0.43,0 -0.773,0.125 -1.031,0.375 -0.25,0.258 -0.375,0.609 -0.375,1.047 0,0.445 0.117,0.8 0.359,1.062 0.238,0.258 0.563,0.391 0.969,0.391 0.375,0 0.664,-0.121 0.875,-0.36 0.219,-0.23 0.328,-0.547 0.328,-0.953 z m -0.453,0.125 c 0,0.25 -0.07,0.446 -0.203,0.594 -0.137,0.145 -0.313,0.219 -0.531,0.219 -0.25,0 -0.454,-0.074 -0.61,-0.219 -0.148,-0.137 -0.23,-0.336 -0.25,-0.594 l 1.594,0 z" /><path
                   id="path302"
                   style="fill:#000000;fill-opacity:1;fill-rule:nonzero;stroke:none"
                   d="m 27.895,147.578 0,-1.656 -0.454,0 0,1.64 c 0,0.258 -0.054,0.454 -0.156,0.579 -0.094,0.125 -0.246,0.187 -0.453,0.187 -0.242,0 -0.434,-0.078 -0.578,-0.234 -0.137,-0.149 -0.203,-0.356 -0.203,-0.625 l 0,-1.547 -0.453,0 0,2.734 0.453,0 0,-0.422 c 0.101,0.164 0.226,0.286 0.375,0.36 0.144,0.082 0.316,0.125 0.515,0.125 0.313,0 0.547,-0.102 0.704,-0.297 0.164,-0.188 0.25,-0.469 0.25,-0.844 z" /><path
                   id="path304"
                   style="fill:#000000;fill-opacity:1;fill-rule:nonzero;stroke:none"
                   d="m 29.629,149.438 0,-0.782 0.922,0 0,-0.344 -0.922,0 0,-1.484 c 0,-0.23 0.023,-0.375 0.078,-0.437 0.063,-0.063 0.188,-0.094 0.375,-0.094 l 0.469,0 0,-0.375 -0.469,0 c -0.344,0 -0.586,0.062 -0.719,0.187 -0.125,0.133 -0.187,0.375 -0.187,0.719 l 0,1.484 -0.328,0 0,0.344 0.328,0 0,0.782 0.453,0 z" /><path
                   id="path306"
                   style="fill:#000000;fill-opacity:1;fill-rule:nonzero;stroke:none"
                   d="m 34.234,149.562 2.313,0 0,-0.406 -1.813,0 0,-1.078 1.735,0 0,-0.422 -1.735,0 0,-1.312 1.86,0 0,-0.422 -2.36,0 0,3.64 z" /><path
                   id="path308"
                   style="fill:#000000;fill-opacity:1;fill-rule:nonzero;stroke:none"
                   d="m 38.391,148.656 0.468,0 0.86,-2.297 0.843,2.297 0.485,0 -1.031,-2.734 -0.61,0 -1.015,2.734 z" /><path
                   id="path310"
                   style="fill:#000000;fill-opacity:1;fill-rule:nonzero;stroke:none"
                   d="m 44.445,147.406 0,-0.218 -2.062,0 c 0.019,-0.313 0.113,-0.555 0.281,-0.719 0.164,-0.157 0.395,-0.235 0.688,-0.235 0.175,0 0.343,0.02 0.5,0.063 0.164,0.039 0.328,0.101 0.484,0.187 l 0,-0.422 c -0.156,-0.074 -0.324,-0.124 -0.5,-0.156 -0.168,-0.039 -0.34,-0.062 -0.516,-0.062 -0.429,0 -0.773,0.125 -1.031,0.375 -0.25,0.258 -0.375,0.609 -0.375,1.047 0,0.445 0.117,0.8 0.359,1.062 0.239,0.258 0.563,0.391 0.969,0.391 0.375,0 0.664,-0.121 0.875,-0.36 0.219,-0.23 0.328,-0.547 0.328,-0.953 z m -0.453,0.125 c 0,0.25 -0.07,0.446 -0.203,0.594 -0.137,0.145 -0.312,0.219 -0.531,0.219 -0.25,0 -0.453,-0.074 -0.61,-0.219 -0.148,-0.137 -0.23,-0.336 -0.25,-0.594 l 1.594,0 z" /><path
                   id="path312"
                   style="fill:#000000;fill-opacity:1;fill-rule:nonzero;stroke:none"
                   d="m 47.426,147.578 0,-1.656 -0.453,0 0,1.64 c 0,0.258 -0.055,0.454 -0.157,0.579 -0.093,0.125 -0.246,0.187 -0.453,0.187 -0.242,0 -0.433,-0.078 -0.578,-0.234 -0.137,-0.149 -0.203,-0.356 -0.203,-0.625 l 0,-1.547 -0.453,0 0,2.734 0.453,0 0,-0.422 c 0.102,0.164 0.227,0.286 0.375,0.36 0.145,0.082 0.316,0.125 0.516,0.125 0.312,0 0.547,-0.102 0.703,-0.297 0.164,-0.188 0.25,-0.469 0.25,-0.844 z" /><path
                   id="path314"
                   style="fill:#000000;fill-opacity:1;fill-rule:nonzero;stroke:none"
                   d="m 49.16,149.438 0,-0.782 0.922,0 0,-0.344 -0.922,0 0,-1.484 c 0,-0.23 0.024,-0.375 0.078,-0.437 0.063,-0.063 0.188,-0.094 0.375,-0.094 l 0.469,0 0,-0.375 -0.469,0 c -0.343,0 -0.586,0.062 -0.718,0.187 -0.125,0.133 -0.188,0.375 -0.188,0.719 l 0,1.484 -0.328,0 0,0.344 0.328,0 0,0.782 0.453,0 z" /></g></g></g></g><g
           transform="translate(0,-0.670273)"
           id="g316"><g
             id="g318"><g
               clip-path="url(#clipPath322)"
               id="g320"><g
                 id="g326"><path
                   id="path328"
                   style="fill:#000000;fill-opacity:1;fill-rule:nonzero;stroke:none"
                   d="m 0.203,112.953 0.735,0 0.937,-2.469 0.937,2.469 0.735,0 0,-3.641 -0.485,0 0,3.204 -0.937,-2.5 -0.5,0 -0.937,2.5 0,-3.204 -0.485,0 0,3.641 z" /><path
                   id="path330"
                   style="fill:#000000;fill-opacity:1;fill-rule:nonzero;stroke:none"
                   d="m 6.109,112.047 0.453,0 0,-2.735 -0.453,0 0,2.735 z m 0,1.062 0.453,0 0,-0.562 -0.453,0 0,0.562 z" /><path
                   id="path332"
                   style="fill:#000000;fill-opacity:1;fill-rule:nonzero;stroke:none"
                   d="m 9.914,110.719 c 0,0.32 -0.07,0.57 -0.203,0.75 -0.125,0.176 -0.313,0.265 -0.563,0.265 -0.242,0 -0.429,-0.089 -0.562,-0.265 -0.137,-0.18 -0.203,-0.43 -0.203,-0.75 0,-0.336 0.066,-0.59 0.203,-0.766 0.133,-0.18 0.32,-0.265 0.562,-0.265 0.25,0 0.438,0.085 0.563,0.265 0.133,0.176 0.203,0.43 0.203,0.766 z m 0.453,-1.063 c 0,-0.468 -0.105,-0.816 -0.312,-1.047 -0.211,-0.226 -0.528,-0.343 -0.953,-0.343 -0.157,0 -0.309,0.015 -0.454,0.046 -0.136,0.024 -0.265,0.059 -0.39,0.11 l 0,0.437 c 0.125,-0.07 0.25,-0.125 0.375,-0.156 0.133,-0.039 0.269,-0.062 0.406,-0.062 0.289,0 0.508,0.078 0.656,0.234 0.145,0.156 0.219,0.391 0.219,0.703 l 0,0.219 c -0.094,-0.168 -0.215,-0.293 -0.359,-0.375 -0.137,-0.074 -0.309,-0.11 -0.516,-0.11 -0.336,0 -0.605,0.126 -0.812,0.376 -0.2,0.257 -0.297,0.601 -0.297,1.031 0,0.414 0.097,0.75 0.297,1 0.207,0.258 0.476,0.39 0.812,0.39 0.207,0 0.379,-0.043 0.516,-0.125 0.144,-0.074 0.265,-0.195 0.359,-0.359 l 0,0.422 0.453,0 0,-2.391 z" /><path
                   id="path334"
                   style="fill:#000000;fill-opacity:1;fill-rule:nonzero;stroke:none"
                   d="m 13.102,111.625 c -0.055,0.031 -0.11,0.051 -0.172,0.063 -0.063,0.019 -0.133,0.031 -0.203,0.031 -0.25,0 -0.446,-0.086 -0.579,-0.25 -0.136,-0.168 -0.203,-0.407 -0.203,-0.719 l 0,-1.438 -0.453,0 0,2.735 0.453,0 0,-0.422 c 0.094,0.164 0.211,0.285 0.36,0.359 0.156,0.082 0.343,0.125 0.562,0.125 0.031,0 0.063,-0.007 0.094,-0.015 0.039,0 0.082,0 0.125,0 l 0.016,-0.469 z" /><path
                   id="path336"
                   style="fill:#000000;fill-opacity:1;fill-rule:nonzero;stroke:none"
                   d="m 15.457,110.688 c -0.367,0 -0.621,-0.043 -0.766,-0.126 -0.136,-0.085 -0.203,-0.226 -0.203,-0.421 0,-0.157 0.051,-0.282 0.157,-0.375 0.101,-0.094 0.242,-0.141 0.421,-0.141 0.25,0 0.446,0.082 0.594,0.25 0.156,0.176 0.235,0.414 0.235,0.719 l 0,0.094 -0.438,0 z m 0.891,0.187 0,-1.563 -0.453,0 0,0.422 c -0.106,-0.168 -0.235,-0.293 -0.391,-0.375 -0.149,-0.082 -0.328,-0.125 -0.547,-0.125 -0.281,0 -0.508,0.078 -0.672,0.235 -0.168,0.164 -0.25,0.379 -0.25,0.64 0,0.301 0.102,0.532 0.313,0.688 0.207,0.156 0.515,0.234 0.922,0.234 l 0.625,0 0,0.047 c 0,0.207 -0.071,0.367 -0.204,0.484 -0.136,0.114 -0.324,0.172 -0.562,0.172 -0.156,0 -0.313,-0.023 -0.469,-0.062 -0.148,-0.031 -0.289,-0.09 -0.422,-0.172 l 0,0.422 c 0.164,0.062 0.328,0.109 0.485,0.14 0.156,0.032 0.304,0.047 0.453,0.047 0.394,0 0.687,-0.105 0.875,-0.312 0.195,-0.199 0.297,-0.508 0.297,-0.922 z" /><path
                   id="path338"
                   style="fill:#000000;fill-opacity:1;fill-rule:nonzero;stroke:none"
                   d="m 18.047,112.828 0,-0.781 0.922,0 0,-0.344 -0.922,0 0,-1.484 c 0,-0.231 0.023,-0.375 0.078,-0.438 0.063,-0.062 0.187,-0.093 0.375,-0.093 l 0.469,0 0,-0.376 -0.469,0 c -0.344,0 -0.586,0.063 -0.719,0.188 -0.125,0.133 -0.187,0.375 -0.187,0.719 l 0,1.484 -0.328,0 0,0.344 0.328,0 0,0.781 0.453,0 z" /><path
                   id="path340"
                   style="fill:#000000;fill-opacity:1;fill-rule:nonzero;stroke:none"
                   d="m 20.293,112.047 0.453,0 0,-2.735 -0.453,0 0,2.735 z m 0,1.062 0.453,0 0,-0.562 -0.453,0 0,0.562 z" /><path
                   id="path342"
                   style="fill:#000000;fill-opacity:1;fill-rule:nonzero;stroke:none"
                   d="m 23.363,111.734 c -0.242,0 -0.433,-0.093 -0.578,-0.281 -0.137,-0.187 -0.203,-0.449 -0.203,-0.781 0,-0.324 0.066,-0.578 0.203,-0.766 0.145,-0.187 0.336,-0.281 0.578,-0.281 0.239,0 0.426,0.094 0.563,0.281 0.144,0.188 0.219,0.442 0.219,0.766 0,0.32 -0.075,0.578 -0.219,0.766 -0.137,0.195 -0.324,0.296 -0.563,0.296 z m 0,0.375 c 0.383,0 0.688,-0.132 0.907,-0.39 0.226,-0.25 0.343,-0.602 0.343,-1.047 0,-0.449 -0.117,-0.805 -0.343,-1.063 -0.219,-0.25 -0.524,-0.375 -0.907,-0.375 -0.398,0 -0.703,0.125 -0.922,0.375 -0.218,0.258 -0.328,0.614 -0.328,1.063 0,0.445 0.11,0.797 0.328,1.047 0.219,0.258 0.524,0.39 0.922,0.39 z" /><path
                   id="path344"
                   style="fill:#000000;fill-opacity:1;fill-rule:nonzero;stroke:none"
                   d="m 27.973,110.969 0,-1.657 -0.453,0 0,1.641 c 0,0.258 -0.055,0.453 -0.157,0.578 -0.093,0.125 -0.246,0.188 -0.453,0.188 -0.242,0 -0.433,-0.078 -0.578,-0.235 -0.137,-0.148 -0.203,-0.355 -0.203,-0.625 l 0,-1.547 -0.453,0 0,2.735 0.453,0 0,-0.422 c 0.101,0.164 0.226,0.285 0.375,0.359 0.144,0.082 0.316,0.125 0.516,0.125 0.312,0 0.546,-0.101 0.703,-0.297 0.164,-0.187 0.25,-0.468 0.25,-0.843 z" /><path
                   id="path346"
                   style="fill:#000000;fill-opacity:1;fill-rule:nonzero;stroke:none"
                   d="m 31.789,112.953 2.313,0 0,-0.406 -1.813,0 0,-1.078 1.734,0 0,-0.422 -1.734,0 0,-1.313 1.859,0 0,-0.422 -2.359,0 0,3.641 z" /><path
                   id="path348"
                   style="fill:#000000;fill-opacity:1;fill-rule:nonzero;stroke:none"
                   d="m 35.941,112.047 0.469,0 0.86,-2.297 0.843,2.297 0.485,0 -1.032,-2.735 -0.609,0 -1.016,2.735 z" /><path
                   id="path350"
                   style="fill:#000000;fill-opacity:1;fill-rule:nonzero;stroke:none"
                   d="m 41.992,110.797 0,-0.219 -2.062,0 c 0.019,-0.312 0.113,-0.555 0.281,-0.719 0.164,-0.156 0.394,-0.234 0.687,-0.234 0.176,0 0.344,0.02 0.5,0.063 0.164,0.039 0.329,0.101 0.485,0.187 l 0,-0.422 c -0.156,-0.074 -0.324,-0.125 -0.5,-0.156 -0.168,-0.039 -0.34,-0.063 -0.516,-0.063 -0.429,0 -0.773,0.125 -1.031,0.375 -0.25,0.258 -0.375,0.61 -0.375,1.047 0,0.446 0.117,0.801 0.359,1.063 0.239,0.258 0.563,0.39 0.969,0.39 0.375,0 0.664,-0.121 0.875,-0.359 0.219,-0.23 0.328,-0.547 0.328,-0.953 z m -0.453,0.125 c 0,0.25 -0.07,0.445 -0.203,0.594 -0.137,0.144 -0.313,0.218 -0.531,0.218 -0.25,0 -0.453,-0.074 -0.61,-0.218 -0.148,-0.137 -0.23,-0.336 -0.25,-0.594 l 1.594,0 z" /><path
                   id="path352"
                   style="fill:#000000;fill-opacity:1;fill-rule:nonzero;stroke:none"
                   d="m 44.973,110.969 0,-1.657 -0.453,0 0,1.641 c 0,0.258 -0.055,0.453 -0.157,0.578 -0.093,0.125 -0.246,0.188 -0.453,0.188 -0.242,0 -0.433,-0.078 -0.578,-0.235 -0.137,-0.148 -0.203,-0.355 -0.203,-0.625 l 0,-1.547 -0.453,0 0,2.735 0.453,0 0,-0.422 c 0.101,0.164 0.226,0.285 0.375,0.359 0.144,0.082 0.316,0.125 0.516,0.125 0.312,0 0.546,-0.101 0.703,-0.297 0.164,-0.187 0.25,-0.468 0.25,-0.843 z" /><path
                   id="path354"
                   style="fill:#000000;fill-opacity:1;fill-rule:nonzero;stroke:none"
                   d="m 46.711,112.828 0,-0.781 0.922,0 0,-0.344 -0.922,0 0,-1.484 c 0,-0.231 0.023,-0.375 0.078,-0.438 0.063,-0.062 0.188,-0.093 0.375,-0.093 l 0.469,0 0,-0.376 -0.469,0 c -0.344,0 -0.586,0.063 -0.719,0.188 -0.125,0.133 -0.187,0.375 -0.187,0.719 l 0,1.484 -0.328,0 0,0.344 0.328,0 0,0.781 0.453,0 z" /></g></g></g></g><g
           transform="translate(0,-0.670273)"
           id="g356"><g
             id="g358"><g
               clip-path="url(#clipPath362)"
               id="g360"><g
                 id="g366"><path
                   id="path368"
                   style="fill:#000000;fill-opacity:1;fill-rule:nonzero;stroke:none"
                   d="m 2.391,41.613 0,-0.484 C 2.203,41.211 2.023,41.273 1.859,41.316 1.691,41.367 1.535,41.395 1.391,41.395 1.117,41.395 0.91,41.34 0.766,41.238 0.617,41.133 0.547,40.98 0.547,40.785 c 0,-0.156 0.047,-0.277 0.141,-0.359 0.093,-0.086 0.273,-0.153 0.546,-0.203 L 1.531,40.16 C 1.906,40.098 2.176,39.977 2.344,39.801 2.52,39.621 2.609,39.383 2.609,39.082 2.609,38.727 2.488,38.457 2.25,38.27 2.02,38.09 1.676,38.004 1.219,38.004 c -0.18,0 -0.367,0.023 -0.563,0.062 -0.187,0.039 -0.386,0.098 -0.594,0.172 l 0,0.516 c 0.196,-0.117 0.391,-0.203 0.579,-0.266 0.195,-0.054 0.39,-0.078 0.578,-0.078 0.281,0 0.492,0.051 0.64,0.156 0.157,0.114 0.235,0.274 0.235,0.485 0,0.176 -0.059,0.316 -0.172,0.422 -0.106,0.101 -0.281,0.175 -0.531,0.218 l -0.297,0.063 c -0.367,0.07 -0.633,0.187 -0.797,0.344 -0.168,0.156 -0.25,0.375 -0.25,0.656 0,0.32 0.113,0.578 0.344,0.766 0.226,0.187 0.539,0.281 0.937,0.281 0.164,0 0.336,-0.016 0.516,-0.047 0.176,-0.031 0.359,-0.078 0.547,-0.141 z" /><path
                   id="path370"
                   style="fill:#000000;fill-opacity:1;fill-rule:nonzero;stroke:none"
                   d="M 5.176,39.457 C 4.809,39.457 4.555,39.414 4.41,39.332 4.273,39.246 4.207,39.105 4.207,38.91 c 0,-0.156 0.051,-0.281 0.156,-0.375 0.102,-0.094 0.242,-0.14 0.422,-0.14 0.25,0 0.445,0.082 0.594,0.25 0.156,0.175 0.234,0.414 0.234,0.718 l 0,0.094 -0.437,0 z m 0.89,0.188 0,-1.563 -0.453,0 0,0.422 C 5.508,38.336 5.379,38.211 5.223,38.129 5.074,38.047 4.895,38.004 4.676,38.004 c -0.281,0 -0.508,0.078 -0.672,0.234 -0.168,0.164 -0.25,0.379 -0.25,0.641 0,0.301 0.101,0.531 0.312,0.687 0.207,0.157 0.516,0.235 0.922,0.235 l 0.625,0 0,0.047 c 0,0.207 -0.07,0.367 -0.203,0.484 -0.137,0.113 -0.324,0.172 -0.562,0.172 -0.157,0 -0.313,-0.024 -0.469,-0.063 C 4.23,40.41 4.09,40.352 3.957,40.27 l 0,0.421 c 0.164,0.063 0.328,0.11 0.484,0.141 0.157,0.031 0.305,0.047 0.454,0.047 0.394,0 0.687,-0.106 0.875,-0.313 0.195,-0.199 0.296,-0.507 0.296,-0.921 z" /><path
                   id="path372"
                   style="fill:#000000;fill-opacity:1;fill-rule:nonzero;stroke:none"
                   d="m 9.441,40.285 c 0.114,0.207 0.25,0.36 0.407,0.453 0.156,0.094 0.343,0.141 0.562,0.141 0.281,0 0.5,-0.102 0.656,-0.297 0.157,-0.199 0.235,-0.48 0.235,-0.844 l 0,-1.656 -0.453,0 0,1.641 c 0,0.257 -0.047,0.453 -0.141,0.578 -0.094,0.125 -0.234,0.187 -0.422,0.187 -0.242,0 -0.43,-0.078 -0.562,-0.234 C 9.586,40.105 9.52,39.898 9.52,39.629 l 0,-1.547 -0.454,0 0,1.641 c 0,0.257 -0.046,0.453 -0.14,0.578 C 8.84,40.426 8.699,40.488 8.504,40.488 8.273,40.488 8.09,40.41 7.957,40.254 7.82,40.098 7.754,39.887 7.754,39.629 l 0,-1.547 -0.453,0 0,2.734 0.453,0 0,-0.421 c 0.101,0.164 0.223,0.285 0.359,0.359 0.145,0.082 0.317,0.125 0.516,0.125 0.195,0 0.363,-0.055 0.5,-0.156 0.144,-0.094 0.25,-0.243 0.312,-0.438 z" /><path
                   id="path374"
                   style="fill:#000000;fill-opacity:1;fill-rule:nonzero;stroke:none"
                   d="m 13.219,38.488 0,-1.453 -0.453,0 0,3.781 0.453,0 0,-0.421 c 0.093,0.164 0.211,0.285 0.359,0.359 0.145,0.082 0.317,0.125 0.516,0.125 0.332,0 0.601,-0.133 0.812,-0.391 0.207,-0.261 0.313,-0.609 0.313,-1.047 0,-0.429 -0.106,-0.777 -0.313,-1.046 -0.211,-0.262 -0.48,-0.391 -0.812,-0.391 -0.199,0 -0.371,0.043 -0.516,0.125 -0.148,0.082 -0.266,0.203 -0.359,0.359 z m 1.531,0.953 c 0,0.332 -0.07,0.594 -0.203,0.782 -0.137,0.187 -0.324,0.281 -0.563,0.281 -0.242,0 -0.429,-0.094 -0.562,-0.281 -0.137,-0.188 -0.203,-0.45 -0.203,-0.782 0,-0.324 0.066,-0.578 0.203,-0.765 0.133,-0.188 0.32,-0.281 0.562,-0.281 0.239,0 0.426,0.093 0.563,0.281 0.133,0.187 0.203,0.441 0.203,0.765 z" /><path
                   id="path376"
                   style="fill:#000000;fill-opacity:1;fill-rule:nonzero;stroke:none"
                   d="m 16.516,41.879 0.453,0 0,-3.797 -0.453,0 0,3.797 z" /><path
                   id="path378"
                   style="fill:#000000;fill-opacity:1;fill-rule:nonzero;stroke:none"
                   d="m 18.523,40.816 0.454,0 0,-2.734 -0.454,0 0,2.734 z m 0,1.063 0.454,0 0,-0.563 -0.454,0 0,0.563 z" /><path
                   id="path380"
                   style="fill:#000000;fill-opacity:1;fill-rule:nonzero;stroke:none"
                   d="m 22.809,39.738 0,-1.656 -0.454,0 0,1.641 c 0,0.257 -0.054,0.453 -0.156,0.578 -0.094,0.125 -0.246,0.187 -0.453,0.187 -0.242,0 -0.434,-0.078 -0.578,-0.234 -0.137,-0.149 -0.203,-0.356 -0.203,-0.625 l 0,-1.547 -0.453,0 0,2.734 0.453,0 0,-0.421 c 0.101,0.164 0.226,0.285 0.375,0.359 0.144,0.082 0.316,0.125 0.515,0.125 0.313,0 0.547,-0.102 0.704,-0.297 0.164,-0.187 0.25,-0.469 0.25,-0.844 z" /><path
                   id="path382"
                   style="fill:#000000;fill-opacity:1;fill-rule:nonzero;stroke:none"
                   d="m 26.062,39.488 c 0,0.321 -0.07,0.571 -0.203,0.75 -0.125,0.176 -0.312,0.266 -0.562,0.266 -0.242,0 -0.43,-0.09 -0.563,-0.266 -0.136,-0.179 -0.203,-0.429 -0.203,-0.75 0,-0.336 0.067,-0.59 0.203,-0.765 0.133,-0.18 0.321,-0.266 0.563,-0.266 0.25,0 0.437,0.086 0.562,0.266 0.133,0.175 0.203,0.429 0.203,0.765 z m 0.454,-1.062 c 0,-0.469 -0.106,-0.817 -0.313,-1.047 -0.211,-0.227 -0.527,-0.344 -0.953,-0.344 -0.156,0 -0.309,0.016 -0.453,0.047 -0.137,0.023 -0.266,0.059 -0.391,0.109 l 0,0.438 c 0.125,-0.07 0.25,-0.125 0.375,-0.156 0.133,-0.039 0.27,-0.063 0.407,-0.063 0.289,0 0.507,0.078 0.656,0.235 0.144,0.156 0.218,0.39 0.218,0.703 l 0,0.218 c -0.093,-0.168 -0.214,-0.293 -0.359,-0.375 -0.137,-0.074 -0.308,-0.109 -0.515,-0.109 -0.336,0 -0.606,0.125 -0.813,0.375 -0.199,0.258 -0.297,0.602 -0.297,1.031 0,0.414 0.098,0.75 0.297,1 0.207,0.258 0.477,0.391 0.813,0.391 0.207,0 0.378,-0.043 0.515,-0.125 0.145,-0.074 0.266,-0.195 0.359,-0.359 l 0,0.421 0.454,0 0,-2.39 z" /><path
                   id="path384"
                   style="fill:#000000;fill-opacity:1;fill-rule:nonzero;stroke:none"
                   d="m 30.016,41.723 2.312,0 0,-0.407 -1.812,0 0,-1.078 1.734,0 0,-0.422 -1.734,0 0,-1.312 1.859,0 0,-0.422 -2.359,0 0,3.641 z" /><path
                   id="path386"
                   style="fill:#000000;fill-opacity:1;fill-rule:nonzero;stroke:none"
                   d="m 34.172,40.816 0.469,0 0.859,-2.296 0.844,2.296 0.484,0 -1.031,-2.734 -0.609,0 -1.016,2.734 z" /><path
                   id="path388"
                   style="fill:#000000;fill-opacity:1;fill-rule:nonzero;stroke:none"
                   d="m 40.219,39.566 0,-0.218 -2.063,0 c 0.02,-0.313 0.114,-0.555 0.282,-0.719 0.164,-0.156 0.394,-0.234 0.687,-0.234 0.176,0 0.344,0.019 0.5,0.062 0.164,0.039 0.328,0.102 0.484,0.188 l 0,-0.422 c -0.156,-0.075 -0.324,-0.125 -0.5,-0.157 -0.168,-0.039 -0.339,-0.062 -0.515,-0.062 -0.43,0 -0.774,0.125 -1.032,0.375 -0.25,0.258 -0.374,0.609 -0.374,1.047 0,0.445 0.117,0.801 0.359,1.062 0.238,0.258 0.562,0.391 0.969,0.391 0.375,0 0.664,-0.121 0.875,-0.359 0.218,-0.231 0.328,-0.547 0.328,-0.954 z m -0.453,0.125 c 0,0.25 -0.071,0.446 -0.204,0.594 -0.136,0.145 -0.312,0.219 -0.531,0.219 -0.25,0 -0.453,-0.074 -0.609,-0.219 -0.149,-0.137 -0.231,-0.336 -0.25,-0.594 l 1.594,0 z" /><path
                   id="path390"
                   style="fill:#000000;fill-opacity:1;fill-rule:nonzero;stroke:none"
                   d="m 43.203,39.738 0,-1.656 -0.453,0 0,1.641 c 0,0.257 -0.055,0.453 -0.156,0.578 -0.094,0.125 -0.246,0.187 -0.453,0.187 -0.243,0 -0.434,-0.078 -0.579,-0.234 -0.136,-0.149 -0.203,-0.356 -0.203,-0.625 l 0,-1.547 -0.453,0 0,2.734 0.453,0 0,-0.421 c 0.102,0.164 0.227,0.285 0.375,0.359 0.145,0.082 0.317,0.125 0.516,0.125 0.312,0 0.547,-0.102 0.703,-0.297 0.164,-0.187 0.25,-0.469 0.25,-0.844 z" /><path
                   id="path392"
                   style="fill:#000000;fill-opacity:1;fill-rule:nonzero;stroke:none"
                   d="m 44.941,41.598 0,-0.782 0.922,0 0,-0.343 -0.922,0 0,-1.485 c 0,-0.23 0.024,-0.375 0.079,-0.437 0.062,-0.063 0.187,-0.094 0.375,-0.094 l 0.468,0 0,-0.375 -0.468,0 c -0.344,0 -0.586,0.063 -0.719,0.188 -0.125,0.132 -0.188,0.375 -0.188,0.718 l 0,1.485 -0.328,0 0,0.343 0.328,0 0,0.782 0.453,0 z" /></g></g></g></g><g
           transform="translate(0,-0.670273)"
           id="g394"><g
             id="g396"><g
               clip-path="url(#clipPath400)"
               id="g398"><g
                 id="g404"><path
                   id="path406"
                   style="fill:#000000;fill-opacity:1;fill-rule:nonzero;stroke:none"
                   d="m 2.938,77.121 0,-0.516 c -0.168,0.157 -0.344,0.27 -0.532,0.344 -0.187,0.082 -0.386,0.125 -0.594,0.125 -0.417,0 -0.742,-0.133 -0.968,-0.39 -0.219,-0.25 -0.328,-0.622 -0.328,-1.11 0,-0.48 0.109,-0.851 0.328,-1.109 0.226,-0.25 0.551,-0.375 0.968,-0.375 0.208,0 0.407,0.035 0.594,0.109 0.188,0.082 0.364,0.203 0.532,0.36 l 0,-0.516 C 2.77,73.926 2.586,73.84 2.391,73.777 2.203,73.715 2,73.684 1.781,73.684 c -0.554,0 -0.992,0.164 -1.312,0.5 C 0.156,74.527 0,74.988 0,75.574 c 0,0.594 0.156,1.055 0.469,1.391 0.32,0.344 0.758,0.515 1.312,0.515 0.219,0 0.422,-0.031 0.61,-0.093 0.195,-0.063 0.379,-0.153 0.547,-0.266 z" /><path
                   id="path408"
                   style="fill:#000000;fill-opacity:1;fill-rule:nonzero;stroke:none"
                   d="M 6.023,76.184 C 5.781,76.184 5.59,76.09 5.445,75.902 5.309,75.715 5.242,75.453 5.242,75.121 c 0,-0.324 0.067,-0.578 0.203,-0.766 0.145,-0.187 0.336,-0.281 0.578,-0.281 0.239,0 0.426,0.094 0.563,0.281 0.144,0.188 0.219,0.442 0.219,0.766 0,0.32 -0.075,0.578 -0.219,0.766 -0.137,0.195 -0.324,0.297 -0.563,0.297 z m 0,0.375 c 0.383,0 0.688,-0.133 0.907,-0.391 0.226,-0.25 0.343,-0.602 0.343,-1.047 0,-0.449 -0.117,-0.805 -0.343,-1.062 -0.219,-0.25 -0.524,-0.375 -0.907,-0.375 -0.398,0 -0.703,0.125 -0.921,0.375 -0.219,0.257 -0.329,0.613 -0.329,1.062 0,0.445 0.11,0.797 0.329,1.047 0.218,0.258 0.523,0.391 0.921,0.391 z" /><path
                   id="path410"
                   style="fill:#000000;fill-opacity:1;fill-rule:nonzero;stroke:none"
                   d="M 9.602,75.137 C 9.234,75.137 8.98,75.094 8.836,75.012 8.699,74.926 8.633,74.785 8.633,74.59 c 0,-0.156 0.051,-0.281 0.156,-0.375 0.102,-0.094 0.242,-0.141 0.422,-0.141 0.25,0 0.445,0.082 0.594,0.25 0.156,0.176 0.234,0.414 0.234,0.719 l 0,0.094 -0.437,0 z m 0.89,0.187 0,-1.562 -0.453,0 0,0.422 C 9.934,74.016 9.805,73.891 9.648,73.809 9.5,73.727 9.32,73.684 9.102,73.684 c -0.282,0 -0.508,0.078 -0.672,0.234 -0.168,0.164 -0.25,0.379 -0.25,0.641 0,0.3 0.101,0.531 0.312,0.687 0.207,0.156 0.516,0.234 0.922,0.234 l 0.625,0 0,0.047 c 0,0.207 -0.07,0.368 -0.203,0.485 -0.137,0.113 -0.324,0.172 -0.563,0.172 -0.156,0 -0.312,-0.024 -0.468,-0.063 C 8.656,76.09 8.516,76.031 8.383,75.949 l 0,0.422 c 0.164,0.063 0.328,0.109 0.484,0.141 0.156,0.031 0.305,0.047 0.453,0.047 0.395,0 0.688,-0.106 0.875,-0.313 0.196,-0.199 0.297,-0.508 0.297,-0.922 z" /><path
                   id="path412"
                   style="fill:#000000;fill-opacity:1;fill-rule:nonzero;stroke:none"
                   d="m 11.742,77.559 0.453,0 0,-3.797 -0.453,0 0,3.797 z" /><path
                   id="path414"
                   style="fill:#000000;fill-opacity:1;fill-rule:nonzero;stroke:none"
                   d="m 16.094,75.246 0,-0.219 -2.063,0 c 0.02,-0.312 0.114,-0.554 0.281,-0.718 0.165,-0.157 0.395,-0.235 0.688,-0.235 0.176,0 0.344,0.02 0.5,0.063 0.164,0.039 0.328,0.101 0.484,0.187 l 0,-0.422 c -0.156,-0.074 -0.324,-0.125 -0.5,-0.156 -0.168,-0.039 -0.339,-0.062 -0.515,-0.062 -0.43,0 -0.774,0.125 -1.031,0.375 -0.25,0.257 -0.376,0.609 -0.376,1.046 0,0.446 0.118,0.801 0.36,1.063 0.238,0.258 0.562,0.391 0.969,0.391 0.375,0 0.664,-0.121 0.875,-0.36 0.218,-0.23 0.328,-0.547 0.328,-0.953 z m -0.453,0.125 c 0,0.25 -0.071,0.445 -0.203,0.594 -0.137,0.144 -0.313,0.219 -0.532,0.219 -0.25,0 -0.453,-0.075 -0.609,-0.219 -0.149,-0.137 -0.231,-0.336 -0.25,-0.594 l 1.594,0 z" /><path
                   id="path416"
                   style="fill:#000000;fill-opacity:1;fill-rule:nonzero;stroke:none"
                   d="m 18.543,76.418 0,-0.422 c -0.125,0.063 -0.262,0.109 -0.406,0.141 -0.137,0.031 -0.278,0.047 -0.422,0.047 -0.219,0 -0.387,-0.039 -0.5,-0.11 -0.117,-0.062 -0.172,-0.164 -0.172,-0.297 0,-0.105 0.039,-0.187 0.125,-0.25 0.082,-0.054 0.242,-0.109 0.484,-0.172 l 0.157,-0.031 c 0.312,-0.062 0.535,-0.156 0.671,-0.281 0.133,-0.125 0.204,-0.305 0.204,-0.531 0,-0.25 -0.102,-0.453 -0.297,-0.61 -0.199,-0.144 -0.477,-0.218 -0.828,-0.218 -0.149,0 -0.305,0.015 -0.469,0.046 -0.156,0.032 -0.324,0.071 -0.5,0.125 l 0,0.469 c 0.164,-0.086 0.328,-0.148 0.484,-0.187 0.164,-0.043 0.328,-0.063 0.485,-0.063 0.218,0 0.382,0.031 0.5,0.094 0.113,0.07 0.171,0.176 0.171,0.312 0,0.125 -0.042,0.219 -0.125,0.282 -0.085,0.062 -0.265,0.125 -0.546,0.187 l -0.157,0.031 c -0.281,0.063 -0.484,0.149 -0.609,0.266 -0.117,0.125 -0.172,0.297 -0.172,0.516 0,0.25 0.086,0.441 0.266,0.578 0.187,0.144 0.445,0.219 0.781,0.219 0.164,0 0.32,-0.012 0.469,-0.032 0.144,-0.023 0.281,-0.058 0.406,-0.109 z" /><path
                   id="path418"
                   style="fill:#000000;fill-opacity:1;fill-rule:nonzero;stroke:none"
                   d="m 21.492,76.387 0,-0.422 c -0.125,0.07 -0.258,0.125 -0.39,0.156 -0.125,0.039 -0.25,0.063 -0.375,0.063 -0.293,0 -0.524,-0.094 -0.688,-0.282 -0.156,-0.187 -0.234,-0.449 -0.234,-0.781 0,-0.336 0.078,-0.594 0.234,-0.781 0.164,-0.18 0.395,-0.266 0.688,-0.266 0.125,0 0.25,0.016 0.375,0.047 0.132,0.039 0.265,0.094 0.39,0.156 l 0,-0.406 c -0.125,-0.062 -0.258,-0.109 -0.39,-0.141 -0.137,-0.031 -0.278,-0.046 -0.422,-0.046 -0.418,0 -0.746,0.128 -0.985,0.39 -0.242,0.258 -0.359,0.61 -0.359,1.047 0,0.445 0.117,0.797 0.359,1.047 0.25,0.258 0.586,0.391 1.016,0.391 0.133,0 0.266,-0.016 0.391,-0.047 0.132,-0.024 0.265,-0.063 0.39,-0.125 z" /><path
                   id="path420"
                   style="fill:#000000;fill-opacity:1;fill-rule:nonzero;stroke:none"
                   d="m 24.914,75.246 0,-0.219 -2.062,0 c 0.019,-0.312 0.113,-0.554 0.281,-0.718 0.164,-0.157 0.394,-0.235 0.687,-0.235 0.176,0 0.344,0.02 0.5,0.063 0.164,0.039 0.328,0.101 0.485,0.187 l 0,-0.422 c -0.157,-0.074 -0.325,-0.125 -0.5,-0.156 -0.168,-0.039 -0.34,-0.062 -0.516,-0.062 -0.43,0 -0.773,0.125 -1.031,0.375 -0.25,0.257 -0.375,0.609 -0.375,1.046 0,0.446 0.117,0.801 0.359,1.063 0.238,0.258 0.563,0.391 0.969,0.391 0.375,0 0.664,-0.121 0.875,-0.36 0.219,-0.23 0.328,-0.547 0.328,-0.953 z m -0.453,0.125 c 0,0.25 -0.07,0.445 -0.203,0.594 -0.137,0.144 -0.313,0.219 -0.531,0.219 -0.25,0 -0.454,-0.075 -0.61,-0.219 -0.148,-0.137 -0.23,-0.336 -0.25,-0.594 l 1.594,0 z" /><path
                   id="path422"
                   style="fill:#000000;fill-opacity:1;fill-rule:nonzero;stroke:none"
                   d="m 27.895,75.418 0,-1.656 -0.454,0 0,1.64 c 0,0.258 -0.054,0.453 -0.156,0.578 -0.094,0.125 -0.246,0.188 -0.453,0.188 -0.242,0 -0.434,-0.078 -0.578,-0.234 -0.137,-0.149 -0.203,-0.356 -0.203,-0.625 l 0,-1.547 -0.453,0 0,2.734 0.453,0 0,-0.422 c 0.101,0.164 0.226,0.285 0.375,0.36 0.144,0.082 0.316,0.125 0.515,0.125 0.313,0 0.547,-0.102 0.704,-0.297 0.164,-0.188 0.25,-0.469 0.25,-0.844 z" /><path
                   id="path424"
                   style="fill:#000000;fill-opacity:1;fill-rule:nonzero;stroke:none"
                   d="m 29.629,77.277 0,-0.781 0.922,0 0,-0.344 -0.922,0 0,-1.484 c 0,-0.23 0.023,-0.375 0.078,-0.438 0.063,-0.062 0.188,-0.093 0.375,-0.093 l 0.469,0 0,-0.375 -0.469,0 c -0.344,0 -0.586,0.062 -0.719,0.187 -0.125,0.133 -0.187,0.375 -0.187,0.719 l 0,1.484 -0.328,0 0,0.344 0.328,0 0,0.781 0.453,0 z" /><path
                   id="path426"
                   style="fill:#000000;fill-opacity:1;fill-rule:nonzero;stroke:none"
                   d="m 34.234,77.402 2.313,0 0,-0.406 -1.813,0 0,-1.078 1.735,0 0,-0.422 -1.735,0 0,-1.312 1.86,0 0,-0.422 -2.36,0 0,3.64 z" /><path
                   id="path428"
                   style="fill:#000000;fill-opacity:1;fill-rule:nonzero;stroke:none"
                   d="m 38.391,76.496 0.468,0 0.86,-2.297 0.843,2.297 0.485,0 -1.031,-2.734 -0.61,0 -1.015,2.734 z" /><path
                   id="path430"
                   style="fill:#000000;fill-opacity:1;fill-rule:nonzero;stroke:none"
                   d="m 44.445,75.246 0,-0.219 -2.062,0 c 0.019,-0.312 0.113,-0.554 0.281,-0.718 0.164,-0.157 0.395,-0.235 0.688,-0.235 0.175,0 0.343,0.02 0.5,0.063 0.164,0.039 0.328,0.101 0.484,0.187 l 0,-0.422 c -0.156,-0.074 -0.324,-0.125 -0.5,-0.156 -0.168,-0.039 -0.34,-0.062 -0.516,-0.062 -0.429,0 -0.773,0.125 -1.031,0.375 -0.25,0.257 -0.375,0.609 -0.375,1.046 0,0.446 0.117,0.801 0.359,1.063 0.239,0.258 0.563,0.391 0.969,0.391 0.375,0 0.664,-0.121 0.875,-0.36 0.219,-0.23 0.328,-0.547 0.328,-0.953 z m -0.453,0.125 c 0,0.25 -0.07,0.445 -0.203,0.594 -0.137,0.144 -0.312,0.219 -0.531,0.219 -0.25,0 -0.453,-0.075 -0.61,-0.219 -0.148,-0.137 -0.23,-0.336 -0.25,-0.594 l 1.594,0 z" /><path
                   id="path432"
                   style="fill:#000000;fill-opacity:1;fill-rule:nonzero;stroke:none"
                   d="m 47.426,75.418 0,-1.656 -0.453,0 0,1.64 c 0,0.258 -0.055,0.453 -0.157,0.578 -0.093,0.125 -0.246,0.188 -0.453,0.188 -0.242,0 -0.433,-0.078 -0.578,-0.234 -0.137,-0.149 -0.203,-0.356 -0.203,-0.625 l 0,-1.547 -0.453,0 0,2.734 0.453,0 0,-0.422 c 0.102,0.164 0.227,0.285 0.375,0.36 0.145,0.082 0.316,0.125 0.516,0.125 0.312,0 0.547,-0.102 0.703,-0.297 0.164,-0.188 0.25,-0.469 0.25,-0.844 z" /><path
                   id="path434"
                   style="fill:#000000;fill-opacity:1;fill-rule:nonzero;stroke:none"
                   d="m 49.16,77.277 0,-0.781 0.922,0 0,-0.344 -0.922,0 0,-1.484 c 0,-0.23 0.024,-0.375 0.078,-0.438 0.063,-0.062 0.188,-0.093 0.375,-0.093 l 0.469,0 0,-0.375 -0.469,0 c -0.343,0 -0.586,0.062 -0.718,0.187 -0.125,0.133 -0.188,0.375 -0.188,0.719 l 0,1.484 -0.328,0 0,0.344 0.328,0 0,0.781 0.453,0 z" /></g></g></g></g><g
           transform="translate(0,-0.670273)"
           id="g436"><g
             id="g438"><g
               clip-path="url(#clipPath442)"
               id="g440"><g
                 id="g446"><path
                   id="path448"
                   style="fill:#000000;fill-opacity:1;fill-rule:nonzero;stroke:none"
                   d="m 146.125,89.031 0.344,-0.062 0,-0.891 1.484,-0.297 c 0.063,-0.011 0.117,-0.023 0.156,-0.031 0.032,0 0.059,0 0.079,0 0.105,0 0.183,0.031 0.234,0.094 0.043,0.062 0.062,0.16 0.062,0.297 l 0,0.468 0.375,-0.078 0,-0.437 c 0,-0.262 -0.05,-0.461 -0.156,-0.594 -0.101,-0.137 -0.258,-0.203 -0.469,-0.203 -0.039,0 -0.082,0 -0.125,0 -0.05,0.008 -0.101,0.019 -0.156,0.031 l -1.484,0.297 0,-0.391 -0.344,0.078 0,0.376 -0.781,0.156 0,0.437 0.781,-0.14 0,0.89 z" /><path
                   id="path450"
                   style="fill:#000000;fill-opacity:1;fill-rule:nonzero;stroke:none"
                   d="m 145.062,90.652 0,0.438 0.563,-0.11 0,-0.437 -0.563,0.109 z m 1.063,-0.218 0,0.453 2.734,-0.532 0,-0.453 -2.734,0.532 z" /><path
                   id="path452"
                   style="fill:#000000;fill-opacity:1;fill-rule:nonzero;stroke:none"
                   d="m 147.203,96.871 1.656,-0.312 0,-0.454 -1.64,0.313 c -0.063,0.02 -0.117,0.031 -0.172,0.031 -0.051,0.008 -0.098,0.016 -0.141,0.016 -0.144,0 -0.254,-0.043 -0.328,-0.125 -0.082,-0.086 -0.125,-0.199 -0.125,-0.344 0,-0.219 0.086,-0.418 0.25,-0.594 0.156,-0.168 0.367,-0.273 0.625,-0.312 l 1.531,-0.313 0,-0.437 -1.64,0.312 c -0.051,0.008 -0.102,0.02 -0.157,0.032 -0.05,0.007 -0.097,0.015 -0.14,0.015 -0.145,0 -0.258,-0.043 -0.344,-0.125 -0.082,-0.086 -0.125,-0.199 -0.125,-0.344 0,-0.218 0.086,-0.418 0.25,-0.593 0.156,-0.168 0.367,-0.278 0.625,-0.328 l 1.531,-0.297 0,-0.453 -2.734,0.531 0,0.453 0.422,-0.078 c -0.156,0.113 -0.274,0.254 -0.359,0.422 -0.083,0.164 -0.126,0.343 -0.126,0.531 0,0.195 0.055,0.359 0.157,0.484 0.105,0.125 0.25,0.203 0.437,0.235 -0.195,0.133 -0.344,0.289 -0.437,0.468 -0.102,0.188 -0.157,0.379 -0.157,0.579 0,0.226 0.071,0.406 0.204,0.531 0.136,0.133 0.324,0.203 0.562,0.203 0.063,0 0.125,-0.008 0.188,-0.016 0.062,0 0.125,-0.011 0.187,-0.031 z" /><path
                   id="path454"
                   style="fill:#000000;fill-opacity:1;fill-rule:nonzero;stroke:none"
                   d="m 147.25,100.91 c -0.031,0 -0.055,0 -0.078,0 -0.031,0.008 -0.063,0.016 -0.094,0.016 -0.195,0 -0.351,-0.059 -0.469,-0.172 -0.113,-0.117 -0.171,-0.277 -0.171,-0.484 0,-0.219 0.074,-0.418 0.218,-0.594 0.137,-0.168 0.336,-0.293 0.594,-0.375 l 0,1.609 z m 0.344,0.391 0,-2.094 c 0.062,-0.012 0.117,-0.016 0.156,-0.016 0.031,0 0.062,0 0.094,0 0.218,0 0.39,0.067 0.515,0.204 0.125,0.132 0.188,0.332 0.188,0.593 0,0.188 -0.02,0.367 -0.063,0.547 -0.039,0.176 -0.101,0.336 -0.187,0.485 l 0.437,-0.079 c 0.063,-0.168 0.11,-0.339 0.141,-0.515 0.039,-0.168 0.063,-0.34 0.063,-0.516 0,-0.375 -0.086,-0.668 -0.266,-0.875 -0.188,-0.199 -0.445,-0.297 -0.781,-0.297 -0.289,0 -0.555,0.047 -0.797,0.141 -0.25,0.101 -0.469,0.254 -0.656,0.453 -0.126,0.125 -0.219,0.273 -0.282,0.453 -0.062,0.176 -0.094,0.363 -0.094,0.563 0,0.312 0.094,0.554 0.282,0.734 0.179,0.188 0.422,0.281 0.734,0.281 0.086,0 0.168,-0.008 0.25,-0.015 0.086,-0.012 0.172,-0.028 0.266,-0.047 z" /></g></g></g></g><g
           transform="translate(0,-0.670273)"
           id="g456"><g
             id="g458"><g
               clip-path="url(#clipPath462)"
               id="g460"><g
                 id="g466"><path
                   id="path468"
                   style="fill:#000000;fill-opacity:1;fill-rule:nonzero;stroke:none"
                   d="m 146.125,2.461 0.344,-0.063 0,-0.89 1.484,-0.297 c 0.063,-0.012 0.117,-0.023 0.156,-0.031 0.032,0 0.059,0 0.079,0 0.105,0 0.183,0.031 0.234,0.093 0.043,0.063 0.062,0.161 0.062,0.297 l 0,0.469 0.375,-0.078 0,-0.438 c 0,-0.261 -0.05,-0.461 -0.156,-0.593 -0.101,-0.137 -0.258,-0.203 -0.469,-0.203 -0.039,0 -0.082,0 -0.125,0 -0.05,0.007 -0.101,0.019 -0.156,0.031 l -1.484,0.297 0,-0.391 -0.344,0.078 0,0.375 -0.781,0.156 0,0.438 0.781,-0.141 0,0.891 z" /><path
                   id="path470"
                   style="fill:#000000;fill-opacity:1;fill-rule:nonzero;stroke:none"
                   d="m 146.594,5.734 0,3.125 0.406,0 0,-3.125 -0.406,0 z m 0.984,0 0,3.125 0.422,0 0,-3.125 -0.422,0 z" /><path
                   id="path472"
                   style="fill:#000000;fill-opacity:1;fill-rule:nonzero;stroke:none"
                   d="m 145.531,13.945 c 0,-0.261 0.125,-0.453 0.375,-0.578 0.25,-0.125 0.633,-0.187 1.141,-0.187 0.5,0 0.875,0.062 1.125,0.187 0.25,0.125 0.375,0.317 0.375,0.578 0,0.25 -0.125,0.438 -0.375,0.563 -0.25,0.133 -0.625,0.203 -1.125,0.203 -0.508,0 -0.891,-0.07 -1.141,-0.203 -0.25,-0.125 -0.375,-0.313 -0.375,-0.563 z m -0.39,0 c 0,0.407 0.168,0.711 0.5,0.922 0.324,0.219 0.793,0.328 1.406,0.328 0.605,0 1.074,-0.109 1.406,-0.328 0.324,-0.211 0.485,-0.515 0.485,-0.922 0,-0.406 -0.161,-0.718 -0.485,-0.937 -0.332,-0.219 -0.801,-0.328 -1.406,-0.328 -0.613,0 -1.082,0.109 -1.406,0.328 -0.332,0.219 -0.5,0.531 -0.5,0.937 z" /></g></g></g></g><g
           transform="translate(0,-0.670273)"
           id="g474"><g
             id="g476"><g
               clip-path="url(#clipPath480)"
               id="g478"><g
                 id="g484" /><g
                 id="g486"><g
                   clip-path="url(#clipPath490)"
                   id="g488"><g
                     id="g494"><g
                       id="g496"><g
                         clip-path="url(#clipPath500)"
                         id="g498"><g
                           id="g504"><g
                             transform="matrix(1,0,0,-1,0,182)"
                             id="g506"><path
                               id="path508"
                               style="fill:none;stroke:#000000;stroke-width:0.64565903;stroke-linecap:butt;stroke-linejoin:miter;stroke-miterlimit:4;stroke-dasharray:none;stroke-opacity:1"
                               d="m 155.332,178.789 0,-177.613" /></g><g
                             transform="matrix(0,-1,-1,0,0,182)"
                             id="g510"><path
                               id="path512"
                               style="fill:#000000;fill-opacity:1;fill-rule:evenodd;stroke:#000000;stroke-width:0.64565903;stroke-linecap:butt;stroke-linejoin:miter;stroke-miterlimit:4;stroke-dasharray:none;stroke-opacity:1"
                               d="m 7.629,-155.332 2.586,-2.578 -9.039,2.578 9.039,2.586 -2.586,-2.586 z" /></g></g></g></g></g></g></g></g></g></g></g></g></g></svg>